<?xml version="1.0" encoding="UTF-8"?><svg id="uuid-930eafd4-cb2b-4ee7-8e39-f10c145763bb" xmlns="http://www.w3.org/2000/svg" viewBox="0 0 380.71 179.35"><defs><style>.uuid-175a2884-0168-4b96-acc5-87b6a9359e77{fill:#fff;stroke-width:0px;}</style></defs><g id="uuid-23484296-ab0a-490c-9cea-8b3c78c3d32e"><rect class="uuid-175a2884-0168-4b96-acc5-87b6a9359e77" x="260.42" y="1.74" width="22.14" height="118.9"/><polygon class="uuid-175a2884-0168-4b96-acc5-87b6a9359e77" points="115.7 19.58 115.7 52.28 149.24 52.28 149.24 70.11 115.7 70.11 115.7 102.81 154.85 102.81 154.85 120.64 93.56 120.64 93.56 1.74 154.85 1.74 154.85 19.58 115.7 19.58"/><rect class="uuid-175a2884-0168-4b96-acc5-87b6a9359e77" x="302.16" y="99.5" width="77.22" height="21.14"/><path class="uuid-175a2884-0168-4b96-acc5-87b6a9359e77" d="m74.13,43.73v-9.65C74.13,15.26,58.87,0,40.04,0h-5.87C15.34,0,.08,15.26.08,34.08v54.58c0,18.82,15.26,34.09,34.09,34.09h5.87c18.83,0,34.09-15.27,34.09-34.09v-10.74h-20.1v8.03c0,9.35-7.58,16.93-16.93,16.93-4.67,0-8.9-1.89-11.96-4.96-3.07-3.06-4.96-7.29-4.96-11.97v-49.16c0-9.35,7.58-16.93,16.92-16.93,4.67,0,8.91,1.89,11.97,4.96,3.06,3.06,4.96,7.29,4.96,11.97v6.94h20.1Z"/><path class="uuid-175a2884-0168-4b96-acc5-87b6a9359e77" d="m171.28,84.17h20.18c0,11.29,4.81,19.44,13.88,19.44s16.47-4.26,16.47-16.29c0-10-12.21-13.53-20.55-17.4-13.33-7.03-28.51-8.72-29.06-38.91C172.2,1.61,202.74.74,207,.74c0,0,34.06-2.83,34.06,35.67h-20.92c0-10.74-5-17.4-13.98-17.4s-13.79,5.74-13.79,13.33,5.18,12.6,23.14,19.81,27.4,17.58,27.4,36.46-13.79,34.85-34.85,34.85-36.79-11.52-36.79-39.29Z"/><path class="uuid-175a2884-0168-4b96-acc5-87b6a9359e77" d="m14.97,166.67H6.08v7.19h11.23v5.07H0v-29.59h17.31v5.07H6.08v7.19h8.89v5.07Zm-7.48-25.79h4.21l-3.74,6.3h-2.81l2.34-6.3Z"/><path class="uuid-175a2884-0168-4b96-acc5-87b6a9359e77" d="m36.01,169.2h6.08v.63c0,1.3-.23,2.52-.7,3.68-.47,1.16-1.15,2.17-2.03,3.04-.89.87-1.99,1.56-3.3,2.05-1.31.49-2.81.74-4.49.74s-3.18-.25-4.49-.74c-1.31-.49-2.41-1.18-3.3-2.05-.89-.87-1.57-1.89-2.03-3.04-.47-1.16-.7-2.38-.7-3.68v-11.41c0-1.32.23-2.56.7-3.7s1.15-2.15,2.03-3.02c.89-.87,1.99-1.56,3.3-2.05s2.81-.74,4.49-.74,3.18.25,4.49.74,2.41,1.18,3.3,2.05c.89.87,1.57,1.88,2.03,3.02s.7,2.38.7,3.7v.21h-6.08v-.63c0-1.1-.37-2.04-1.12-2.83s-1.86-1.18-3.32-1.18-2.57.39-3.32,1.18c-.75.79-1.12,1.73-1.12,2.83v12.26c0,1.1.37,2.04,1.12,2.83.75.79,1.85,1.18,3.32,1.18s2.57-.39,3.32-1.18c.75-.79,1.12-1.73,1.12-2.83v-1.06Z"/><path class="uuid-175a2884-0168-4b96-acc5-87b6a9359e77" d="m56.36,148.91c1.68,0,3.18.25,4.49.74s2.41,1.18,3.3,2.05c.89.87,1.57,1.88,2.03,3.02s.7,2.38.7,3.7v11.41c0,1.3-.23,2.52-.7,3.68-.47,1.16-1.15,2.17-2.03,3.04-.89.87-1.99,1.56-3.3,2.05-1.31.49-2.81.74-4.49.74s-3.18-.25-4.49-.74c-1.31-.49-2.41-1.18-3.3-2.05-.89-.87-1.57-1.89-2.03-3.04-.47-1.16-.7-2.38-.7-3.68v-11.41c0-1.32.23-2.56.7-3.7s1.15-2.15,2.03-3.02c.89-.87,1.99-1.56,3.3-2.05s2.81-.74,4.49-.74Zm4.44,9.09c0-1.1-.37-2.04-1.12-2.83s-1.86-1.18-3.32-1.18-2.57.39-3.32,1.18c-.75.79-1.12,1.73-1.12,2.83v12.26c0,1.1.37,2.04,1.12,2.83.75.79,1.85,1.18,3.32,1.18s2.57-.39,3.32-1.18c.75-.79,1.12-1.73,1.12-2.83v-12.26Z"/><path class="uuid-175a2884-0168-4b96-acc5-87b6a9359e77" d="m72.03,149.33h6.08v24.52h10.29v5.07h-16.37v-29.59Z"/><path class="uuid-175a2884-0168-4b96-acc5-87b6a9359e77" d="m108.51,166.67h-8.89v7.19h11.23v5.07h-17.31v-29.59h17.31v5.07h-11.23v7.19h8.89v5.07Z"/><path class="uuid-175a2884-0168-4b96-acc5-87b6a9359e77" d="m136.8,149.33c1.68,0,3.16.25,4.42.74,1.26.49,2.31,1.18,3.13,2.05.83.87,1.45,1.88,1.87,3.02s.63,2.38.63,3.7v10.57c0,1.3-.21,2.52-.63,3.68-.42,1.16-1.04,2.17-1.87,3.04-.83.87-1.87,1.56-3.13,2.05-1.26.49-2.74.74-4.42.74h-10.99v-29.59h10.99Zm-.47,24.52c1.47,0,2.57-.39,3.32-1.18.75-.79,1.12-1.73,1.12-2.83v-11.41c0-1.1-.37-2.04-1.12-2.83s-1.86-1.18-3.32-1.18h-4.44v19.45h4.44Z"/><path class="uuid-175a2884-0168-4b96-acc5-87b6a9359e77" d="m152.47,149.33h4.68l-2.81,7.61h-2.81l.94-7.61Z"/><path class="uuid-175a2884-0168-4b96-acc5-87b6a9359e77" d="m162.29,149.33h6.08v29.59h-6.08v-29.59Z"/><path class="uuid-175a2884-0168-4b96-acc5-87b6a9359e77" d="m179.6,149.33l9.35,17.92v-17.92h6.08v29.59h-5.61l-9.35-17.92v17.92h-6.08v-29.59h5.61Z"/><path class="uuid-175a2884-0168-4b96-acc5-87b6a9359e77" d="m215.14,167.85h-3.32v-5.07h9.4v7.06c0,1.3-.23,2.52-.7,3.68-.47,1.16-1.15,2.17-2.03,3.04-.89.87-1.99,1.56-3.3,2.05-1.31.49-2.81.74-4.49.74s-3.18-.25-4.49-.74c-1.31-.49-2.41-1.18-3.3-2.05-.89-.87-1.57-1.89-2.03-3.04-.47-1.16-.7-2.38-.7-3.68v-11.41c0-1.32.23-2.56.7-3.7s1.15-2.15,2.03-3.02c.89-.87,1.99-1.56,3.3-2.05s2.81-.74,4.49-.74,3.18.25,4.49.74,2.41,1.18,3.3,2.05c.89.87,1.57,1.88,2.03,3.02s.7,2.38.7,3.7v.21h-6.08v-.63c0-1.1-.37-2.04-1.12-2.83s-1.86-1.18-3.32-1.18-2.57.39-3.32,1.18-1.12,1.73-1.12,2.83v12.26c0,1.1.37,2.04,1.12,2.83.75.79,1.85,1.18,3.32,1.18s2.57-.39,3.32-1.18c.75-.79,1.12-1.73,1.12-2.83v-2.41Z"/><path class="uuid-175a2884-0168-4b96-acc5-87b6a9359e77" d="m241.33,166.67h-8.89v7.19h11.22v5.07h-17.3v-29.59h17.3v5.07h-11.22v7.19h8.89v5.07Zm-7.48-25.79h4.21l-3.74,6.3h-2.81l2.34-6.3Z"/><path class="uuid-175a2884-0168-4b96-acc5-87b6a9359e77" d="m254.43,149.33l9.35,17.92v-17.92h6.08v29.59h-5.61l-9.35-17.92v17.92h-6.08v-29.59h5.61Z"/><path class="uuid-175a2884-0168-4b96-acc5-87b6a9359e77" d="m275.48,149.33h6.08v29.59h-6.08v-29.59Z"/><path class="uuid-175a2884-0168-4b96-acc5-87b6a9359e77" d="m302.13,166.67h-8.89v7.19h11.22v5.07h-17.3v-29.59h17.3v5.07h-11.22v7.19h8.89v5.07Z"/><path class="uuid-175a2884-0168-4b96-acc5-87b6a9359e77" d="m324.12,149.33h6.08v20.5c0,1.3-.23,2.52-.7,3.68-.47,1.16-1.15,2.17-2.03,3.04-.89.87-1.99,1.56-3.3,2.05-1.31.49-2.81.74-4.49.74s-3.18-.25-4.49-.74c-1.31-.49-2.41-1.18-3.3-2.05-.89-.87-1.57-1.89-2.03-3.04-.47-1.16-.7-2.38-.7-3.68v-20.5h6.08v20.93c0,1.1.37,2.04,1.12,2.83.75.79,1.85,1.18,3.32,1.18s2.57-.39,3.32-1.18c.75-.79,1.12-1.73,1.12-2.83v-20.93Z"/><path class="uuid-175a2884-0168-4b96-acc5-87b6a9359e77" d="m335.34,178.93v-29.59h10.06c1.68,0,3.18.28,4.49.85s2.41,1.32,3.3,2.26,1.57,2.02,2.03,3.23c.47,1.21.7,2.48.7,3.8,0,1.75-.41,3.42-1.24,5.01-.83,1.59-2.03,2.84-3.62,3.74l5.33,10.7h-6.08l-4.63-9.3h-4.26v9.3h-6.08Zm6.08-24.52v10.15h3.51c.9,0,1.67-.13,2.29-.4s1.13-.63,1.52-1.1c.39-.46.67-1.01.84-1.63.17-.62.26-1.27.26-1.94s-.09-1.32-.26-1.94c-.17-.62-.45-1.16-.84-1.63-.39-.46-.9-.83-1.52-1.1s-1.39-.4-2.29-.4h-3.51Z"/><path class="uuid-175a2884-0168-4b96-acc5-87b6a9359e77" d="m359.19,157.15c0-1.21.26-2.32.77-3.32.51-1,1.22-1.87,2.13-2.6.9-.73,2-1.3,3.27-1.71,1.28-.41,2.67-.61,4.16-.61,1.59,0,3.05.23,4.37.68s2.46,1.09,3.39,1.92c.94.83,1.66,1.83,2.17,3,.51,1.17.77,2.47.77,3.91v.63h-6.08v-1.06c0-1.24-.41-2.22-1.24-2.94-.83-.72-1.94-1.08-3.34-1.08-1.28,0-2.32.29-3.11.87-.79.58-1.19,1.33-1.19,2.26,0,.82.38,1.52,1.15,2.11.76.59,1.71,1.16,2.85,1.71,1.14.55,2.38,1.11,3.72,1.67s2.58,1.23,3.72,2.01c1.14.78,2.09,1.68,2.85,2.73.76,1.04,1.15,2.31,1.15,3.8,0,2.54-.95,4.54-2.85,6-1.9,1.47-4.47,2.2-7.72,2.2s-5.96-.82-7.76-2.45c-1.81-1.63-2.71-3.99-2.71-7.06v-.63h6.08v1.06c0,2.68,1.51,4.02,4.54,4.02,1.37,0,2.44-.27,3.2-.82.76-.55,1.15-1.32,1.15-2.3,0-.79-.38-1.46-1.15-2.03-.76-.56-1.71-1.11-2.85-1.63-1.14-.52-2.38-1.06-3.72-1.63-1.34-.56-2.58-1.23-3.72-2.01-1.14-.78-2.09-1.7-2.85-2.77-.76-1.07-1.15-2.38-1.15-3.93Z"/></g></svg>