<?xml version="1.0" encoding="UTF-8"?><svg id="uuid-c9c24d11-4f6f-45fe-b484-c8584ef78bc8" xmlns="http://www.w3.org/2000/svg" viewBox="0 0 384.94 194.44"><defs><style>.uuid-7256b6ec-e902-4aa2-a692-beba08d98691{fill:#fff;stroke-width:0px;}</style></defs><g id="uuid-d7887093-e906-4ac8-8ccd-dee2284f8ca7"><path class="uuid-7256b6ec-e902-4aa2-a692-beba08d98691" d="M114.44,96.01c-1.56,22.3-21.95,39.95-51.67,39.95h-8.66C19.12,135.95,0,114.73,0,88.79v-7.98c0-26.22,18.55-47.48,52.34-47.48h9.59c32.79,0,50.31,16.84,52.4,38.44h-28.32c-2.38-11.57-12.62-20.26-24.88-20.26h-4.29c-16.13,0-29.2,13.07-29.2,29.2v7.4c0,16.38,13.28,29.67,29.67,29.67h2.77c13.01,0,23.83-9.4,26.04-21.77h28.32Z"/><polygon class="uuid-7256b6ec-e902-4aa2-a692-beba08d98691" points="204.94 35.51 204.94 72.17 150.36 72.17 150.36 35.51 123.66 35.51 123.66 132.73 150.36 132.73 150.36 90.78 204.94 90.78 204.94 132.73 231.64 132.73 231.64 35.51 204.94 35.51"/><path class="uuid-7256b6ec-e902-4aa2-a692-beba08d98691" d="M272.05,35.51h-26.77v43.78c6.9,0,23.21-4.18,26.77-6.06v-37.71Z"/><path class="uuid-7256b6ec-e902-4aa2-a692-beba08d98691" d="M347.74,63.67v36.54c0,3.08-.33,6.16-1.11,9.13-5.16,19.43-24.35,25.97-47.4,26.19h0s-4.18,0-4.18,0c-23.62,0-43.42-6.42-48.66-26.2-.79-2.97-1.11-6.05-1.11-9.13v-16.95s24.25-.42,26.76-1.04v16.49s.42,19.27,23.01,19.06h3.29c22.23,0,22.64-19.06,22.64-19.06v-24.73c12.18-.92,26.77-10.3,26.77-10.3Z"/><path class="uuid-7256b6ec-e902-4aa2-a692-beba08d98691" d="M321.07,51.9v-16.39h19.44c-3.74,5.15-15.84,14.23-19.44,16.39Z"/><path class="uuid-7256b6ec-e902-4aa2-a692-beba08d98691" d="M384.94,0c-23.95,38.27-76.4,69.75-113.58,78.72,41.51-2.81,91.69-14.36,113.58-78.72Z"/><path class="uuid-7256b6ec-e902-4aa2-a692-beba08d98691" d="M353.01,61.31v15.74c16.88-13,27.14-44.93,27.6-47.67-9.39,16.12-13.8,22.52-27.6,31.93Z"/><path class="uuid-7256b6ec-e902-4aa2-a692-beba08d98691" d="M22.98,174.74c2.59-.06,4.66-3.57,4.66-6.16v-7.96c0-5.56-4.51-10.07-10.07-10.07H5.01v43.41h8.17v-17.34h2.32l5.74,17.34h8.25l-6.52-19.21ZM19.97,165.62c0,2.3-1.86,4.16-4.16,4.16h-2.67v-12.05h2.67c2.3,0,4.16,1.86,4.16,4.16v3.74Z"/><path class="uuid-7256b6ec-e902-4aa2-a692-beba08d98691" d="M43.68,150.14h0c-6.53,0-11.83,5.3-11.83,11.83v20.64c0,6.53,5.3,11.83,11.83,11.83h0c6.53,0,11.83-5.3,11.83-11.83v-20.64c0-6.53-5.3-11.83-11.83-11.83ZM47.79,181.36c0,2.27-1.84,6.2-4.12,6.2s-4.12-3.93-4.12-6.2v-17.83c0-2.27,1.84-6.2,4.12-6.2s4.12,3.93,4.12,6.2v17.83Z"/><path class="uuid-7256b6ec-e902-4aa2-a692-beba08d98691" d="M82.65,150.14v32.26c0,6.65-5.39,12.04-12.04,12.04h0c-6.42,0-11.62-5.2-11.62-11.62v-32.68h8.43v33.92c0,1.93,1.56,3.49,3.49,3.49h0c1.93,0,3.49-1.56,3.49-3.49v-33.92h8.26Z"/><polygon class="uuid-7256b6ec-e902-4aa2-a692-beba08d98691" points="106.2 158.11 106.2 150.14 95.19 150.14 86.81 150.14 86.81 158.11 86.81 168.71 86.81 175.87 86.81 186.47 86.81 194.44 95.19 194.44 106.2 194.44 106.2 186.47 95.19 186.47 95.19 175.87 106.2 175.87 106.2 168.71 95.19 168.71 95.19 158.11 106.2 158.11"/><polygon class="uuid-7256b6ec-e902-4aa2-a692-beba08d98691" points="116.82 150.54 109.79 150.54 109.79 194.44 118.09 194.44 118.09 171.97 126.78 194.44 134.09 194.44 134.09 150.54 125.79 150.54 125.79 172.78 116.82 150.54"/><polygon class="uuid-7256b6ec-e902-4aa2-a692-beba08d98691" points="148.91 194.44 148.91 151.83 152.85 151.83 164.67 183.89 164.67 151.83 168.37 151.83 168.37 194.44 165.16 194.44 152.85 160.74 152.85 194.44 148.91 194.44"/><polygon class="uuid-7256b6ec-e902-4aa2-a692-beba08d98691" points="277.06 194.44 277.06 151.83 281 151.83 292.82 183.89 292.82 151.83 296.51 151.83 296.51 194.44 293.31 194.44 281 160.74 281 194.44 277.06 194.44"/><polygon class="uuid-7256b6ec-e902-4aa2-a692-beba08d98691" points="223.9 194.44 223.9 151.83 227.59 151.83 236.35 175.33 245.28 151.83 248.8 151.83 248.8 194.44 245.28 194.44 245.28 160.07 237.41 181.82 234.78 181.82 227.24 160.25 227.24 194.44 223.9 194.44"/><path class="uuid-7256b6ec-e902-4aa2-a692-beba08d98691" d="M264.59,151.83h-2.81l-10,42.61h3.68l2.63-12.97h9.64l2.81,12.97h3.86l-9.82-42.61ZM258.27,178.49l4.82-21.16,4.47,21.16h-9.29Z"/><rect class="uuid-7256b6ec-e902-4aa2-a692-beba08d98691" x="327.65" y="151.83" width="3.56" height="42.61"/><path class="uuid-7256b6ec-e902-4aa2-a692-beba08d98691" d="M211.23,174.04c3.22-.83,5.59-3.75,5.59-7.23v-7.51c0-4.12-3.34-7.47-7.47-7.47h-9.99v42.61h3.56v-20.17h5.16l6.47,19.08h3.81l-7.14-19.32ZM207.72,171.69h-4.8v-17.29h4.8c3.27,0,5.91,2.64,5.91,5.91v5.47c0,3.27-2.64,5.91-5.91,5.91Z"/><path class="uuid-7256b6ec-e902-4aa2-a692-beba08d98691" d="M321.2,182.68v-22.04c0-4.86-3.94-8.8-8.8-8.8h-9v42.61h6.03c6.5,0,11.77-5.27,11.77-11.77ZM311.03,190.88h-4.07v-35.49h6.51c2.3,0,4.17,1.87,4.17,4.17v24.71c0,3.65-2.96,6.61-6.61,6.61Z"/><polygon class="uuid-7256b6ec-e902-4aa2-a692-beba08d98691" points="353.15 155.86 353.15 151.83 341.97 151.83 340.19 151.83 338.41 151.83 338.41 194.44 341.97 194.44 341.97 194.44 353.15 194.44 353.15 190.41 341.97 190.41 341.97 174.45 351.89 174.45 351.89 170.42 341.97 170.42 341.97 155.86 353.15 155.86"/><path class="uuid-7256b6ec-e902-4aa2-a692-beba08d98691" d="M174.81,159.97v24.35c0,4.99,4.04,9.03,9.03,9.03h0c4.99,0,9.03-4.04,9.03-9.03v-24.35c0-4.99-4.04-9.03-9.03-9.03h0c-4.99,0-9.03,4.04-9.03,9.03ZM183.84,190.57h0c-3.42,0-6.19-4.16-6.19-7.58v-21.71c0-3.42,2.77-7.58,6.19-7.58h0c3.42,0,6.19,4.16,6.19,7.58v21.71c0,3.42-2.77,7.58-6.19,7.58Z"/></g></svg>