<svg width="21" height="26" viewBox="0 0 21 26" fill="none" xmlns="http://www.w3.org/2000/svg">
<path d="M20.6562 15.7389C20.6562 21.337 16.1104 25.8729 10.5 25.8729C4.88965 25.8729 0.34375 21.337 0.34375 15.7389C0.34375 10.6719 4.06934 6.47219 8.9375 5.72676V4.04588H7.57031C7.24805 4.04588 6.98438 3.78279 6.98438 3.46123V1.51239C6.98438 1.19083 7.24805 0.927734 7.57031 0.927734H13.4297C13.752 0.927734 14.0156 1.19083 14.0156 1.51239V3.46123C14.0156 3.78279 13.752 4.04588 13.4297 4.04588H12.0625V5.72676C13.8936 6.00934 15.5635 6.77913 16.9307 7.89972L18.2734 6.55989C18.5029 6.3309 18.874 6.3309 19.1035 6.55989L20.4854 7.93869C20.7148 8.16768 20.7148 8.53796 20.4854 8.76695L19.0498 10.1993L19.0205 10.2286C20.0557 11.8071 20.6562 13.7024 20.6562 15.7389ZM12.0625 17.4929V10.1117C12.0625 9.79009 11.7988 9.527 11.4766 9.527H9.52344C9.20117 9.527 8.9375 9.79009 8.9375 10.1117V17.4929C8.9375 17.8144 9.20117 18.0775 9.52344 18.0775H11.4766C11.7988 18.0775 12.0625 17.8144 12.0625 17.4929Z" fill="#00B4EC"/>
</svg>
