<svg width="90" height="132" viewBox="0 0 90 132" fill="none" xmlns="http://www.w3.org/2000/svg">
<g filter="url(#filter0_d_490_2300)">
<path d="M58.9229 22.9438L53.0629 24.6008H43.2298L32.719 22.9438L22.3285 28.6059L11.5073 39.1014L10.2864 49.1825L14.1216 64.2352L23.4413 77.769L33.5498 84.6192L49.7092 85.7787L60.4135 81.912L69.9471 71.9689L74.4133 60.0922V49.5969L72.5292 38.2683L66.2813 27.0425L58.9229 22.9438Z" fill="#F3F3F3"/>
<path d="M10.3604 47.0055C10.3604 67.7154 27.8528 85.3629 45.1801 85.3629C59.1684 85.3629 68.6063 73.5621 72.6538 58.4487C68.1239 70.4469 57.9976 78.6387 47.5193 78.6387C32.5185 78.6387 20.3583 61.85 20.3583 41.1402C20.3583 37.3514 20.7652 33.694 21.5224 30.2466L11.5076 39.1014L11.1478 38.6212C10.6323 41.3169 10.3604 44.1234 10.3604 47.0055Z" fill="#D0DDDD"/>
<path d="M16.3525 84.3596L16.7431 83.1416L15.9617 81.0957L15.0824 80.0728H13.6171L7.70683 80.5851L6.72992 80.9983L5.55775 82.5084L6.29028 84.8954L6.14384 85.5773L5.91469 87.2824L5.55775 92.0073L5.91469 95.1252L8.78136 97.8042H10.2864L11.5073 97.2684L13.0798 98.2427L15.8153 97.4531H17.3208L19.1853 97.1224L20.4554 93.6638L22.0672 92.6408L23.093 89.9128L21.9696 89.1576H20.5042L19.0877 85.7792L16.3525 84.3596Z" fill="#F3F3F3"/>
<path d="M7.80014 82.6525C7.73524 82.9985 7.36653 83.3224 9.25258 84.6197C8.342 84.4038 7.99512 84.274 7.82167 84.101C8.02814 85.0432 9.13312 85.5332 11.843 85.7792H12.0282C12.1816 85.7792 12.3059 85.9032 12.3059 86.0562C12.3059 86.1962 12.2014 86.3139 12.0621 86.3311C11.5774 86.3901 9.85877 86.488 8.63634 86.297C7.02051 86.0447 6.2225 85.2099 6.2225 85.2099L5.55744 83.2491L6.84534 80.5854H7.70652L7.79985 82.6528L7.80014 82.6525Z" fill="#D0DDDD"/>
<path d="M11.5789 86.2525L11.5792 86.2524C11.7464 86.2255 11.9039 86.3388 11.9309 86.5055L12.0744 87.3913C12.1014 87.558 11.9878 87.7151 11.8206 87.742L11.8203 87.7421C11.6531 87.769 11.4956 87.6557 11.4686 87.4889L11.3251 86.6032C11.2981 86.4364 11.4117 86.2794 11.5789 86.2525Z" fill="#D0DDDD"/>
<path d="M10.286 86.2852H10.2863C10.4557 86.2852 10.593 86.4221 10.593 86.591V87.8497C10.593 88.0186 10.4557 88.1555 10.2863 88.1555H10.286C10.1167 88.1555 9.97935 88.0186 9.97935 87.8497V86.591C9.97935 86.4221 10.1167 86.2852 10.286 86.2852Z" fill="#D0DDDD"/>
<path d="M9.11303 86.0834L9.11331 86.0834C9.28201 86.0985 9.40644 86.2472 9.39123 86.4155L9.30282 87.3938C9.28762 87.562 9.13854 87.6861 8.96984 87.6709L8.96956 87.6709C8.80087 87.6557 8.67644 87.5071 8.69164 87.3388L8.78006 86.3605C8.79526 86.1923 8.94434 86.0682 9.11303 86.0834Z" fill="#D0DDDD"/>
<path d="M8.63662 86.2968C8.16252 88.3507 6.79221 93.6058 9.92537 93.9102C10.902 94.5797 13.4726 94.3566 13.8999 93.4233C14.7341 95.0262 16.0157 96.406 17.4604 95.8175C18.905 95.229 19.1084 94.458 19.21 93.7681C19.3117 93.0782 18.1725 92.6928 18.1725 92.6928L17.9264 89.1577C18.7422 90.9479 21.1747 92.8145 22.3285 90.7451L22.5402 92.1959L20.2265 93.2607L20.1553 95.5325L18.874 97.4536H14.6385L11.6925 97.6623L10.2863 97.8044L7.86819 97.6623L5.55772 94.5743L5.06467 89.6403L6.09758 85.9228L6.29054 84.8955L8.63662 86.297V86.2968Z" fill="#D0DDDD"/>
<path d="M72.6539 75.3628V74.1892L70.4261 73.5815L68.7592 73.8834L67.2709 75.9565L64.2348 79.2814L62.9026 81.4782L62.3298 83.6154L63.9967 87.0591L63.321 88.4839L64.3539 91.3497L69.057 91.6902L76.2008 88.662L77.8083 85.779L76.3795 82.7271L75.9628 81.8344L76.1414 77.6782L72.6539 75.3628Z" fill="#F3F3F3"/>
<path d="M73.6204 80.9503C74.1235 81.1353 73.594 82.7593 68.8272 81.7822C71.0251 83.5916 72.8523 83.5913 72.8523 83.5913L75.5269 82.2708L75.8181 79.9731L73.6202 80.9503H73.6204Z" fill="#D0DDDD"/>
<path d="M70.8258 83.8472C73.4254 84.9689 74.6694 86.9633 72.6538 88.0226C70.6383 89.0819 69.3915 89.5796 66.5765 89.6429C63.7615 89.7062 65.6392 86.7138 69.6384 87.898C67.8888 86.0907 65.6392 86.0282 65.6392 86.0282L63.6165 87.8608V90.5777L65.0769 91.6897H69.9474L76.2011 88.6618L77.8086 85.7785L76.3797 82.7266L72.8528 83.5903L70.8261 83.8466L70.8258 83.8472Z" fill="#D0DDDD"/>
<path d="M28.3924 122.165C27.8434 122.144 27.7343 122.062 27.7366 121.522C27.7509 121.08 27.346 120.349 26.915 120.896C26.8128 121.051 26.76 121.241 26.6991 121.419C26.6394 121.595 26.6629 121.802 26.4662 121.956C25.4698 121.828 24.4222 121.75 23.4175 121.572C23.1711 121.521 23.0918 121.429 23.0709 121.185C23.0499 120.812 23.0907 120.41 22.9095 120.07C22.7797 119.828 22.4423 119.82 22.2927 120.054C22.0937 120.42 22.0081 120.836 21.8717 121.231C21.4335 121.321 21.0292 121.198 20.5956 121.164C18.908 120.905 17.1603 120.677 15.5996 119.955C14.7692 119.576 14.8117 118.604 14.9653 117.836C15.3171 116.494 15.475 115.092 16.0108 113.806C20.4554 115.21 24.3099 118.279 29.0164 118.861C32.0146 119.419 35.0688 119.062 37.9553 118.135C38.0421 118.108 38.1273 118.047 38.2299 118.161C37.263 119.667 35.5811 120.593 34.019 121.386C32.2656 122.197 30.2862 122.23 28.3924 122.165" fill="#D0DDDD"/>
<path d="M16.6572 118.186C16.3898 117.289 17.6341 117.836 18.06 117.881C18.5272 117.973 18.9969 118.053 19.4639 118.146C19.7479 118.202 20.1493 118.296 20.0273 118.686C19.938 118.919 19.6496 118.805 19.465 118.787C18.5323 118.572 17.5692 118.468 16.6569 118.186H16.6572Z" fill="#E2812B"/>
<path d="M70.7011 121.264C70.5857 120.991 70.5162 120.754 70.3807 120.505C70.0539 120.009 69.6188 120.467 69.4974 120.865C69.1878 121.609 69.1896 121.6 68.3743 121.652C66.4041 121.778 64.4365 121.683 62.4684 121.599C61.8682 121.653 61.9954 120.953 61.7921 120.573C61.6365 120.239 61.2959 120.208 61.0469 120.479C60.897 120.643 60.8609 120.85 60.798 121.05C60.6943 121.379 60.5987 121.449 60.2619 121.437C58.9625 121.388 57.6628 121.341 56.3637 121.281C55.3745 121.351 55.5226 120.665 55.2579 119.926C55.1332 119.612 54.7645 119.566 54.5799 119.846C54.4762 120.002 54.4093 120.185 54.3387 120.361C54.1954 120.64 54.2109 121.141 53.7994 121.149C50.8937 121.142 47.9563 121.081 45.0799 120.672C45.0236 120.507 45.1747 120.412 45.2157 120.267C46.746 117.615 44.3006 114.373 45.324 114.7C50.0758 115.694 54.8771 116.439 59.6183 117.486C64.9103 118.586 70.4246 118.672 75.7264 117.668C75.1147 119.181 72.785 120.797 70.7006 121.265L70.7011 121.264Z" fill="#D0DDDD"/>
<path d="M42.976 115.805C43.805 115.94 44.4083 116.775 44.3799 117.629C44.1238 117.587 44.0821 117.364 43.9526 117.183C43.7045 116.658 43.401 116.213 42.976 115.805Z" fill="white" stroke="black" stroke-miterlimit="10"/>
<path d="M44.1972 115.42C42.3453 114.113 38.7622 114.455 38.5052 117.127C38.4595 117.332 38.3593 117.465 38.1353 117.505C33.697 118.524 28.9242 118.535 24.7527 116.543C25.2814 114.897 26.7547 112.747 28.4111 112.099C28.2454 113.453 29.7693 113.968 30.8608 114.079C33.8148 114.393 36.7076 113.565 39.6053 113.132C40.0935 113.051 40.5905 113.016 41.0853 112.986C42.542 112.923 43.9689 113.941 44.1972 115.42V115.42Z" fill="#83CCE5"/>
<path d="M40.0418 112.282C37.1476 112.579 32.2449 114.015 29.6536 112.987C29.2711 112.805 29.1436 112.455 29.1514 112.035C29.158 111.675 29.3929 111.529 29.6674 111.429C30.3129 111.194 30.9533 110.925 31.6189 110.769C33.2204 110.496 35.1515 110.015 36.705 110.646C37.7802 111.226 39.0626 111.63 40.0415 112.282L40.0418 112.282Z" fill="white"/>
<path d="M21.915 115.268C22.2866 114.145 23.107 113.26 23.6966 112.25C24.4693 110.895 23.7922 109.312 22.912 108.184C23.3798 107.926 23.818 107.714 24.3274 107.593C25.1361 109.132 26.0194 110.529 26.7803 112.093C25.4959 113.23 24.5554 114.607 23.7646 116.131C23.1283 115.834 22.5281 115.554 21.915 115.268Z" fill="#E2812B"/>
<path d="M16.5785 109.99C16.6753 109.767 16.7973 109.506 16.9564 109.307C17.8466 110.139 19.4765 113.09 19.7542 114.217C18.8861 113.841 18.0436 113.402 17.1626 113.04C17.0391 112.985 16.8501 112.949 16.7212 112.884C15.9732 112.511 15.9734 111.382 16.5785 109.99Z" fill="white"/>
<path d="M20.9855 114.843C20.5657 114.406 19.981 113.285 19.656 112.778C19.3757 112.246 18.955 110.924 18.7925 110.336C19.3206 110.051 21.3571 109.111 21.8866 108.863C22.1043 108.766 22.1637 108.854 22.386 109C24.7527 110.558 22.2197 113.887 20.9855 114.843V114.843Z" fill="#E2812B"/>
<path d="M33.5851 105.435C30.4588 105.243 27.2048 105.276 24.2735 106.532C22.2602 107.467 20.3678 108.634 18.3715 109.61C18.0134 109.014 17.5488 108.532 17.4144 107.849C17.2163 106.582 17.2981 105.256 17.9902 104.144C18.4028 103.488 19.0745 102.962 19.8719 103.002C19.7281 103.223 19.6138 103.396 19.5021 103.57C18.8198 104.476 18.661 106.703 20.3021 106.448C21.1142 106.278 21.7663 105.719 22.4644 105.304C25.4014 103.438 29.1703 103.069 32.5321 103.754C33.2267 103.959 33.4673 104.764 33.5848 105.435H33.5851Z" fill="#83CCE5"/>
<path d="M24.4796 103.351C24.3814 102.938 24.4747 102.606 24.5213 102.269C24.5663 101.943 24.7381 101.707 24.9893 101.514C26.4759 100.317 33.1018 99.8106 32.3761 102.944C29.7527 102.444 27.0548 102.644 24.4796 103.351Z" fill="white"/>
<path d="M44.0866 109.446C46.7581 110.811 49.5794 112.341 51.3276 114.852C49.1386 114.37 46.9326 113.991 44.7238 113.575C44.213 113.462 43.9356 112.945 43.5476 112.619C43.5028 111.933 43.8242 110.01 44.0866 109.446Z" fill="white"/>
<path d="M52.1713 114.455C54.0611 114.086 57.2735 111.575 56.8899 109.465C58.0775 110.241 59.273 110.91 60.3616 111.68C59.4447 112.926 58.715 115.029 57.8912 116.599C56.3623 116.272 52.8117 114.9 52.1713 114.455Z" fill="#E2812B"/>
<path d="M54.2075 107.89C54.704 108.233 55.3823 108.43 55.7131 108.925C56.7009 111.051 53.8698 114.383 52.1713 114.455C50.9325 114.312 48.299 111.699 47.735 110.586C49.1785 109.883 52.7878 108.577 54.2075 107.89Z" fill="#E2812B"/>
<path d="M62.4966 111.046C63.2027 113.884 71.6276 113.521 73.9369 112.953C75.1174 112.8 76.3131 112.399 77.5042 112.471C78.4685 112.698 79.4497 113.29 79.6616 114.314C78.341 114.26 76.4659 114.422 75.9817 115.875C75.8763 116.238 75.8295 116.574 75.7778 116.958C70.1981 117.874 64.6867 117.544 59.2055 116.374C59.1529 114.826 60.9028 111.973 62.4968 111.046H62.4966Z" fill="#83CCE5"/>
<path d="M63.3468 110.496C63.9481 109.962 66.8743 109.051 67.6051 109.376C70.0456 110.324 72.5318 111.132 75.0685 111.784C75.1725 111.811 75.304 111.807 75.3089 111.966C71.9265 112.647 68.2882 112.947 64.9247 111.983C64.1873 111.701 63.1438 111.524 63.3468 110.496V110.496Z" fill="white"/>
<path d="M61.169 109.312C61.0378 109.371 60.8704 109.333 60.7759 109.415C60.5194 109.694 60.5421 110.07 61.005 110.188C61.7651 110.431 61.631 109.601 62.0965 109.349C63.2187 108.725 64.4466 108.287 65.7414 108.267C65.9596 108.251 66.142 108.328 66.2899 108.553C64.3472 108.959 62.6904 109.808 61.0627 110.923C59.9816 110.349 58.9941 109.577 57.9227 108.978C57.0371 108.408 56.0306 108.025 55.23 107.342C55.6415 107.189 55.9973 107.056 56.3766 106.914C56.6543 107.319 56.9854 107.443 57.2743 106.99C57.3541 106.675 57.6097 106.605 57.8655 106.516C58.1722 106.361 61.7996 105.529 61.5403 106.142C60.0761 106.338 58.3494 106.591 57.5362 107.982C57.9046 108.316 58.4488 108.458 58.6926 107.925C58.7885 107.737 58.9234 107.627 59.1015 107.552C59.9733 107.151 60.9444 107.069 61.8717 106.854C62.1913 106.831 62.9373 106.544 63.1018 106.909C61.9159 107.239 60.6625 107.446 59.6568 108.187C59.6976 108.296 59.7232 108.364 59.7545 108.447C59.6238 108.484 59.5342 108.461 59.4133 108.442C59.0228 108.472 58.8034 108.967 59.1957 109.215C59.4662 109.405 60.0123 109.353 60.1493 109.017C60.2533 108.762 60.4382 108.622 60.6659 108.514C61.5926 108.112 62.6088 107.952 63.5759 107.667C63.7468 107.622 63.9277 107.6 64.1727 107.724C63.221 107.904 61.4952 108.309 61.1684 109.312H61.169Z" fill="white"/>
<path d="M60.2235 105.084C59.4895 105.214 58.7587 105.36 58.0253 105.494C54.3201 106.283 51.1984 108.629 47.7106 110.013C47.4476 110.134 47.2184 110.14 46.9591 109.97C46.4331 109.624 45.8866 109.308 45.3447 108.986C43.8512 108.069 44.058 105.233 44.8293 103.89C44.9841 103.622 45.2069 103.407 45.474 103.251C45.9891 102.897 46.3217 103.492 46.473 103.913C46.879 105.378 47.0611 107.642 49.1387 107.113C49.4267 107.014 49.7193 106.911 49.984 106.763C51.9801 105.602 53.933 104.334 56.1705 103.675C57.6362 103.299 59.2325 102.829 60.7375 103.199C61.2503 103.353 61.6584 104.349 61.7557 104.858C61.2521 105.019 60.7346 104.986 60.2235 105.084Z" fill="white"/>
<path d="M53.516 102.763C53.9232 100.729 56.6828 100.157 58.4585 100.253C59.0372 100.304 59.4751 100.583 59.7502 101.086C59.9078 101.445 60.1418 101.802 60.1051 102.211C59.1724 102.167 58.3173 102.332 57.4096 102.469C56.0039 102.646 54.7648 103.27 53.4686 103.773C53.3426 103.423 53.3612 103.42 53.4342 103.16C53.3782 103.095 53.568 102.824 53.5157 102.763H53.516Z" fill="white"/>
<path d="M26.1644 107.432C26.0782 107.782 26.1543 108.113 26.5118 108.219C26.8021 108.322 27.0235 108.266 27.1955 107.994C27.317 107.803 27.4698 107.68 27.6826 107.628C29.1985 107.194 30.7933 107.28 32.3503 107.334C33.0759 107.366 33.7878 107.516 34.4807 107.659C34.6139 107.824 34.7561 107.953 34.7604 108.169C34.5789 108.219 34.4511 108.116 34.3127 108.074C34.0023 107.981 33.7005 107.853 33.3855 107.782C31.6496 107.403 29.1195 107.497 27.6395 108.518C27.4436 108.528 27.3081 108.512 27.1878 108.548C26.834 108.697 26.9118 109.156 27.2257 109.383C27.4514 109.553 27.7136 109.54 27.8695 109.298C28.318 108.605 31.0836 108.22 31.8986 108.39C31.6568 108.511 31.4762 108.545 31.2921 108.577C30.5915 108.698 29.9184 108.904 29.286 109.235C28.7815 109.553 27.9938 109.743 27.6541 110.232C27.4218 110.721 28.1538 110.942 28.449 110.603C30.1042 109.331 32.3365 109.07 34.3667 108.956C34.6137 108.943 34.8638 108.967 35.1107 108.99C35.3758 109.014 35.4903 109.195 35.5845 109.513C32.6894 109.469 29.962 110.09 27.4945 111.626C26.6947 110.132 25.7161 108.662 25.0631 107.124C25.2417 107.085 25.4229 107.045 25.5992 107.007C25.7988 107.157 25.98 107.293 26.1644 107.432V107.432Z" fill="white" stroke="black" stroke-miterlimit="10"/>
<path d="M26.4194 106.767C28.7011 106.065 31.2117 106.155 33.5684 106.39C33.7898 106.448 33.9897 106.549 34.0477 106.805C33.8759 106.902 33.7341 106.828 33.5942 106.774C32.296 106.393 30.8924 106.498 29.5548 106.546C28.6758 106.608 27.8124 106.764 27.0052 107.147C26.8581 107.195 26.7085 107.286 26.5552 107.197C26.494 107.061 26.4311 106.934 26.4196 106.767L26.4194 106.767Z" fill="white" stroke="black" stroke-miterlimit="10"/>
<path d="M36.7708 120.326C33.4148 121.333 31.3671 121.66 30.2334 121.282C29.0997 120.905 30.5128 119.55 32.9858 118.831C35.4588 118.111 38.4363 117.675 38.4363 117.675L38.3355 119.244L36.7711 120.326H36.7708Z" fill="white"/>
<path d="M15.5677 114.412C16.9372 115.57 17.3352 116.123 18.3348 116.3C19.3344 116.476 20.1284 115.944 19.3278 115.14C18.5272 114.337 16.9877 113.353 16.9877 113.353H16.1412L15.568 114.413L15.5677 114.412Z" fill="white"/>
<path d="M72.4723 120.626C68.4872 121.067 60.2673 120.892 57.3033 120.626C54.3393 120.36 56.4019 117.607 64.8877 118.182L76.3963 117.249L76.7992 119.072L73.6255 120.895L72.4723 120.626" fill="white"/>
<path d="M53.5487 54.4659C54.7826 54.4416 51.8244 57.3578 48.4583 56.9168C50.4403 57.521 50.8609 57.8094 51.47 57.6015C52.0791 57.3936 53.9665 57.0571 53.9665 57.0571L54.9526 55.1873L54.5446 54.3608L53.5487 54.4657V54.4659Z" fill="#D0DDDD"/>
<path d="M62.0862 111.324L62.4974 110.586L62.9414 111.324L65.7874 112.597L72.2108 112.982L75.8924 112.357L77.433 112.191L78.9213 112.817L79.9135 113.789L79.6619 114.314L79.1824 114.31C78.7384 113.581 78.0073 112.852 77.2239 112.956C76.4406 113.06 72.6283 114.31 67.9284 113.867C63.4895 113.347 62.1973 112.713 62.0862 111.324Z" fill="white"/>
<path d="M75.9214 116.176C74.5273 116.853 68.2006 117.78 59.2649 115.57C58.5143 116.675 59.2055 116.374 59.2055 116.374L62.8747 117.485L72.3825 117.629L76.3964 117.249L75.9211 116.176L75.9214 116.176Z" fill="#3E5D77"/>
<path d="M58.2062 115.305C56.1677 114.793 54.7063 114.26 54.1363 113.844C53.5663 113.428 51.3437 111.864 49.4778 110.336L47.735 110.586L52.3206 115.04L57.8912 116.599L58.5068 115.928L58.2062 115.305Z" fill="#894D21"/>
<path d="M50.5115 114.677C49.0109 112.802 46.2355 111.012 43.8713 109.885L43.5434 110.586L42.8433 112.45L44.1973 114.088L50.5115 115.04V114.677V114.677Z" fill="#ADBCBB"/>
<path d="M61.7554 110.586C61.1691 109.312 59.0082 107.89 56.377 106.915L55.4917 106.727L54.7755 107.007V107.593L60.7605 111.342L61.7557 110.586H61.7554Z" fill="#83CCE5"/>
<path d="M61.6977 103.388C60.4014 103.416 57.0653 103.111 49.7568 107.593C48.686 108.183 45.6192 107.398 45.5773 103.773C45.5773 103.167 44.7348 103.843 44.6819 104.181C44.6291 104.518 43.8963 105.558 43.8963 105.558L44.3807 109.034L47.6161 111.046L51.8261 108.733L58.9151 105.586L61.6218 105.614L62.0862 104.883L61.9541 104.375L61.6977 103.388Z" fill="#83CCE5"/>
<path d="M61.9541 104.375C60.6699 104.389 57.1215 104.515 48.6051 109.034C47.2603 109.716 45.579 109.455 44.1972 105.544C43.6783 105.06 43.5434 106.851 43.5434 106.851L45.3059 109.61L47.6158 111.046L55.4914 106.727L61.9541 105.432V104.375V104.375Z" fill="#3E5D77"/>
<path d="M38.7019 116.333C35.6773 117.411 29.9933 118.015 25.0631 115.75C24.7257 115.549 24.7527 116.543 24.7527 116.543L25.5498 117.997L31.7271 118.831L39.3112 117.628L38.7019 116.333Z" fill="#3E5D77"/>
<path d="M24.1629 115.4C22.8882 114.588 19.741 111.611 19.4814 110.09V109.849L18.6452 110.173L18.4378 110.646L19.0331 111.626L20.2013 114.361L22.2513 116.427L24.3472 116.801L24.1626 115.4" fill="#894D21"/>
<path d="M28.4338 111.092C28.1595 110.213 26.467 107.437 26.4194 106.768C26.3717 106.099 25.0631 106.768 25.0631 106.768L24.4501 107.217L27.3343 112.462L28.4335 111.092" fill="#83CCE5"/>
<path d="M43.6783 115.14C43.373 114.243 42.3238 113.27 41.6211 113.353C40.9184 113.436 32.3801 115.669 29.151 114.455C28.0951 114.018 27.3106 113.549 27.3345 112.462C27.3583 111.375 28.4337 111.627 28.4337 111.627L29.0034 113.033L33.3501 113.807L41.5568 112.462L44.1974 114.088V115.42L43.6786 115.14H43.6783Z" fill="white"/>
<path d="M34.0477 104.537C32.3652 104.073 27.848 103.282 24.7524 104.753C21.6566 106.223 20.0273 108.269 19.096 107.235C18.1648 106.201 18.414 105.103 18.6774 103.389C18.9407 101.674 20.4928 102.525 20.4928 102.525L20.5315 103.065L20.1436 104.189L26.08 103.389H33.0639L34.048 104.537H34.0477Z" fill="white"/>
<path d="M34.0477 105.067C33.2032 104.999 25.4046 104.668 21.393 107.515C20.2435 108.374 16.7801 111.046 17.5638 105.064C17.5514 103.895 16.6199 105.785 16.6199 105.785L17.3208 108.822L18.1516 110.101L19.4817 109.848L25.3339 106.47L33.8547 105.91L34.048 105.067L34.0477 105.067Z" fill="#3E5D77"/>
<path d="M59.7341 102.196C59.6043 101.608 59.2032 100.631 58.4009 100.631C57.5985 100.631 55.2622 100.914 54.6957 101.467C54.1291 102.02 53.8839 102.85 53.8592 103.618C53.8345 104.385 55.9583 103.388 55.9583 103.388L59.7933 102.537L59.7344 102.196" fill="#E2812B"/>
<path d="M32.0766 102.891C32.1134 102.269 31.7587 100.905 28.542 100.955C25.3253 101.006 24.6869 102.167 24.7527 103.279C24.8184 104.391 25.3336 103.388 25.3336 103.388L31.8093 103.352L32.0766 102.891Z" fill="#E2812B"/>
<path d="M63.2948 6.14767L56.2719 2.52324L50.4403 1.15234H40.4745L29.0216 5.35353L24.3001 7.49251L30.733 15.0091L32.719 22.9441L45.351 24.6011L56.051 23.7563L58.9229 22.9441L63.2948 12.6138L66.2718 8.16435L63.2948 6.14767Z" fill="#F3F3F3"/>
<path d="M63.2949 6.14746C61.1222 9.04763 56.1432 14.7251 54.6756 23.2226L56.0511 23.7561L58.659 22.2798L65.9327 7.11342L63.2946 6.14775L63.2949 6.14746Z" fill="#D0DDDD"/>
<path d="M28.0033 9.75919C37.9656 1.61827 53.8009 1.58304 63.7351 9.77207C63.7351 9.77207 64.2439 9.32332 64.5816 8.83303C54.0665 0.380536 37.6472 0.482773 27.052 8.76459L28.0036 9.75919H28.0033Z" fill="#E0462D"/>
<path d="M62.4311 7.27441L61.683 8.2504C61.683 8.2504 63.2142 9.29167 63.7351 9.77193H64.098C64.098 9.77193 64.5213 8.88415 64.3599 8.62985C64.1985 8.37554 62.4311 7.27441 62.4311 7.27441Z" fill="#993328"/>
<path d="M7.19252 79.8647C4.416 81.215 4.70316 83.76 5.68265 85.47C4.48463 88.9962 4.11276 94.5081 6.78246 97.4412C7.8771 98.6289 9.8513 98.8373 11.124 97.9862C12.3984 98.9708 14.1934 98.894 15.5097 98.0034C18.2521 99.5622 21.4653 96.8032 20.8592 93.8509C22.6484 93.3572 24.0288 91.5241 23.3574 89.6795C23.0832 88.7966 22.2229 88.8158 21.4478 88.7513C21.0504 88.7167 20.7655 88.5343 20.6133 88.1548C19.8567 86.2847 19.0492 84.8583 17.1083 84.0221C17.9474 82.0214 16.627 79.8558 14.6236 79.2856C14.4805 77.6679 15.6343 73.9097 17.0629 72.4623C20.3319 77.1925 24.7042 81.0512 29.8225 83.7168C29.0753 85.795 28.1337 87.8 27.3311 89.8608C26.0946 92.9422 24.9336 96.0523 23.7379 99.1492C21.9145 103.744 23.3999 101.945 20.7242 101.791C17.55 101.423 15.5086 104.9 16.1799 107.73C16.2322 107.997 16.1983 108.211 16.0975 108.442C15.6128 109.551 15.3251 110.715 15.139 111.906C15.1068 112.113 15.0689 112.329 15.0979 112.532C15.1493 112.889 15.0474 113.206 14.9403 113.534C14.507 114.859 14.1302 116.2 13.8634 117.569C13.7072 118.476 13.6191 119.492 14.2399 120.257C14.2945 120.307 14.3387 120.405 14.3562 120.496C11.6156 120.704 8.83361 120.699 6.10362 121.157C5.65508 121.228 5.17955 121.259 4.79993 121.533C4.66295 121.625 4.67301 121.832 4.80912 121.927C4.9013 121.992 5.00639 122.048 5.11436 122.078C6.21905 122.381 7.37514 122.464 8.51544 122.56C12.2918 122.804 16.0725 122.979 19.8469 123.26C28.7898 123.931 37.8324 124.513 46.7532 123.275C46.995 123.234 47.2419 123.208 47.4361 123.012C47.505 122.942 47.6483 122.917 47.7565 122.92C55.9899 123.108 64.2353 123.367 72.4686 123.101C73.6173 123.052 84.1427 122.775 82.8809 121.5C82.5682 121.304 82.2136 121.224 81.8561 121.155C80.7832 120.907 79.7124 120.902 78.6376 120.696C79.3877 120.148 79.9999 119.566 80.6348 118.908C82.2397 117.242 81.4032 114.666 80.1753 113.025C79.2042 111.687 77.5148 111.356 76.0193 110.911C73.4783 110.272 70.9766 109.501 68.4938 108.669C68.0691 108.508 67.6272 108.398 67.2608 108.091C65.8637 107.28 64.4392 106.477 63.0358 105.667C62.8905 105.584 62.8222 105.462 62.8391 105.287C62.9643 104.024 62.3403 103.035 61.362 102.307C61.2437 102.227 61.1972 102.112 61.1598 101.977C60.8267 100.255 59.6267 99.1927 57.8305 99.2827C58.804 93.73 60.1821 88.2327 61.0395 82.6483C61.103 82.1726 61.5021 82.0681 61.8585 81.7473C61.5122 83.858 62.0885 85.5854 63.2299 87.334C61.4102 90.9447 65.0548 93.2641 68.395 92.4731C73.1452 91.6896 82.1639 87.5471 76.4274 82.0781C77.0519 80.0823 76.1764 79.836 77.2001 79.6754C83.0696 78.287 87.8464 73.6445 85.2979 67.3522C83.4966 63.1874 79.4417 60.6263 75.6417 58.4547C77.4689 44.5489 72.5551 28.955 60.1442 21.365C61.7922 16.4247 64.6775 12.0508 67.9261 8.01201C60.0184 0.608804 47.8699 -1.458 37.4904 0.964202C32.692 2.13578 28.0496 4.24812 24.3002 7.49252C24.1606 7.61852 23.992 7.72305 23.9266 7.96017C27.1054 11.9434 30.0528 16.2108 31.7022 21.0775C24.2433 25.0095 17.5267 30.2591 11.5266 36.1588C10.1126 37.5412 9.09952 39.2821 9.04927 41.2885C8.77417 49.4778 10.3423 57.7089 13.288 65.3487C9.71117 69.3809 7.33121 74.4249 7.19252 79.8647ZM16.5785 109.99C16.6753 109.767 16.7973 109.506 16.9564 109.307C17.8466 110.139 19.4765 113.09 19.7542 114.217C18.8861 113.84 18.0436 113.402 17.1626 113.039C17.0391 112.985 16.8502 112.948 16.7212 112.884C15.9732 112.511 15.9735 111.382 16.5785 109.99ZM59.1006 23.8225C74.4466 33.2965 77.41 55.9273 68.5705 70.7996C57.0753 89.9868 30.3011 88.6382 18.8712 70.2045C19.8794 69.1581 20.9858 68.2042 22.0342 67.1947C23.565 65.7138 25.9074 64.3111 25.3017 61.8442C24.973 59.5801 22.3033 58.3959 20.3268 59.4198C18.6885 60.1738 17.2568 61.2953 15.9784 62.5542C15.7728 62.7521 15.5683 62.9508 15.2656 63.0903C12.6979 57.1599 11.8536 50.5858 11.5269 44.1763C11.5622 42.5494 11.2466 40.7564 12.2729 39.3534C14.9236 36.1316 18.3999 33.6507 21.5874 30.9774C25.0907 28.2381 28.6908 25.5748 32.6963 23.6054C32.9898 23.4565 33.2571 23.4439 33.571 23.5662C40.3062 26.0408 52.5047 26.7894 59.1009 23.8219L59.1006 23.8225ZM52.171 86.4231C50.9888 91.6355 49.9513 96.9175 48.6582 101.915C47.0309 101.61 45.1029 101.676 44.0065 103.1C42.9846 104.356 42.702 106.115 43.1982 107.644C43.2772 107.888 43.2798 108.113 43.195 108.365C42.7129 109.603 42.5601 110.902 42.337 112.196C40.534 111.369 38.747 110.464 36.9537 109.595C36.726 109.484 36.5362 109.344 36.4052 109.116C35.8134 108.18 35.2873 107.209 34.7782 106.226C34.6737 106.036 34.6309 105.847 34.6171 105.631C34.5611 104.747 34.2955 103.949 33.5922 103.352C33.4656 103.244 33.4159 103.118 33.4148 102.952C33.4596 101.768 33.0294 100.822 31.9592 100.241C33.8306 95.6342 35.6661 91.0123 37.6819 86.4663C42.4812 87.6697 47.3442 87.5689 52.1713 86.4231H52.171ZM14.4438 80.6058C14.5658 80.5935 14.6057 80.5786 14.6391 80.5878C16.3738 81.0557 16.7502 83.3095 15.5758 84.5367C15.3259 84.8288 15.0437 85.0834 14.7278 85.3025C14.6589 85.3503 14.5555 85.3841 14.6009 85.5382C16.3551 84.9098 15.8497 84.4574 17.6935 85.6627C19.5928 86.8377 18.984 89.67 21.5311 89.9129C22.1178 89.9389 22.375 89.971 22.3208 90.6469C22.1258 92.47 19.8624 93.3867 18.4913 92.2772C18.3773 91.4619 18.2633 90.6876 18.1004 89.8897C17.9439 89.1165 17.9075 89.0265 17.697 88.7929C17.5557 89.9885 17.4819 93.5969 18.4143 94.3652V93.6098C18.8726 93.7501 19.301 93.8813 19.7553 94.0204C20.3227 96.5489 16.7827 98.3167 15.2326 96.1408C14.5968 95.2562 14.2201 94.2057 14.0567 93.1318C14.0452 93.0485 14.0762 92.9316 13.9229 92.9053C13.6398 93.818 13.5929 94.8512 13.8655 95.7685C14.0291 96.2072 14.2471 96.6259 14.4395 97.0503C13.0637 97.896 11.5671 97.3436 10.877 96.0139C10.5037 95.2782 10.1899 94.525 10.0578 93.7054C10.0434 93.6161 10.0313 93.511 9.86881 93.4944C9.77807 94.072 9.68848 94.6608 9.74706 95.2464C9.80765 95.8452 9.99344 96.4303 10.1835 96.9976C9.11934 97.4808 8.09878 97.0417 7.37428 96.2665C5.39434 93.4102 5.74036 89.5228 6.58661 86.3171C6.57829 85.5811 7.94889 86.8266 8.95968 86.279C8.61509 86.0843 8.26447 85.9603 7.9239 85.769C6.27362 85.0035 5.19821 82.256 7.19452 81.2528C7.2801 81.786 7.09057 82.418 7.64105 82.6818C9.2319 83.3814 11.0964 83.2881 12.7665 82.9289C13.2225 82.7832 14.7976 82.3413 14.5118 81.6926C14.3754 81.3438 14.4297 80.985 14.4432 80.6058H14.4438ZM75.4628 80.3716C75.7129 81.9094 74.1094 83.1732 72.6811 83.2523C70.8841 83.4986 69.3915 82.6219 68.0145 81.6119C68.395 82.7356 69.5706 83.4456 70.603 83.9241C72.4836 84.7738 74.2031 84.3643 75.7626 83.0681C80.1613 87.6522 71.6143 90.7236 67.9867 91.1996C66.9633 91.3253 65.9022 91.3099 64.9756 90.7929C63.7931 90.2262 63.5722 88.2003 64.8458 87.3936C66.5463 86.204 68.47 87.6075 70.0433 88.3567C69.5259 87.0288 68.1817 86.1103 66.7496 85.7956C65.7879 85.5502 64.9827 85.9359 64.1385 86.3409C62.6864 84.6446 62.3495 81.8184 64.0228 80.1485C64.8736 79.2713 65.8034 78.4755 66.704 77.6501C66.7235 77.6326 66.7726 77.6478 66.8277 77.6478C66.8906 77.9147 66.8312 78.2189 67.044 78.4268C67.1519 77.9474 67.2231 77.4949 67.3578 77.0619C67.8334 75.3854 69.6772 73.4655 71.5035 74.465C71.0774 74.8387 70.5648 75.0289 70.0993 75.339C68.4034 76.3915 68.808 78.4714 69.8865 79.7335C71.0825 81.2983 73.1903 81.4403 74.8784 80.5981C75.0657 80.5153 75.2345 80.375 75.4631 80.3721L75.4628 80.3716ZM70.7009 121.264C70.5855 120.991 70.516 120.755 70.3804 120.505C70.0536 120.009 69.6186 120.467 69.4971 120.865C69.1876 121.609 69.1893 121.6 68.3741 121.653C66.4039 121.779 64.4363 121.683 62.4681 121.599C61.868 121.653 61.9952 120.953 61.7919 120.573C61.6362 120.239 61.2957 120.208 61.0467 120.48C60.8968 120.643 60.8606 120.85 60.7977 121.05C60.6941 121.379 60.5984 121.449 60.2616 121.437C58.9622 121.389 57.6626 121.341 56.3635 121.281C55.3742 121.351 55.5224 120.665 55.2576 119.926C55.133 119.612 54.7643 119.567 54.5796 119.846C54.476 120.003 54.4091 120.185 54.3384 120.361C54.1951 120.641 54.2106 121.141 53.7992 121.149C50.8934 121.142 47.9561 121.081 45.0796 120.672C45.0234 120.508 45.1744 120.413 45.2155 120.268C46.7457 117.615 44.3003 114.373 45.3237 114.7C45.8802 114.817 46.4373 114.93 46.995 115.04C51.1992 115.872 55.4319 116.561 59.6181 117.486C64.9101 118.586 70.4244 118.672 75.7261 117.668C75.1145 119.181 72.7848 120.797 70.7003 121.265L70.7009 121.264ZM62.4963 111.046C63.2024 113.885 71.6273 113.522 73.9366 112.954C75.1171 112.801 76.3128 112.399 77.5039 112.472C78.4682 112.699 79.4494 113.29 79.6613 114.314C78.3407 114.26 76.4656 114.422 75.9814 115.876C75.876 116.238 75.8292 116.575 75.7775 116.959C70.1978 117.875 64.6864 117.544 59.2052 116.375C59.1526 114.826 60.9025 111.974 62.4965 111.046H62.4963ZM21.8714 121.232C21.4332 121.322 21.0289 121.199 20.5953 121.165C18.9076 120.906 17.16 120.678 15.5993 119.956C14.7689 119.577 14.8114 118.605 14.965 117.837C15.3167 116.495 15.4747 115.093 16.0105 113.807C20.4551 115.211 24.3096 118.28 29.0161 118.862C32.0143 119.42 35.0685 119.063 37.955 118.136C38.0417 118.108 38.127 118.048 38.2295 118.162C37.2627 119.668 35.5808 120.594 34.0187 121.387C32.2653 122.198 30.2859 122.231 28.3921 122.166C27.8431 122.144 27.734 122.063 27.7363 121.523C27.7506 121.081 27.3457 120.35 26.9147 120.897C26.8125 121.052 26.7596 121.241 26.6988 121.42C26.639 121.595 26.6626 121.803 26.4659 121.956C25.4695 121.828 24.4219 121.75 23.4171 121.573C23.1708 121.521 23.0915 121.43 23.0705 121.186C23.0496 120.813 23.0904 120.411 22.9092 120.071C22.7794 119.828 22.442 119.821 22.2923 120.055C22.0933 120.42 22.0078 120.836 21.8714 121.232V121.232ZM44.1966 115.42C42.3448 114.113 38.7616 114.455 38.5046 117.128C38.459 117.332 38.3588 117.465 38.1348 117.505C33.6965 118.525 28.9237 118.535 24.7521 116.543C25.2808 114.897 26.7542 112.747 28.4105 112.099C28.2448 113.453 29.7688 113.969 30.8602 114.079C33.8142 114.394 36.707 113.565 39.6047 113.132C40.0929 113.052 40.59 113.017 41.0847 112.987C42.5415 112.923 43.9684 113.941 44.1966 115.42V115.42ZM61.7548 104.858C61.2512 105.019 60.7337 104.986 60.2226 105.084C59.4886 105.214 58.7578 105.361 58.0244 105.495C54.3192 106.283 51.1975 108.63 47.7097 110.013C47.4467 110.134 47.2175 110.141 46.9582 109.97C46.4322 109.624 45.8857 109.309 45.3438 108.987C43.8503 108.07 44.0571 105.234 44.8284 103.891C44.9832 103.623 45.206 103.408 45.4731 103.251C45.9882 102.898 46.3207 103.493 46.4721 103.914C46.8781 105.379 47.0602 107.642 49.1377 107.113C49.4258 107.014 49.7184 106.911 49.9831 106.764C51.9792 105.603 53.9321 104.334 56.1696 103.675C57.6353 103.299 59.2316 102.83 60.7366 103.199C61.2494 103.353 61.6575 104.35 61.7548 104.858ZM73.6152 65.8747C75.7146 66.8086 81.5098 70.452 76.9773 72.123C75.6489 72.7072 74.315 73.2785 72.9824 73.8527C72.8414 73.9275 72.6923 73.8562 72.5668 73.7519C72.1111 73.4065 71.5862 73.2485 71.0274 73.1869C70.7132 73.1519 70.4738 73.2003 70.1593 73.0623C71.7404 70.8085 72.5522 68.3943 73.6152 65.8745V65.8747ZM33.5845 105.436C30.4582 105.243 27.2042 105.277 24.2729 106.532C22.2596 107.468 20.3673 108.634 18.3709 109.61C18.0129 109.015 17.5482 108.532 17.4139 107.85C17.2157 106.582 17.2976 105.257 17.9896 104.145C18.4022 103.488 19.0739 102.962 19.8713 103.003C19.7275 103.224 19.6132 103.396 19.5015 103.571C18.8192 104.476 18.6604 106.704 20.3015 106.448C21.1136 106.279 21.7657 105.72 22.4638 105.304C25.4008 103.439 29.1697 103.069 32.5315 103.754C33.2261 103.96 33.4668 104.764 33.5842 105.436H33.5845ZM27.1571 8.73941L26.7151 8.20302C36.0988 0.619688 49.9317 -0.163561 60.5786 5.19346C62.0032 5.90941 63.3126 6.7969 64.5813 7.75083C64.5813 8.15749 64.3565 8.87201 63.5556 10.0359C61.5647 12.9758 59.8194 15.9991 58.5504 19.3183C57.9994 20.692 57.4865 21.4773 57.1836 22.4218C53.0095 24.6607 38.2364 23.7669 34.4847 22.0538C32.9958 18.4056 30.7887 13.3012 28.1581 9.95395M63.3468 110.496C63.9481 109.962 66.8742 109.051 67.6051 109.376C70.0456 110.324 72.5318 111.132 75.0685 111.785C75.1725 111.811 75.304 111.807 75.3089 111.967C71.9265 112.647 68.2882 112.947 64.9247 111.983C64.1873 111.701 63.1438 111.524 63.3468 110.496V110.496ZM40.0418 112.282C37.1475 112.58 32.2449 114.016 29.6536 112.987C29.2711 112.805 29.1436 112.455 29.1514 112.035C29.158 111.675 29.3929 111.529 29.6674 111.429C30.3129 111.195 30.9533 110.926 31.6189 110.77C33.2204 110.496 35.1515 110.015 36.705 110.647C37.7801 111.227 39.0626 111.63 40.0415 112.282L40.0418 112.282ZM44.0867 109.446C46.7581 110.812 49.5794 112.341 51.3276 114.852C49.1386 114.37 46.9327 113.991 44.7239 113.576C44.213 113.462 43.9356 112.946 43.5477 112.62C43.5029 111.934 43.8242 110.011 44.0867 109.446ZM21.915 115.268C22.2866 114.145 23.107 113.26 23.6965 112.251C24.4693 110.896 23.7922 109.313 22.912 108.184C23.3798 107.927 23.818 107.714 24.3274 107.593C25.1361 109.133 26.0194 110.529 26.7803 112.093C25.4959 113.23 24.5554 114.607 23.7646 116.132C23.1283 115.835 22.5281 115.554 21.915 115.268ZM52.8869 114.424C54.7766 114.056 57.2735 111.575 56.8898 109.465C58.0775 110.242 59.2729 110.91 60.3615 111.681C59.4447 112.926 58.5921 114.568 57.7679 116.139C56.2391 115.812 53.5272 114.869 52.8869 114.424ZM54.2075 107.891C54.704 108.233 55.3822 108.43 55.7131 108.925C56.7009 111.051 54.0185 113.773 52.32 113.845C51.0895 113.074 49.5507 111.627 48.2582 110.953C49.7017 110.25 52.7878 108.578 54.2075 107.891ZM61.1693 109.313C61.0381 109.372 60.8707 109.333 60.7762 109.415C60.5198 109.694 60.5424 110.07 61.0053 110.188C61.7654 110.431 61.6313 109.602 62.0968 109.349C63.219 108.726 64.4469 108.288 65.7417 108.268C65.9599 108.252 66.1423 108.329 66.2902 108.553C64.3476 108.96 62.6907 109.808 61.0631 110.923C59.9819 110.349 58.9944 109.578 57.923 108.979C57.0374 108.409 56.0309 108.025 55.2303 107.343C55.6418 107.189 55.9976 107.056 56.377 106.915C56.6546 107.319 56.9857 107.443 57.2746 106.991C57.3544 106.675 57.61 106.606 57.8659 106.517C58.1725 106.361 61.7999 105.529 61.5406 106.142C60.0764 106.338 58.3497 106.591 57.5365 107.983C57.9049 108.317 58.4491 108.459 58.6929 107.926C58.7888 107.737 58.9237 107.627 59.1018 107.552C59.9736 107.151 60.9448 107.069 61.872 106.854C62.1916 106.831 62.9376 106.544 63.1022 106.91C61.9162 107.239 60.6628 107.447 59.6571 108.187C59.6979 108.296 59.7235 108.364 59.7548 108.448C59.6241 108.484 59.5345 108.461 59.4136 108.442C59.0231 108.473 58.8037 108.967 59.196 109.215C59.4665 109.406 60.0126 109.353 60.1496 109.017C60.2536 108.762 60.4385 108.623 60.6662 108.515C61.5929 108.113 62.6091 107.953 63.5763 107.667C63.7471 107.623 63.928 107.6 64.173 107.725C63.2213 107.905 61.4955 108.309 61.1687 109.313H61.1693ZM26.1644 107.432C26.0782 107.782 26.1543 108.113 26.5118 108.219C26.8021 108.323 27.0235 108.266 27.1955 107.994C27.317 107.803 27.4698 107.68 27.6826 107.628C29.1985 107.194 30.7933 107.28 32.3503 107.335C33.0759 107.366 33.7878 107.516 34.4807 107.66C34.6139 107.825 34.7561 107.953 34.7604 108.169C34.5789 108.219 34.4511 108.116 34.3127 108.074C34.0023 107.981 33.7005 107.853 33.3855 107.782C31.6496 107.404 29.1195 107.497 27.6395 108.518C27.4436 108.528 27.3081 108.512 27.1878 108.548C26.834 108.697 26.9118 109.156 27.2257 109.383C27.4514 109.553 27.7136 109.54 27.8695 109.298C28.318 108.605 31.0836 108.22 31.8986 108.39C31.6568 108.511 31.4762 108.545 31.2921 108.577C30.5915 108.698 29.9184 108.904 29.286 109.235C28.7815 109.553 27.9938 109.744 27.6541 110.232C27.4218 110.721 28.1538 110.942 28.449 110.603C30.1042 109.331 32.3365 109.07 34.3667 108.956C34.6137 108.943 34.8638 108.967 35.1107 108.99C35.3758 109.014 35.4903 109.195 35.5845 109.513C32.6894 109.469 29.962 110.09 27.4945 111.626C26.6947 110.132 25.7161 108.662 25.0631 107.124C25.2417 107.085 25.4229 107.046 25.5992 107.007C25.7988 107.157 25.98 107.294 26.1644 107.432V107.432ZM53.5163 102.763C53.9235 100.729 56.6831 100.158 58.4588 100.253C59.0375 100.304 59.4754 100.583 59.7505 101.086C59.9081 101.445 60.1422 101.802 60.1054 102.211C59.1727 102.167 58.3176 102.332 57.4099 102.469C56.0042 102.646 54.7651 103.271 53.4689 103.773C53.3429 103.423 53.3788 103.388 53.4345 103.16C53.4675 102.976 53.516 102.763 53.516 102.763H53.5163ZM24.4796 103.352C24.3814 102.938 24.4747 102.606 24.5213 102.27C24.5663 101.943 24.7381 101.707 24.9893 101.514C26.4759 100.318 33.1018 99.8107 32.3761 102.945C29.7527 102.445 27.0548 102.644 24.4796 103.352ZM21.177 114.578C20.7572 114.141 20.4867 113.584 20.1616 113.077C19.8814 112.545 18.955 110.924 18.7925 110.336C19.3206 110.051 21.3571 109.111 21.8866 108.863C22.1043 108.766 22.1852 108.826 22.386 109C24.45 110.792 21.915 113.649 21.177 114.578ZM26.4194 106.767C28.7011 106.065 31.2117 106.155 33.5684 106.39C33.7898 106.448 33.9897 106.549 34.0477 106.805C33.876 106.902 33.7341 106.828 33.5943 106.774C32.296 106.393 30.8924 106.498 29.5548 106.546C28.6758 106.608 27.8124 106.764 27.0052 107.147C26.8581 107.195 26.7085 107.286 26.5552 107.197C26.494 107.061 26.4311 106.934 26.4196 106.767L26.4194 106.767ZM42.9759 115.805C43.805 115.94 44.4083 116.774 44.3798 117.628C44.1237 117.587 44.0821 117.364 43.9526 117.183C43.7045 116.658 43.4009 116.213 42.9759 115.805Z" fill="black"/>
<path d="M43.0501 44.9588C41.6017 45.5654 40.5225 43.9173 40.6015 42.6306C40.6515 41.8951 41.2703 41.083 42.0824 41.2253C42.1533 41.2376 42.2282 41.227 42.3264 41.227C42.1099 38.6321 39.3205 35.4167 36.7906 37.7736C33.9194 40.8181 34.7366 47.9449 35.4367 51.809C35.7747 53.3678 36.2066 55.0363 37.3925 56.1815C38.9793 57.8015 41.1847 57.0272 42.0218 55.0729C43.3987 51.9256 43.3665 48.3158 43.0501 44.9588Z" fill="black"/>
<path d="M62.8701 44.6026C62.0643 44.7309 61.5254 44.7496 61.0271 44.0382C60.7897 43.7103 60.6202 43.3474 60.52 42.9562C60.2688 42.0782 60.7753 40.7912 61.8475 40.9043C62.1091 40.9456 62.2395 40.8574 62.1491 40.618C61.8461 39.6468 61.4317 38.7304 60.806 37.9191C58.8427 35.4173 56.0737 36.8847 55.4196 39.587C54.3249 42.958 54.1563 56.7589 59.3682 56.4476C62.3326 55.9241 62.7765 51.5809 62.9798 49.136C63.0085 47.6537 63.1653 46.0491 62.8698 44.6024L62.8701 44.6026Z" fill="black"/>
<path d="M50.5624 65.5479C53.0465 65.482 55.3826 64.5378 56.9955 62.6171C57.7059 61.6279 59.0806 60.1161 58.6409 58.8308C58.4121 58.2369 57.8423 58.0207 57.2924 58.3345C53.4124 61.7107 48.6889 61.8888 44.4973 58.9222C44.1634 58.6664 43.8193 58.427 43.4262 58.2698C43.0538 58.1014 42.5834 58.3365 42.4085 58.5928C42.2179 58.8724 42.1088 59.1802 42.1739 59.5116C43.133 62.6723 45.7835 64.7953 49.0264 65.374C49.5332 65.4625 50.0504 65.4917 50.5626 65.5482L50.5624 65.5479Z" fill="black"/>
<path d="M39.9508 27.0449C36.9552 27.2199 34.17 28.4058 32.1453 30.5634C31.8696 30.8844 31.6482 31.2381 31.5164 31.6439C30.9924 33.0735 32.6291 34.7193 34.0066 33.8856C35.8396 32.6525 37.8192 31.399 40.1096 31.3824C40.4326 31.3781 40.7588 31.3515 41.077 31.2973C43.9965 30.5459 42.7267 26.9361 39.9508 27.0449Z" fill="black"/>
<path d="M54.0326 29.0049C54.0515 30.6064 55.3185 31.076 56.6555 30.9684C57.6349 30.9961 58.5946 31.1324 59.519 31.4741C60.6484 31.8558 61.652 32.4896 62.6806 33.073C63.9619 33.7528 65.5343 32.3089 64.8905 30.9858C64.7424 30.6095 64.5118 30.2842 64.2453 29.9803C62.8049 28.4428 60.8758 27.4144 58.8175 26.9851C57.0115 26.5618 54.2011 26.6686 54.0329 29.0052L54.0326 29.0049Z" fill="black"/>
<path d="M51.9869 54.4196C52.747 54.4752 54.87 54.1696 54.366 55.5036C53.8161 56.6434 52.6442 57.2514 51.4701 57.6025C51.5556 57.6652 51.5924 57.7139 51.6357 57.7204C53.1459 57.9664 54.8608 57.4498 55.4656 55.9251C55.5764 55.6608 55.6476 55.3842 55.6226 55.0918C55.4328 53.2589 53.141 53.6066 51.9869 54.4199V54.4196Z" fill="black"/>
<path d="M44.7477 11.6584C45.3972 20.2741 58.1751 16.4266 53.7437 8.7107C50.9931 4.8145 44.5418 6.98526 44.7477 11.6584ZM48.5628 8.24304C49.1822 8.10386 49.7985 8.19836 50.4268 8.17173C50.7481 8.17488 50.8302 8.25278 50.836 8.58469C50.8492 9.18351 50.7808 9.75541 50.8518 10.358C51.5613 10.4782 52.2514 10.3256 52.9423 10.4573C53.058 10.9808 52.9865 11.494 52.9968 12.0023C53.0017 12.2435 53.0413 12.4938 52.9262 12.7529C52.2313 12.8672 51.5565 12.7212 50.8618 12.85C50.7826 13.5571 50.9264 14.2584 50.7705 14.9469C50.1652 15.0451 48.9901 15.0248 48.564 14.9082C48.4491 14.2292 48.585 13.5236 48.4718 12.8182C47.7683 12.728 47.0811 12.8916 46.4204 12.7584C46.3104 12.2134 46.323 10.8803 46.4408 10.4479C47.1027 10.3247 47.7938 10.4957 48.5014 10.3502C48.5626 9.65346 48.483 8.96844 48.5628 8.24332V8.24304Z" fill="#E0462D"/>
<path d="M16.8485 116.574C15.8983 116.501 15.5276 117.371 15.5712 118.14C15.5922 118.722 16.0789 119.076 16.613 119.19C17.7145 119.416 18.8167 119.638 19.9211 119.848C21.2121 120.083 21.611 118.054 20.6286 117.463C20.4078 117.324 20.1459 117.229 19.8898 117.172C18.8953 116.971 17.8458 116.702 16.8485 116.574V116.574ZM16.6572 118.186C16.3899 117.29 17.6341 117.836 18.06 117.881C18.5272 117.973 18.997 118.053 19.4639 118.146C19.7479 118.202 20.1493 118.297 20.0273 118.686C19.938 118.919 19.6497 118.805 19.4651 118.787C18.5324 118.572 17.5692 118.468 16.6569 118.186H16.6572Z" fill="black"/>
<path d="M53.5941 106.433C54.4484 106.402 54.5469 105.053 53.6085 105.23C52.8716 105.377 52.6413 106.484 53.5941 106.433Z" fill="black"/>
<path d="M25.107 105.188C25.0996 104.259 23.4596 104.892 23.8516 105.623C24.1548 106.245 25.1587 105.746 25.107 105.188Z" fill="black"/>
<path d="M51.3276 119.309C49.729 115.924 48.6674 115.379 46.9958 115.04C47.4762 115.892 47.2344 118.862 46.9958 119.072C46.7572 119.282 47.3082 119.821 49.895 119.866C51.1785 119.889 51.7141 120.128 51.3276 119.309V119.309Z" fill="white"/>
</g>
<defs>
<filter id="filter0_d_490_2300" x="0.701965" y="0" width="89.298" height="132" filterUnits="userSpaceOnUse" color-interpolation-filters="sRGB">
<feFlood flood-opacity="0" result="BackgroundImageFix"/>
<feColorMatrix in="SourceAlpha" type="matrix" values="0 0 0 0 0 0 0 0 0 0 0 0 0 0 0 0 0 0 127 0" result="hardAlpha"/>
<feOffset dy="4"/>
<feGaussianBlur stdDeviation="2"/>
<feComposite in2="hardAlpha" operator="out"/>
<feColorMatrix type="matrix" values="0 0 0 0 0 0 0 0 0 0 0 0 0 0 0 0 0 0 0.25 0"/>
<feBlend mode="normal" in2="BackgroundImageFix" result="effect1_dropShadow_490_2300"/>
<feBlend mode="normal" in="SourceGraphic" in2="effect1_dropShadow_490_2300" result="shape"/>
</filter>
</defs>
</svg>
