<?xml version="1.0" encoding="UTF-8"?><svg id="uuid-bcba6746-c5ff-4bd6-ad71-28549d0126bb" xmlns="http://www.w3.org/2000/svg" viewBox="0 0 123.07 132.87"><defs><style>.uuid-f964702b-c2f4-41b8-9def-f4a090c000e5{fill:#2b0020;}.uuid-f964702b-c2f4-41b8-9def-f4a090c000e5,.uuid-ec8fe278-3314-4616-af34-6fe65d0fd0f9,.uuid-9fe410b1-c535-4b71-9bcd-87ee6a93d351,.uuid-f7097665-45de-44eb-b5f0-8776ac3a3f8b,.uuid-3123ade8-19f3-4da2-b2ed-fc91240ac5af,.uuid-f3234f71-ac63-4fcd-8816-875d5b16485f,.uuid-4004abb5-57b6-430f-adfd-484a39011ebf,.uuid-1b42245a-9011-4ad7-88b5-e40d977f1ab7{stroke-width:0px;}.uuid-ec8fe278-3314-4616-af34-6fe65d0fd0f9{fill:#dbdbc9;}.uuid-9fe410b1-c535-4b71-9bcd-87ee6a93d351{fill:#aa4529;}.uuid-f7097665-45de-44eb-b5f0-8776ac3a3f8b{fill:#b95a3b;}.uuid-3123ade8-19f3-4da2-b2ed-fc91240ac5af{fill:#9f3423;}.uuid-f3234f71-ac63-4fcd-8816-875d5b16485f{fill:#8ebb6a;}.uuid-4004abb5-57b6-430f-adfd-484a39011ebf{fill:#fff;}.uuid-1b42245a-9011-4ad7-88b5-e40d977f1ab7{fill:#e49b3f;}</style></defs><g id="uuid-0d2e62a1-7bce-4490-9132-92825201abfc"><circle class="uuid-f3234f71-ac63-4fcd-8816-875d5b16485f" cx="67.43" cy="79.72" r="53.15" transform="translate(-32.46 110.14) rotate(-66.71)"/><path class="uuid-f964702b-c2f4-41b8-9def-f4a090c000e5" d="M27.98,61.53c-.1-.7-.16-1.47-.16-2.35,0-5.87,2.47-10.63,5.51-10.63.18,0,.35.02.52.05-.88,5.23-2.36,9.74-5.87,12.93Z"/><path class="uuid-f964702b-c2f4-41b8-9def-f4a090c000e5" d="M33.16,45.58c-2.4,0-4.03,1.73-4.06,1.76-.5.55-1.35.6-1.91.1-.56-.5-.61-1.36-.11-1.92.1-.11,2.42-2.66,6.08-2.66.5,0,.98.05,1.45.13-.1.91-.21,1.81-.33,2.69-.36-.07-.73-.1-1.12-.1Z"/><path class="uuid-f7097665-45de-44eb-b5f0-8776ac3a3f8b" d="M53,16.07c-4.51.78-2.24,6.2-2.24,6.2,0,0-1.1-1.02-2.72-1.44-1.32-6.15-1.16-13.14.85-13.78,2.99-.95,6.07,4.2,8.26,9.61-1.02-.54-2.38-.9-4.15-.59Z"/><path class="uuid-ec8fe278-3314-4616-af34-6fe65d0fd0f9" d="M.32,79.64c-.03.16-.06.31-.08.47.02-.16.05-.31.08-.47Z"/><path class="uuid-ec8fe278-3314-4616-af34-6fe65d0fd0f9" d="M.18,80.58c-.02.15-.04.3-.06.45.02-.15.04-.3.06-.45Z"/><path class="uuid-ec8fe278-3314-4616-af34-6fe65d0fd0f9" d="M.07,81.59c-.02.2-.03.4-.04.6.01-.2.02-.4.04-.6Z"/><path class="uuid-ec8fe278-3314-4616-af34-6fe65d0fd0f9" d="M.51,78.72c-.04.16-.07.32-.1.48.03-.16.07-.32.1-.48Z"/><path class="uuid-ec8fe278-3314-4616-af34-6fe65d0fd0f9" d="M0,83.7c0,.14,0,.27.01.41,0-.14,0-.27-.01-.41Z"/><path class="uuid-ec8fe278-3314-4616-af34-6fe65d0fd0f9" d="M0,82.8c0,.13,0,.27,0,.4,0-.13,0-.27,0-.4Z"/><path class="uuid-ec8fe278-3314-4616-af34-6fe65d0fd0f9" d="M1.16,76.53c-.1.28-.2.56-.29.84.09-.28.18-.56.29-.84Z"/><path class="uuid-ec8fe278-3314-4616-af34-6fe65d0fd0f9" d="M1.53,75.61c-.07.16-.14.32-.21.48.06-.16.14-.32.21-.48Z"/><path class="uuid-ec8fe278-3314-4616-af34-6fe65d0fd0f9" d="M.74,77.8c-.05.16-.09.32-.13.48.04-.16.08-.32.13-.48Z"/><path class="uuid-ec8fe278-3314-4616-af34-6fe65d0fd0f9" d="M2.63,92.52c-.36-.25-.64-.53-.86-.82.21.29.5.56.86.82Z"/><path class="uuid-1b42245a-9011-4ad7-88b5-e40d977f1ab7" d="M39.17,30.22c.88-1.03,1.87-2,2.96-2.91.83,2.18,2.43,4.06,2.43,4.06,0,0-2.56-.86-5.4-1.15Z"/><path class="uuid-ec8fe278-3314-4616-af34-6fe65d0fd0f9" d="M.03,84.59c0,.13.02.26.02.39,0-.13-.02-.26-.02-.39Z"/><path class="uuid-ec8fe278-3314-4616-af34-6fe65d0fd0f9" d="M.54,88.25c.02.1.05.19.07.28-.02-.09-.05-.19-.07-.28Z"/><path class="uuid-ec8fe278-3314-4616-af34-6fe65d0fd0f9" d="M.94,89.73c.03.09.06.17.08.26-.03-.09-.06-.17-.08-.26Z"/><path class="uuid-ec8fe278-3314-4616-af34-6fe65d0fd0f9" d="M1.26,90.64c-.03-.07-.05-.14-.08-.21.03.07.05.14.08.21Z"/><path class="uuid-ec8fe278-3314-4616-af34-6fe65d0fd0f9" d="M.73,89.01c.03.1.05.19.08.28-.03-.09-.05-.19-.08-.28Z"/><path class="uuid-ec8fe278-3314-4616-af34-6fe65d0fd0f9" d="M.21,86.41c.01.09.02.18.04.27-.01-.09-.02-.18-.04-.27Z"/><path class="uuid-ec8fe278-3314-4616-af34-6fe65d0fd0f9" d="M.1,85.49c.01.12.02.24.04.36-.01-.12-.02-.24-.04-.36Z"/><path class="uuid-ec8fe278-3314-4616-af34-6fe65d0fd0f9" d="M.38,87.47c.01.08.03.15.05.23-.02-.08-.03-.15-.05-.23Z"/><path class="uuid-ec8fe278-3314-4616-af34-6fe65d0fd0f9" d="M17.85,95.06c-.99.02-1.96.01-2.89-.01.94.02,1.9.03,2.89.01Z"/><path class="uuid-ec8fe278-3314-4616-af34-6fe65d0fd0f9" d="M8.58,94.5c1.88.31,4.04.49,6.38.55-2.34-.06-4.5-.24-6.38-.55Z"/><path class="uuid-ec8fe278-3314-4616-af34-6fe65d0fd0f9" d="M6.47,94.07c.65.16,1.36.3,2.11.42-.75-.12-1.46-.26-2.11-.42Z"/><path class="uuid-ec8fe278-3314-4616-af34-6fe65d0fd0f9" d="M19.35,95.02c1.52-.06,3.07-.16,4.66-.31-1.58.15-3.14.25-4.66.31Z"/><path class="uuid-ec8fe278-3314-4616-af34-6fe65d0fd0f9" d="M7.88,68.61c-.18.1-.35.2-.51.31.17-.1.34-.21.51-.31Z"/><path class="uuid-ec8fe278-3314-4616-af34-6fe65d0fd0f9" d="M4.67,93.54c.54.2,1.15.38,1.8.54-.65-.16-1.26-.34-1.8-.54Z"/><path class="uuid-ec8fe278-3314-4616-af34-6fe65d0fd0f9" d="M96.39,47.04s-.03-.04-.04-.06c.01.02.03.04.04.06Z"/><path class="uuid-ec8fe278-3314-4616-af34-6fe65d0fd0f9" d="M6.93,69.19c-.17.11-.33.22-.48.33.16-.11.32-.22.48-.33Z"/><path class="uuid-ec8fe278-3314-4616-af34-6fe65d0fd0f9" d="M6.05,69.81c-.15.12-.3.23-.45.36.15-.12.3-.24.45-.36Z"/><path class="uuid-ec8fe278-3314-4616-af34-6fe65d0fd0f9" d="M4.51,71.18c-.25.26-.49.52-.71.79.23-.27.46-.53.71-.79Z"/><path class="uuid-ec8fe278-3314-4616-af34-6fe65d0fd0f9" d="M95.46,45.54s-.04-.07-.06-.1c.02.03.04.07.06.1Z"/><path class="uuid-ec8fe278-3314-4616-af34-6fe65d0fd0f9" d="M94.52,43.97s-.04-.07-.06-.11c.02.04.04.07.06.11Z"/><path class="uuid-ec8fe278-3314-4616-af34-6fe65d0fd0f9" d="M93.56,42.32s-.03-.05-.04-.07c.01.02.03.05.04.07Z"/><path class="uuid-ec8fe278-3314-4616-af34-6fe65d0fd0f9" d="M2.41,73.9c-.09.15-.18.31-.26.46.09-.15.17-.31.26-.46Z"/><path class="uuid-ec8fe278-3314-4616-af34-6fe65d0fd0f9" d="M5.24,70.48c-.14.13-.28.25-.42.38.13-.13.28-.25.42-.38Z"/><path class="uuid-ec8fe278-3314-4616-af34-6fe65d0fd0f9" d="M1.95,74.74c-.08.16-.16.31-.23.47.07-.16.15-.31.23-.47Z"/><path class="uuid-ec8fe278-3314-4616-af34-6fe65d0fd0f9" d="M2.94,73.08c-.1.15-.2.3-.3.45.1-.15.19-.3.3-.45Z"/><path class="uuid-ec8fe278-3314-4616-af34-6fe65d0fd0f9" d="M3.52,72.28c-.11.14-.22.29-.33.44.11-.15.22-.3.33-.44Z"/><path class="uuid-3123ade8-19f3-4da2-b2ed-fc91240ac5af" d="M1.03,89.99c-.03-.09-.06-.17-.08-.26-.05-.14-.09-.29-.13-.44-.03-.09-.05-.19-.08-.28-.04-.15-.08-.31-.12-.47-.02-.09-.05-.19-.07-.28-.04-.18-.08-.37-.12-.56-.02-.08-.03-.15-.05-.23-.05-.26-.09-.53-.13-.8-.01-.09-.02-.18-.04-.27-.03-.19-.05-.37-.07-.56-.01-.12-.02-.24-.04-.36-.02-.17-.03-.33-.04-.5,0-.13-.02-.26-.02-.39,0-.16-.02-.32-.02-.49,0-.14,0-.27-.01-.41,0-.17,0-.33,0-.5,0-.13,0-.27,0-.4,0-.2.02-.4.03-.6.01-.2.02-.4.04-.6.02-.19.03-.38.05-.57.02-.15.04-.3.06-.45.02-.16.04-.31.06-.47s.05-.31.08-.47c.03-.15.05-.3.08-.45.03-.16.07-.32.1-.48.03-.15.07-.29.11-.44.04-.16.08-.32.13-.48.04-.14.09-.28.13-.42.09-.28.18-.56.29-.84.06-.15.11-.3.17-.45.06-.16.14-.32.21-.48.06-.13.11-.27.18-.4.07-.16.15-.31.23-.47.07-.13.13-.26.2-.38.08-.15.17-.31.26-.46.07-.12.15-.25.23-.37.1-.15.19-.3.3-.45.08-.12.17-.24.26-.35.11-.15.22-.3.33-.44.09-.11.18-.21.27-.32.23-.27.46-.53.71-.79.1-.11.2-.21.31-.32.13-.13.28-.25.42-.38.12-.1.24-.21.36-.31.15-.12.3-.24.45-.36.13-.1.26-.2.4-.29.16-.11.32-.22.48-.33.14-.09.29-.18.44-.27.17-.1.34-.21.51-.31.16-.09.33-.17.49-.26.18-.09.35-.19.53-.27,8.53,1.68,16.26,6.85,18.8,16.6,1.76,7.06,13.43,3.02,14.11,5.29.62.31-.59,1.18-.59,1.18-5.33,1.85-11.43,3.02-17.23,3.57-1.58.15-3.14.25-4.66.31-.51.02-1.01.03-1.5.04-.99.02-1.96.01-2.89-.01-2.34-.06-4.5-.24-6.38-.55-.75-.12-1.46-.26-2.11-.42-.65-.16-1.26-.34-1.8-.54-.82-.3-1.5-.64-2.03-1.02-.36-.25-.64-.53-.86-.82-.11-.15-.19-.3-.26-.45-.09-.19-.17-.4-.25-.61-.03-.07-.05-.14-.08-.21-.05-.15-.11-.29-.16-.45Z"/><path class="uuid-f964702b-c2f4-41b8-9def-f4a090c000e5" d="M88.75,31.03s5.41-2.21,7.6-.77c2.2,1.45-1.9,3.19-1.9,3.19,0,0,7.69-1.99,9.32,0,1.63,1.99-2.91,4.96-2.91,4.96,0,0,7.3.38,8.88,2.91,1.58,2.53-3.19,2.65-3.19,2.65,0,0,6.78.5,8.41,2.37,1.63,1.86-3.07,4.26-3.07,4.26,0,0,6.73,1.98,7.46,4.3.72,2.32-3.52,2.84-3.52,2.84,0,0,3.8-.48,4.75,2.67.95,3.15-2.63,2.56-2.63,2.56,0,0,3.98,2.14,4.88,5.7.9,3.56-.66,5.31-7.53,4.27-6.87-1.03-24.54-27.39-24.54-27.39l-2.02-14.51Z"/><path class="uuid-9fe410b1-c535-4b71-9bcd-87ee6a93d351" d="M8.93,68.08c8.52,1.69,16.24,6.85,18.79,16.59,1.76,7.06,13.43,3.02,14.11,5.29.62.31-.59,1.18-.59,1.18,0,0,10.84,3.87,19.42,2.05,5.91-1.26,9.74-4.14,11.6-5.92,1.13-1.08,2.62-1.41,3.97-1.13,5.29-2.97,12.05-4.84,15.28-1.61,7.92,7.2,14.64,14.87,23.18,19.54,2.93-5.68,4.88-11.96,5.6-18.61.2-1.89.31-3.8.31-5.74,0-2.1-.15-4.38-.42-6.78-2.2-1.45-4.7-3.34-7.43-5.82,0,0,0,0,0,0-1.44-1.31-2.93-2.78-4.48-4.44-1.36-1.46-2.75-3.06-4.17-4.81,0-.01-.02-.02-.03-.03-.47-.58-.94-1.18-1.42-1.8h0c-1.13-1.47-2.28-3.05-3.44-4.72h0c-.93-1.35-1.87-2.77-2.81-4.27-.01-.02-.03-.04-.04-.06-.3-.47-.59-.95-.89-1.44-.02-.03-.04-.07-.06-.1-.29-.48-.59-.97-.88-1.47-.02-.04-.04-.07-.06-.11-.3-.51-.6-1.02-.9-1.54-.01-.02-.03-.05-.04-.07-.63-1.1-1.26-2.23-1.89-3.39h0c-.33-.6-.65-1.22-.98-1.84-.09-.18-.19-.34-.28-.52-1.91,2.92-4.97,2.87-8.13,1.23-3.19-1.66-6.47-4.94-8.78-8.46-1.8-2.74-3-5.63-3.08-7.98,0-.09,0-.18,0-.27-.67.02-1.35.15-1.99.38-3.09,1.13-8.57,4.13-13.43,11.9-7.25,11.59-8.43,16.49-12.15,15.31-3.72-1.18-.59-7.25-5.1-7.45-1.09-.05-2.03-.29-2.82-.68-.09.84-.19,1.68-.28,2.51-.1.91-.21,1.81-.33,2.69-.13.99-.27,1.97-.43,2.92-.88,5.23-2.36,9.74-5.87,12.93-2.68,2.43-6.54,4.1-12.23,4.72-2.68.29-4.93.94-6.83,1.83ZM51.63,61.51c0-4.57,1.5-8.45,3.59-9.96.06-.04.11-.08.17-.12.09-.06.17-.11.26-.15.08-.04.16-.08.24-.12.08-.03.15-.07.23-.1.1-.04.21-.07.31-.09.06-.02.12-.03.19-.05.17-.03.34-.05.52-.05.18,0,.37.02.55.05.06.01.12.03.18.05.12.03.24.06.35.1.07.03.14.06.21.1.1.05.21.09.31.15.07.04.14.09.21.14.09.06.19.13.28.2.07.06.14.12.21.18.09.08.17.15.26.24.07.07.14.15.21.22.08.09.16.18.24.28.07.08.13.17.2.26.07.1.15.21.22.32.06.1.12.19.18.3.07.11.14.23.2.35.06.11.12.22.17.33.06.12.12.25.18.38.05.12.11.24.16.36.06.13.11.27.16.41.05.13.1.26.14.39.05.14.09.29.14.44.04.14.08.27.12.42.04.15.08.31.12.47.04.15.07.29.1.44.03.16.06.33.1.5.03.15.06.3.08.45.03.18.05.37.07.55.02.15.04.29.06.44.03.32.06.65.08.99.02.37.03.74.03,1.12,0,5.87-2.47,7.64-5.51,7.64s-5.51-1.77-5.51-7.64ZM50.9,47.86c.1-.11,2.42-2.66,6.08-2.66,2.47,0,4.62.95,6.39,2.83.52.54.49,1.4-.05,1.92-.26.25-.6.37-.93.37-.36,0-.72-.14-.99-.42-1.26-1.33-2.7-1.98-4.42-1.98-2.4,0-4.02,1.72-4.06,1.76-.5.55-1.35.6-1.91.1-.56-.5-.61-1.36-.11-1.92Z"/><path class="uuid-3123ade8-19f3-4da2-b2ed-fc91240ac5af" d="M50.11,41.47c1.27-2.21,2.82-4.93,4.85-8.17,4.86-7.77,10.34-10.76,13.43-11.9.64-.24,1.31-.36,1.99-.38,0,.09,0,.18,0,.27.06,1.71.72,3.71,1.76,5.72-.63.16-1.25.35-1.81.54-6.9,2.68-13.26,11.59-20.22,13.92Z"/><path class="uuid-3123ade8-19f3-4da2-b2ed-fc91240ac5af" d="M82.69,37.95c3,1.42,5.87,1.34,7.69-1.45.09.17.19.34.28.52.33.62.65,1.24.98,1.84h0c.63,1.16,1.26,2.29,1.89,3.39.01.02.03.05.04.07.3.52.6,1.04.9,1.54.02.04.04.07.06.11.29.5.59.98.88,1.47.02.03.04.07.06.1.3.49.59.97.89,1.44.01.02.03.04.04.06.94,1.49,1.88,2.91,2.81,4.27,0,0,0,0,0,0,1.16,1.68,2.3,3.25,3.44,4.72h0c.48.62.95,1.22,1.42,1.8,0,.01.02.02.03.03,1.42,1.75,2.81,3.35,4.17,4.81,1.54,1.65,3.04,3.13,4.48,4.44,0,0,0,0,0,0,2.72,2.48,5.23,4.38,7.43,5.82.23,2.07.37,4.04.4,5.89-17.7-6.96-30.45-22.73-37.88-40.87Z"/><path class="uuid-f7097665-45de-44eb-b5f0-8776ac3a3f8b" d="M91.5,84.54c7.92,7.2,14.64,14.87,23.18,19.54-2.12,4.1-4.75,7.9-7.82,11.29-2.99,3.31-6.39,6.23-10.13,8.7,0,0,0,0,0,0-.12-.17-.25-.34-.37-.51-.01-.02-.02-.03-.03-.05-.25-.36-.51-.72-.76-1.09-.02-.03-.04-.06-.07-.1-.22-.33-.44-.66-.66-.99-.04-.06-.08-.12-.12-.18-.24-.37-.48-.74-.72-1.12,0,0,0,0,0,0-.84-1.33-1.66-2.71-2.46-4.13,0,0,0,0,0,0-.04-.06-.07-.13-.1-.19-.33-.6-.67-1.2-.99-1.8-.07-.12-.13-.25-.2-.37-4.2-7.85-7.73-16.42-10.22-23.05-.2-.54-.4-1.07-.59-1.58-.06-.17-.14-.33-.22-.49-.03-.06-.06-.11-.09-.17-.05-.09-.11-.19-.17-.28-.04-.07-.09-.13-.14-.19-.05-.07-.1-.13-.16-.2-.06-.07-.12-.14-.18-.2-.04-.04-.08-.08-.13-.12-.4-.38-.87-.68-1.37-.89-.25-.1-.5-.17-.77-.23,5.29-2.97,12.05-4.84,15.28-1.61Z"/><path class="uuid-1b42245a-9011-4ad7-88b5-e40d977f1ab7" d="M8.91,68.08s.01,0,.02,0c-.19.09-.37.18-.55.27.18-.09.35-.19.53-.27Z"/><path class="uuid-f964702b-c2f4-41b8-9def-f4a090c000e5" d="M58.95,51.48c-.07-.05-.14-.1-.21-.14.07.04.14.09.21.14Z"/><path class="uuid-f964702b-c2f4-41b8-9def-f4a090c000e5" d="M57.87,50.98c-.06-.02-.12-.04-.18-.05.06.01.12.03.18.05Z"/><path class="uuid-f964702b-c2f4-41b8-9def-f4a090c000e5" d="M58.43,51.18c-.07-.03-.14-.07-.21-.1.07.03.14.06.21.1Z"/><path class="uuid-f964702b-c2f4-41b8-9def-f4a090c000e5" d="M59.44,51.86c-.07-.06-.14-.13-.21-.18.07.06.14.12.21.18Z"/><path class="uuid-f964702b-c2f4-41b8-9def-f4a090c000e5" d="M59.9,52.32c-.07-.08-.14-.15-.21-.22.07.07.14.15.21.22Z"/><path class="uuid-f964702b-c2f4-41b8-9def-f4a090c000e5" d="M56.63,50.93c-.06.01-.12.03-.19.05.06-.02.12-.03.19-.05Z"/><path class="uuid-f964702b-c2f4-41b8-9def-f4a090c000e5" d="M55.66,51.29c-.09.05-.18.1-.26.15.09-.06.17-.11.26-.15Z"/><path class="uuid-f964702b-c2f4-41b8-9def-f4a090c000e5" d="M55.23,51.56c-.52.38-1.01.9-1.44,1.54.46,2.45,2.06,4.69,3.67,5.89,1.52.91,3.34,1.38,5.17,1.41,0,0,0,0,0-.01.02.37.03.74.03,1.12,0,5.87-2.47,7.64-5.51,7.64s-5.51-1.77-5.51-7.64c0-4.57,1.5-8.45,3.59-9.96Z"/><path class="uuid-f964702b-c2f4-41b8-9def-f4a090c000e5" d="M56.13,51.07c-.08.03-.15.06-.23.1.08-.03.15-.07.23-.1Z"/><path class="uuid-f964702b-c2f4-41b8-9def-f4a090c000e5" d="M62.55,59.4c-.02-.15-.04-.29-.06-.44.02.15.04.29.06.44Z"/><path class="uuid-f964702b-c2f4-41b8-9def-f4a090c000e5" d="M61.76,55.7c-.05-.13-.09-.26-.14-.39.05.13.1.26.14.39Z"/><path class="uuid-f964702b-c2f4-41b8-9def-f4a090c000e5" d="M62.24,57.47c-.03-.15-.07-.29-.1-.44.04.15.07.29.1.44Z"/><path class="uuid-f964702b-c2f4-41b8-9def-f4a090c000e5" d="M62.02,56.56c-.04-.14-.08-.28-.12-.42.04.14.08.27.12.42Z"/><path class="uuid-f964702b-c2f4-41b8-9def-f4a090c000e5" d="M60.34,52.86c-.06-.09-.13-.18-.2-.26.07.08.13.17.2.26Z"/><path class="uuid-f964702b-c2f4-41b8-9def-f4a090c000e5" d="M62.42,58.41c-.02-.15-.05-.3-.08-.45.03.15.06.3.08.45Z"/><path class="uuid-f964702b-c2f4-41b8-9def-f4a090c000e5" d="M60.74,53.47c-.06-.1-.12-.2-.18-.3.06.1.12.19.18.3Z"/><path class="uuid-f964702b-c2f4-41b8-9def-f4a090c000e5" d="M61.46,54.9c-.05-.12-.1-.24-.16-.36.05.12.11.24.16.36Z"/><path class="uuid-f964702b-c2f4-41b8-9def-f4a090c000e5" d="M61.12,54.15c-.06-.11-.11-.22-.17-.33.06.11.12.22.17.33Z"/><path class="uuid-4004abb5-57b6-430f-adfd-484a39011ebf" d="M57.46,58.99c-1.61-1.21-3.22-3.45-3.67-5.89.43-.65.92-1.17,1.44-1.54.06-.04.11-.08.17-.12.09-.06.17-.11.26-.15.08-.04.16-.08.24-.12.08-.03.15-.07.23-.1.1-.04.21-.07.31-.09.06-.02.12-.03.19-.05.17-.03.34-.05.52-.05.18,0,.37.02.55.05.06.01.12.03.18.05.12.03.24.06.35.1.07.03.14.06.21.1.1.05.21.09.31.15.07.04.14.09.21.14.09.06.19.13.28.2.07.06.14.12.21.18.09.08.17.15.26.24.07.07.14.15.21.22.08.09.16.18.24.28.07.08.13.17.2.26.07.1.15.21.22.32.06.1.12.19.18.3.07.11.14.23.2.35.06.11.12.22.17.33.06.13.12.25.18.38.05.12.11.24.16.36.06.13.11.27.16.41.05.13.1.26.14.39.05.14.09.29.14.44.04.14.08.27.12.42.04.15.08.31.12.47.04.15.07.29.1.44.03.16.06.33.1.5.03.15.06.3.08.45.03.18.05.37.07.55.02.15.04.29.06.44.03.32.06.65.08.99,0,0,0,0,0,.01-1.83-.03-3.64-.5-5.17-1.41Z"/><path class="uuid-f964702b-c2f4-41b8-9def-f4a090c000e5" d="M56.98,45.2c2.47,0,4.62.95,6.39,2.83.52.54.49,1.4-.05,1.92-.26.25-.6.37-.93.37-.36,0-.72-.14-.99-.42-1.26-1.33-2.7-1.98-4.42-1.98-2.4,0-4.02,1.72-4.06,1.76-.5.55-1.35.6-1.91.1-.56-.5-.61-1.36-.11-1.92.1-.11,2.42-2.66,6.08-2.66Z"/><path class="uuid-f7097665-45de-44eb-b5f0-8776ac3a3f8b" d="M75.34,11.76c8.23-2.94,14.7,16.46,8.23,24.7-.4.48-.85.9-1.33,1.28-3.19-1.66-6.47-4.94-8.78-8.46-.59-7.43-2.34-15.64,1.87-17.52Z"/><path class="uuid-9fe410b1-c535-4b71-9bcd-87ee6a93d351" d="M90.37,36.51c.53-.81.97-1.85,1.3-3.15,3.65-14.35-15.7-31.81-18.6-30.34-2.52,1.28-2.88,9.08-2.76,15.51-1.25-.13-2.22.09-2.22.09,0,0-.26-2.19-3.16-3.55-.56-.26-1.07-.4-1.53-.44C58.4,5.9,49.87-.85,48.02.09c-2.9,1.47-2.93,11.56-2.69,18.27.03.75.17,1.55.41,2.39-1,.19-2.07.71-3.13,1.79-1.29,1.31-1.1,3.12-.47,4.77.83,2.18,2.43,4.06,2.43,4.06,0,0-2.56-.86-5.4-1.15-2.75-.28-5.77-.01-6.95,2.12-1.38,2.49-.64,6.54,2.67,8.14.79.38,1.73.63,2.82.68,4.51.2,1.37,6.27,5.1,7.45,3.72,1.18,4.9-3.72,12.15-15.31,4.86-7.77,10.34-10.76,13.43-11.9.64-.24,1.31-.36,1.99-.38,0,.09,0,.18,0,.27.09,2.36,1.29,5.24,3.08,7.98-.59-7.43-2.34-15.64,1.87-17.52,8.23-2.94,14.7,16.46,8.23,24.7-.4.48-.85.9-1.33,1.28,3.16,1.64,6.22,1.69,8.13-1.23ZM57.14,16.67c-1.02-.54-2.38-.9-4.15-.59-4.51.78-2.24,6.2-2.24,6.2,0,0-1.1-1.02-2.72-1.44-1.32-6.15-1.16-13.14.85-13.78,2.99-.95,6.07,4.2,8.26,9.61Z"/><path class="uuid-f964702b-c2f4-41b8-9def-f4a090c000e5" d="M7.62,86.68c-.88-4.46,3.04-9.67,6.66-6.95,3.62,2.72-6.11,9.8-6.66,6.95Z"/><path class="uuid-f964702b-c2f4-41b8-9def-f4a090c000e5" d="M70.31,18.53s-4.71-6.49-7.03-7.07.46,5.1.46,5.1c0,0-6.82-3.53-9.95-3.8-3.13-.27,1.61,3.3,1.61,3.3,0,0-10.52-2.74-13.39-1.19-2.88,1.55,5.55,3.2,5.55,3.2,0,0-7.34-1.38-10.05,1.06-2.71,2.44,4.37,3.66,4.37,3.66,0,0-8.58-.75-9.66,1.8-1.09,2.54,5.29,3.49,5.29,3.49,0,0-7.41-.41-10.28,4.48-2.88,4.88,4.41,3.28,4.41,3.28,0,0-3.17,2.28-3.8,5.13s6.02,1.88,6.02,1.88c0,0-.89,2.66.78,5.68,1.67,3.02,4.93-3.22,4.93-3.22,0,0-1.77,6.01,1.62,6.53,3.39.52,6.02-5.56,6.02-5.56l5.38-7.94c4.71-6.96,8.31-14.46,17.81-17.33h0l-.07-2.49Z"/></g></svg>