<?xml version="1.0" encoding="UTF-8"?><svg id="uuid-f379f99a-4507-448e-9ee3-be47687fe1be" xmlns="http://www.w3.org/2000/svg" viewBox="0 0 127.38 106.29"><defs><style>.uuid-7d6efee8-ec39-459d-a587-f49bea9cb8d6{fill:#f4c0ff;}.uuid-7d6efee8-ec39-459d-a587-f49bea9cb8d6,.uuid-5e339db0-87c2-4373-b6e0-1fa509920079,.uuid-0a2f0494-9c6b-4974-b70b-1571ee2650a7,.uuid-a437670a-2ac0-48ce-8cb1-de5e09a48eb1,.uuid-4fc8dc37-59d5-4909-b18c-7b5fdc8ea634,.uuid-baef1182-892c-42ec-9cdd-9c01db1446c2,.uuid-44d9f1fe-9af9-44ed-bf22-6c3b2c4f3362,.uuid-d1e091f3-ea0a-4e70-b30c-de6ba1f01df9{stroke-width:0px;}.uuid-5e339db0-87c2-4373-b6e0-1fa509920079{fill:#4b703c;}.uuid-0a2f0494-9c6b-4974-b70b-1571ee2650a7{fill:#5c9a4d;}.uuid-a437670a-2ac0-48ce-8cb1-de5e09a48eb1{fill:#2b0020;}.uuid-4fc8dc37-59d5-4909-b18c-7b5fdc8ea634{fill:#61aa54;}.uuid-baef1182-892c-42ec-9cdd-9c01db1446c2{fill:#fff;}.uuid-44d9f1fe-9af9-44ed-bf22-6c3b2c4f3362{fill:#edb348;}.uuid-d1e091f3-ea0a-4e70-b30c-de6ba1f01df9{fill:#eba737;}</style></defs><g id="uuid-597abf18-6b9b-4049-ac7d-4cefc3ab2491"><circle class="uuid-7d6efee8-ec39-459d-a587-f49bea9cb8d6" cx="53.15" cy="53.15" r="53.15"/><path class="uuid-5e339db0-87c2-4373-b6e0-1fa509920079" d="M35.44,22.3c-1.24-.92-2.64-1.57-4.12-1.57-5.07,0-4.88,6.87-4.88,6.87,0,0-4.62-7.24-8.91-6.87-4.29.36-5.74,5.25-5.74,5.25,0,0-.6-1.96-1.95-3.63-1.46,2.05-2.78,4.21-3.94,6.47,7.37.47,16.54,2,26.88,5.76,0,0-.13-7.51,2.67-12.27Z"/><path class="uuid-5e339db0-87c2-4373-b6e0-1fa509920079" d="M54.87,30.05s2.12-2.21,4.92-4.65c.39-3.32.34-6.61-1.32-6.86-3.44-.52-5.79,6.17-5.79,6.17,0,0-.72-7.06-4.34-7.24-1.1-.05-2.25.93-3.32,2.32,5.16,2.98,9.85,10.26,9.85,10.26Z"/><path class="uuid-4fc8dc37-59d5-4909-b18c-7b5fdc8ea634" d="M78.67,79.1c-.22.07-.44.14-.66.22.22-.07.44-.14.66-.22Z"/><path class="uuid-4fc8dc37-59d5-4909-b18c-7b5fdc8ea634" d="M80.39,78.52c-.51.18-1.04.36-1.58.54.54-.18,1.07-.36,1.58-.54Z"/><path class="uuid-4fc8dc37-59d5-4909-b18c-7b5fdc8ea634" d="M81.12,78.26c-.23.08-.47.17-.71.25.24-.08.48-.17.71-.25Z"/><path class="uuid-4fc8dc37-59d5-4909-b18c-7b5fdc8ea634" d="M76.92,79.66c-.2.06-.4.12-.6.18.2-.06.4-.12.6-.18Z"/><path class="uuid-4fc8dc37-59d5-4909-b18c-7b5fdc8ea634" d="M82.52,77.74c-.17.06-.34.13-.51.19.17-.06.34-.13.51-.19Z"/><path class="uuid-4fc8dc37-59d5-4909-b18c-7b5fdc8ea634" d="M76.05,79.92c-.2.06-.41.12-.62.18.21-.06.41-.12.62-.18Z"/><path class="uuid-4fc8dc37-59d5-4909-b18c-7b5fdc8ea634" d="M75.17,80.18c-.22.06-.45.13-.68.19.23-.06.45-.13.68-.19Z"/><path class="uuid-4fc8dc37-59d5-4909-b18c-7b5fdc8ea634" d="M77.79,79.38c-.2.06-.4.13-.61.19.21-.06.41-.13.61-.19Z"/><path class="uuid-4fc8dc37-59d5-4909-b18c-7b5fdc8ea634" d="M81.83,78c-.18.07-.37.14-.56.2.19-.07.37-.14.56-.2Z"/><path class="uuid-4fc8dc37-59d5-4909-b18c-7b5fdc8ea634" d="M87.59,75.63c-.1.04-.2.09-.3.14.1-.05.2-.09.3-.14Z"/><path class="uuid-4fc8dc37-59d5-4909-b18c-7b5fdc8ea634" d="M83.18,77.48c-.15.06-.31.12-.47.18.16-.06.32-.12.47-.18Z"/><path class="uuid-4fc8dc37-59d5-4909-b18c-7b5fdc8ea634" d="M86.71,76.03c-.12.05-.25.11-.38.17.13-.06.26-.11.38-.17Z"/><path class="uuid-4fc8dc37-59d5-4909-b18c-7b5fdc8ea634" d="M87.99,75.45c-.09.04-.19.09-.29.13.1-.05.2-.09.29-.13Z"/><path class="uuid-4fc8dc37-59d5-4909-b18c-7b5fdc8ea634" d="M88.37,75.27c-.09.04-.19.09-.3.14.1-.05.2-.09.3-.14Z"/><path class="uuid-4fc8dc37-59d5-4909-b18c-7b5fdc8ea634" d="M87.16,75.83c-.1.05-.21.09-.32.14.11-.05.21-.1.32-.14Z"/><path class="uuid-4fc8dc37-59d5-4909-b18c-7b5fdc8ea634" d="M84.5,76.96c-.17.07-.33.13-.51.2.17-.07.34-.14.51-.2Z"/><path class="uuid-4fc8dc37-59d5-4909-b18c-7b5fdc8ea634" d="M83.84,77.23c-.15.06-.31.12-.47.18.16-.06.32-.12.47-.18Z"/><path class="uuid-4fc8dc37-59d5-4909-b18c-7b5fdc8ea634" d="M86.23,76.24c-.16.07-.32.14-.48.21.17-.07.33-.14.48-.21Z"/><path class="uuid-4fc8dc37-59d5-4909-b18c-7b5fdc8ea634" d="M85.72,76.46c-.36.15-.74.31-1.14.47.4-.16.78-.32,1.14-.47Z"/><path class="uuid-4fc8dc37-59d5-4909-b18c-7b5fdc8ea634" d="M74.27,80.43c-.28.08-.57.16-.86.23.29-.08.57-.15.86-.23Z"/><path class="uuid-4fc8dc37-59d5-4909-b18c-7b5fdc8ea634" d="M43.08,82.87c.6.09,1.19.16,1.78.23-.57-.06-1.14-.14-1.71-.22-.02,0-.05,0-.07,0Z"/><path class="uuid-4fc8dc37-59d5-4909-b18c-7b5fdc8ea634" d="M46.8,83.29c9.42.79,18.33-.53,25.58-2.36-4.49,1.14-9.61,2.07-15.09,2.43-3.38.22-6.9.23-10.49-.07Z"/><path class="uuid-4fc8dc37-59d5-4909-b18c-7b5fdc8ea634" d="M88.43,75.25c.1-.05.2-.09.29-.14h0c-.09.04-.19.09-.29.14Z"/><path class="uuid-0a2f0494-9c6b-4974-b70b-1571ee2650a7" d="M125.03,57.73c-4.07-5.43-11.94-4.16-11.94-4.16-6.87-1.82-12.48-10.4-31.82-13.32-3.31-.5-5.17-4.22-5.3-7.57-.05-1.14-.13-2.38-.26-3.62-.37,0-.74-.15-1-.44-.04-.04-1.51-1.59-3.67-1.59-1.55,0-2.86.59-4,1.79-.27.28-.63.42-.99.42-.33,0-.67-.12-.93-.37-.54-.52-.57-1.37-.05-1.92,1.66-1.75,3.67-2.64,5.97-2.64,1.74,0,3.15.61,4.13,1.23-.78-3.67-2.24-6.67-4.95-6.44-2.87.24-7.13,3.43-10.43,6.3-2.8,2.44-4.92,4.65-4.92,4.65,0,0-4.69-7.27-9.85-10.26-1.91-1.1-3.88-1.62-5.71-.96-1.68.61-2.93,1.89-3.86,3.47-2.8,4.77-2.67,12.27-2.67,12.27-10.34-3.76-19.51-5.29-26.88-5.76-3.76,7.29-5.89,15.56-5.89,24.33,0,7.05,1.37,13.77,3.87,19.93,4.56-.4,9.05-1.01,13.16-2.28,4.83-1.49,9.14-3.86,12.42-7.82,1.27-1.53,2.39-3.29,3.32-5.34.2-.32.43-.61.68-.88-2.22,1.07-3.79,2.48-3.93,2.6-.55.51-1.41.47-1.92-.08-.51-.55-.47-1.41.08-1.91,3.24-2.98,11.01-7.26,17.24-2.15,1.76,1.45,3.22,2.96,4.63,4.42,4.21,4.36,7.85,8.13,17.93,8.31,18.56.33,23.1,5.1,23.55,5.65.46.55.41,1.35-.1,1.84,1.81,1.68,6.18,4.93,12.64,4.73,8.68-.27,9.77-7.06,9.77-7.06,0,0,1.99.68,8.23-1.49,6.24-2.17,7.51-8.46,3.44-13.88ZM44.23,26.35c3.42,0,5.6,2.39,5.69,2.49.5.56.45,1.42-.11,1.92-.56.5-1.41.45-1.91-.1-.03-.04-1.5-1.59-3.67-1.59-1.55,0-2.86.59-4,1.79-.27.28-.63.42-.99.42-.33,0-.67-.12-.93-.37-.54-.52-.57-1.37-.05-1.92,1.66-1.75,3.67-2.64,5.97-2.64ZM44.07,48.56c-2.81,0-5.09-1.63-5.09-7.05,0-.35.01-.69.03-1.03.02-.31.04-.61.07-.91.01-.14.04-.27.05-.41.02-.17.04-.34.07-.51.02-.14.05-.28.08-.42.03-.15.06-.31.09-.46.03-.14.06-.27.1-.4.04-.15.07-.29.11-.43.04-.13.08-.26.11-.38.04-.14.08-.27.13-.41.04-.12.09-.24.13-.36.05-.13.1-.26.15-.38.05-.11.1-.22.15-.33.05-.12.11-.24.17-.35.05-.1.1-.2.16-.3.06-.11.12-.22.19-.33.06-.09.11-.18.17-.27.07-.1.13-.2.2-.29.06-.08.12-.16.18-.24.07-.09.15-.18.22-.26.06-.07.12-.14.19-.2.08-.08.16-.15.24-.22.06-.06.13-.12.19-.17.08-.07.17-.12.26-.18.07-.04.13-.09.2-.13.09-.05.19-.1.28-.14.06-.03.13-.06.19-.09.11-.04.22-.07.32-.1.06-.01.11-.04.17-.05.17-.03.33-.05.5-.05s.32.02.48.05c.06.01.11.03.17.04.1.02.19.05.29.08.07.03.14.06.21.09.07.03.15.07.22.11.08.04.16.09.24.14.05.03.1.07.15.11.48.35.93.83,1.33,1.42h0c1.21,1.79,1.99,4.6,1.99,7.77,0,5.42-2.28,7.05-5.09,7.05ZM70.88,46.52c-2.81,0-5.09-1.63-5.09-7.05,0-.35.01-.69.03-1.03.02-.31.04-.61.07-.91.01-.14.04-.27.05-.41.02-.17.04-.34.07-.51.02-.14.05-.28.08-.42.03-.15.06-.31.09-.46.03-.14.06-.27.1-.4.04-.15.07-.29.11-.43.04-.13.07-.26.11-.38.04-.14.08-.28.13-.41.04-.12.09-.24.13-.36.05-.13.1-.26.15-.38.05-.11.1-.22.15-.33.05-.12.11-.24.17-.36.05-.1.1-.2.16-.3.06-.11.12-.22.19-.33.06-.09.11-.18.17-.27.07-.1.13-.2.2-.29.06-.08.12-.16.18-.24.07-.09.15-.18.22-.26.06-.07.12-.14.19-.2.08-.08.16-.15.24-.22.06-.06.13-.12.19-.17.08-.07.17-.12.26-.18.06-.04.13-.09.2-.13.09-.05.19-.1.28-.14.06-.03.13-.06.19-.09.11-.04.22-.07.33-.1.05-.01.11-.03.16-.05.17-.03.33-.05.5-.05s.32.02.48.05c.06.01.11.03.17.04.1.02.19.05.29.08.07.03.14.06.21.09.07.03.15.07.22.11.08.04.16.09.24.14.05.03.1.07.15.11.48.35.93.83,1.33,1.42,0,0,0,0,0,0h0c1.21,1.79,1.99,4.6,1.99,7.77,0,5.42-2.28,7.05-5.09,7.05ZM105.51,71.53c-7.81,2.94-7.91-4.57-3.16-5.09,4.75-.51,6.5,3.83,3.16,5.09ZM120.54,65.16c-9.4,3.18-3.58-6.44,0-5.77,3.58.67,3.59,4.56,0,5.77Z"/><path class="uuid-4fc8dc37-59d5-4909-b18c-7b5fdc8ea634" d="M73.35,80.68c-.32.09-.65.17-.97.25.33-.08.65-.17.97-.25Z"/><polygon class="uuid-4fc8dc37-59d5-4909-b18c-7b5fdc8ea634" points="20.36 94.98 20.36 94.98 43.08 82.87 30.5 89.58 20.36 94.98"/><path class="uuid-4fc8dc37-59d5-4909-b18c-7b5fdc8ea634" d="M50.88,64.77c.07.06.15.11.22.16-1.13-1-2.17-2.06-3.22-3.14.94,1.17,1.94,2.15,3,2.98Z"/><path class="uuid-4fc8dc37-59d5-4909-b18c-7b5fdc8ea634" d="M46.77,83.29c-.57-.05-1.15-.1-1.72-.17.58.06,1.15.12,1.72.17Z"/><path class="uuid-44d9f1fe-9af9-44ed-bf22-6c3b2c4f3362" d="M29.45,62.97c-3.28,3.96-7.59,6.34-12.42,7.82,2.1,7.78,7.08,14.01,13.47,18.78l12.58-6.7s.05,0,.07,0c-6.67-4.33-12.01-12.01-13.7-19.91Z"/><path class="uuid-d1e091f3-ea0a-4e70-b30c-de6ba1f01df9" d="M17.03,70.8c-4.11,1.27-8.61,1.88-13.16,2.28,3.51,8.67,9.24,16.21,16.49,21.9l10.14-5.4c-6.39-4.77-11.37-11-13.47-18.78Z"/><path class="uuid-d1e091f3-ea0a-4e70-b30c-de6ba1f01df9" d="M57.29,83.36c-3.2-5.8-5.71-12.24-6.41-18.59-1.06-.83-2.07-1.82-3-2.98-.09-.09-.17-.18-.26-.27-1.36-1.41-2.76-2.86-4.4-4.21-3.29-2.7-7.03-1.88-9.76-.56-.25.27-.48.56-.68.88-.93,2.04-2.05,3.81-3.32,5.34,1.69,7.9,7.04,15.58,13.7,19.91.57.08,1.14.15,1.71.22.06,0,.12.01.18.02.58.06,1.15.12,1.72.17,0,0,.02,0,.03,0,3.59.3,7.11.29,10.49.07Z"/><path class="uuid-44d9f1fe-9af9-44ed-bf22-6c3b2c4f3362" d="M67.8,70.66c-.12,0-.23,0-.35,0-8.33-.15-12.79-2.59-16.35-5.72-.07-.05-.15-.1-.22-.16.69,6.35,3.2,12.78,6.41,18.59,5.48-.36,10.61-1.3,15.09-2.43h0c-2.11-3.06-3.64-6.6-4.58-10.26Z"/><path class="uuid-d1e091f3-ea0a-4e70-b30c-de6ba1f01df9" d="M67.8,70.66c.94,3.66,2.47,7.21,4.58,10.26h0c.33-.08.65-.17.97-.25.02,0,.04-.01.06-.02.29-.08.57-.15.86-.23.07-.02.15-.04.22-.06.23-.06.45-.13.68-.19.09-.03.17-.05.26-.08.21-.06.41-.12.62-.18.09-.03.18-.05.27-.08.2-.06.4-.12.6-.18.09-.03.17-.05.26-.08.21-.06.41-.13.61-.19.07-.02.15-.05.22-.07.22-.07.44-.14.66-.22.05-.02.09-.03.14-.05.54-.18,1.07-.36,1.58-.54,0,0,0,0,.01,0,.24-.08.48-.17.71-.25.05-.02.11-.04.16-.06.19-.07.37-.14.56-.2.06-.02.12-.04.18-.07.17-.06.34-.13.51-.19.07-.02.13-.05.2-.07.16-.06.32-.12.47-.18.06-.02.12-.05.18-.07.16-.06.32-.12.47-.18.05-.02.1-.04.15-.06.17-.07.34-.14.51-.2.03-.01.06-.02.09-.04.4-.16.78-.32,1.14-.47,0,0,.02,0,.03-.01.17-.07.33-.14.48-.21.03-.01.06-.03.1-.04.13-.06.26-.11.38-.17.05-.02.09-.04.13-.06.11-.05.21-.1.32-.14.04-.02.09-.04.13-.06.1-.05.2-.09.3-.14.04-.02.07-.03.11-.05.1-.05.2-.09.29-.13.03-.01.06-.03.09-.04.1-.05.2-.09.3-.14.02,0,.03-.02.05-.02.1-.05.2-.09.29-.14-1.11-.89-6.19-4.14-20.91-4.45Z"/><path class="uuid-a437670a-2ac0-48ce-8cb1-de5e09a48eb1" d="M45.01,31.88c.07.03.14.06.21.09-.07-.03-.14-.06-.21-.09Z"/><path class="uuid-a437670a-2ac0-48ce-8cb1-de5e09a48eb1" d="M40.1,35.41c.05-.11.1-.22.15-.33-.05.11-.1.22-.15.33Z"/><path class="uuid-a437670a-2ac0-48ce-8cb1-de5e09a48eb1" d="M40.41,34.72c.05-.1.1-.2.16-.3-.05.1-.11.2-.16.3Z"/><path class="uuid-a437670a-2ac0-48ce-8cb1-de5e09a48eb1" d="M39.82,36.15c.04-.12.09-.24.13-.36-.04.12-.09.24-.13.36Z"/><path class="uuid-a437670a-2ac0-48ce-8cb1-de5e09a48eb1" d="M41.13,33.53c.06-.08.12-.16.18-.24-.06.08-.12.16-.18.24Z"/><path class="uuid-a437670a-2ac0-48ce-8cb1-de5e09a48eb1" d="M39.21,38.65c.02-.14.05-.28.08-.42-.03.14-.05.27-.08.42Z"/><path class="uuid-a437670a-2ac0-48ce-8cb1-de5e09a48eb1" d="M41.53,33.03c.06-.07.12-.14.19-.2-.06.06-.13.13-.19.2Z"/><path class="uuid-a437670a-2ac0-48ce-8cb1-de5e09a48eb1" d="M39.37,37.78c.03-.14.06-.27.1-.4-.03.13-.07.26-.1.4Z"/><path class="uuid-a437670a-2ac0-48ce-8cb1-de5e09a48eb1" d="M39.58,36.94c.04-.13.08-.26.11-.38-.04.13-.08.25-.11.38Z"/><path class="uuid-a437670a-2ac0-48ce-8cb1-de5e09a48eb1" d="M39.09,39.57c.01-.14.04-.27.05-.41-.02.14-.04.27-.05.41Z"/><path class="uuid-a437670a-2ac0-48ce-8cb1-de5e09a48eb1" d="M45.45,32.07c.08.04.16.09.24.14-.08-.05-.16-.1-.24-.14Z"/><path class="uuid-a437670a-2ac0-48ce-8cb1-de5e09a48eb1" d="M47.18,33.75c-.4-.6-.85-1.08-1.33-1.42.48.35.93.83,1.33,1.42Z"/><path class="uuid-a437670a-2ac0-48ce-8cb1-de5e09a48eb1" d="M49.16,41.51c0-3.16-.78-5.97-1.99-7.77-.42,2.26-1.9,4.32-3.39,5.44-1.41.84-3.08,1.27-4.77,1.3,0,0,0,0,0-.01-.02.34-.03.69-.03,1.03,0,5.42,2.28,7.05,5.09,7.05s5.09-1.63,5.09-7.05Z"/><path class="uuid-a437670a-2ac0-48ce-8cb1-de5e09a48eb1" d="M41.96,32.6c.06-.06.13-.12.19-.17-.07.05-.13.11-.19.17Z"/><path class="uuid-a437670a-2ac0-48ce-8cb1-de5e09a48eb1" d="M44.55,31.75c.06.01.11.03.17.04-.06-.01-.11-.03-.17-.04Z"/><path class="uuid-a437670a-2ac0-48ce-8cb1-de5e09a48eb1" d="M42.41,32.25c.07-.04.13-.09.2-.13-.07.04-.13.09-.2.13Z"/><path class="uuid-a437670a-2ac0-48ce-8cb1-de5e09a48eb1" d="M42.89,31.98c.06-.03.13-.06.19-.09-.06.02-.13.06-.19.09Z"/><path class="uuid-a437670a-2ac0-48ce-8cb1-de5e09a48eb1" d="M43.4,31.8c.06-.01.11-.04.17-.05-.06.01-.11.03-.17.05Z"/><path class="uuid-a437670a-2ac0-48ce-8cb1-de5e09a48eb1" d="M40.75,34.09c.06-.09.11-.18.17-.27-.06.09-.11.18-.17.27Z"/><path class="uuid-baef1182-892c-42ec-9cdd-9c01db1446c2" d="M43.78,39.19c1.49-1.12,2.97-3.18,3.39-5.44h0c-.4-.6-.85-1.08-1.33-1.42-.05-.04-.1-.07-.15-.11-.08-.05-.16-.1-.24-.14-.07-.04-.15-.08-.22-.11-.07-.03-.14-.06-.21-.09-.09-.03-.19-.06-.29-.08-.06-.01-.11-.03-.17-.04-.16-.03-.32-.05-.48-.05-.17,0-.34.02-.5.05-.06.01-.11.03-.17.05-.11.03-.22.05-.32.1-.06.02-.13.06-.19.09-.09.04-.19.09-.28.14-.07.04-.13.09-.2.13-.09.06-.17.12-.26.18-.07.05-.13.11-.19.17-.08.07-.16.14-.24.22-.06.06-.13.13-.19.2-.07.08-.15.17-.22.26-.06.08-.12.16-.18.24-.07.1-.14.19-.2.29-.06.09-.11.18-.17.27-.06.11-.13.21-.19.33-.05.1-.11.2-.16.3-.06.12-.11.23-.17.35-.05.11-.1.22-.15.33-.05.12-.1.25-.15.38-.04.12-.09.24-.13.36-.05.13-.09.27-.13.41-.04.13-.08.25-.11.38-.04.14-.07.29-.11.43-.03.13-.07.27-.1.4-.03.15-.06.31-.09.46-.03.14-.05.27-.08.42-.03.17-.05.34-.07.51-.02.14-.04.27-.05.41-.03.3-.06.6-.07.91,0,0,0,0,0,.01,1.69-.03,3.36-.46,4.77-1.3Z"/><path class="uuid-5e339db0-87c2-4373-b6e0-1fa509920079" d="M38.26,28.99c-.52.54-.49,1.4.05,1.92.26.25.6.37.93.37.36,0,.72-.14.99-.42,1.14-1.21,2.45-1.79,4-1.79,2.17,0,3.64,1.56,3.67,1.59.5.55,1.35.6,1.91.1.56-.5.61-1.36.11-1.92-.09-.1-2.27-2.49-5.69-2.49-2.31,0-4.32.89-5.97,2.64Z"/><path class="uuid-a437670a-2ac0-48ce-8cb1-de5e09a48eb1" d="M68.34,30.99c.06-.07.12-.14.19-.2-.06.06-.13.13-.19.2Z"/><path class="uuid-a437670a-2ac0-48ce-8cb1-de5e09a48eb1" d="M70.22,29.76c.05-.01.11-.03.16-.05-.06.01-.11.03-.16.05Z"/><path class="uuid-a437670a-2ac0-48ce-8cb1-de5e09a48eb1" d="M69.22,30.21c.06-.04.13-.09.2-.13-.07.04-.13.09-.2.13Z"/><path class="uuid-a437670a-2ac0-48ce-8cb1-de5e09a48eb1" d="M68.77,30.56c.06-.06.13-.12.19-.17-.07.05-.13.11-.19.17Z"/><path class="uuid-a437670a-2ac0-48ce-8cb1-de5e09a48eb1" d="M71.82,29.84c.07.03.14.06.21.09-.07-.03-.14-.06-.21-.09Z"/><path class="uuid-a437670a-2ac0-48ce-8cb1-de5e09a48eb1" d="M73.98,31.71c-.4-.6-.85-1.08-1.33-1.42.48.35.93.83,1.33,1.42Z"/><path class="uuid-a437670a-2ac0-48ce-8cb1-de5e09a48eb1" d="M70.59,37.15c-1.41.84-3.08,1.27-4.77,1.3,0,0,0,0,0-.01-.02.34-.03.69-.03,1.03,0,5.42,2.28,7.05,5.09,7.05s5.09-1.63,5.09-7.05c0-3.16-.78-5.97-1.99-7.77-.42,2.26-1.9,4.32-3.39,5.44Z"/><path class="uuid-a437670a-2ac0-48ce-8cb1-de5e09a48eb1" d="M72.26,30.03c.08.04.16.09.24.14-.08-.05-.16-.1-.24-.14Z"/><path class="uuid-a437670a-2ac0-48ce-8cb1-de5e09a48eb1" d="M71.36,29.71c.06.01.11.03.17.04-.06-.01-.11-.03-.17-.04Z"/><path class="uuid-a437670a-2ac0-48ce-8cb1-de5e09a48eb1" d="M69.7,29.94c.06-.03.13-.06.19-.09-.06.02-.13.06-.19.09Z"/><path class="uuid-a437670a-2ac0-48ce-8cb1-de5e09a48eb1" d="M66.18,35.74c.03-.14.06-.27.1-.4-.03.13-.07.27-.1.4Z"/><path class="uuid-a437670a-2ac0-48ce-8cb1-de5e09a48eb1" d="M67.94,31.49c.06-.08.12-.16.18-.24-.06.08-.12.16-.18.24Z"/><path class="uuid-a437670a-2ac0-48ce-8cb1-de5e09a48eb1" d="M66.02,36.61c.02-.14.05-.28.08-.42-.03.14-.05.28-.08.42Z"/><path class="uuid-a437670a-2ac0-48ce-8cb1-de5e09a48eb1" d="M65.9,37.53c.01-.14.04-.27.05-.41-.02.14-.04.27-.05.41Z"/><path class="uuid-a437670a-2ac0-48ce-8cb1-de5e09a48eb1" d="M66.38,34.9c.04-.13.07-.26.11-.38-.04.13-.08.25-.11.38Z"/><path class="uuid-a437670a-2ac0-48ce-8cb1-de5e09a48eb1" d="M67.22,32.68c.05-.1.1-.2.16-.3-.05.1-.11.2-.16.3Z"/><path class="uuid-a437670a-2ac0-48ce-8cb1-de5e09a48eb1" d="M67.56,32.05c.06-.09.11-.18.17-.27-.06.09-.11.18-.17.27Z"/><path class="uuid-a437670a-2ac0-48ce-8cb1-de5e09a48eb1" d="M66.63,34.11c.04-.12.09-.24.13-.36-.04.12-.09.24-.13.36Z"/><path class="uuid-a437670a-2ac0-48ce-8cb1-de5e09a48eb1" d="M66.91,33.37c.05-.11.1-.22.15-.33-.05.11-.1.22-.15.33Z"/><path class="uuid-baef1182-892c-42ec-9cdd-9c01db1446c2" d="M70.59,37.15c1.49-1.12,2.97-3.18,3.39-5.44h0s0,0,0,0c-.4-.6-.85-1.07-1.33-1.42-.05-.04-.1-.07-.15-.11-.08-.05-.16-.1-.24-.14-.07-.04-.15-.08-.22-.11-.07-.03-.14-.06-.21-.09-.09-.03-.19-.06-.29-.08-.06-.01-.11-.03-.17-.04-.16-.03-.32-.05-.48-.05-.17,0-.34.02-.5.05-.06.01-.11.03-.16.05-.11.03-.22.06-.33.1-.06.02-.13.06-.19.09-.1.04-.19.09-.28.14-.07.04-.13.09-.2.13-.09.06-.17.12-.26.18-.07.05-.13.11-.19.17-.08.07-.16.14-.24.22-.06.06-.13.13-.19.2-.07.08-.15.17-.22.26-.06.08-.12.16-.18.24-.07.1-.14.19-.2.29-.06.09-.11.18-.17.27-.06.11-.13.21-.19.33-.05.1-.11.2-.16.3-.06.12-.11.23-.17.36-.05.11-.1.22-.15.33-.05.12-.1.25-.15.38-.04.12-.09.24-.13.36-.05.13-.09.27-.13.41-.04.13-.08.25-.11.38-.04.14-.07.29-.11.43-.03.13-.07.27-.1.4-.03.15-.06.31-.09.46-.03.14-.05.28-.08.42-.03.17-.05.34-.07.51-.02.14-.04.27-.05.41-.03.3-.06.6-.07.91,0,0,0,0,0,.01,1.69-.03,3.36-.46,4.77-1.3Z"/><path class="uuid-5e339db0-87c2-4373-b6e0-1fa509920079" d="M65.07,26.95c-.52.54-.49,1.4.05,1.92.26.25.6.37.93.37.36,0,.72-.14.99-.42,1.14-1.21,2.45-1.79,4-1.79,2.16,0,3.63,1.55,3.67,1.59.27.3.63.44,1,.44.32,0,.65-.11.91-.34.56-.5.61-1.36.11-1.92-.04-.05-.6-.66-1.56-1.26-.99-.62-2.4-1.23-4.13-1.23-2.31,0-4.32.89-5.97,2.64Z"/><path class="uuid-a437670a-2ac0-48ce-8cb1-de5e09a48eb1" d="M102.34,66.45c-4.75.51-4.65,8.03,3.16,5.09,3.34-1.26,1.58-5.6-3.16-5.09Z"/><path class="uuid-a437670a-2ac0-48ce-8cb1-de5e09a48eb1" d="M120.54,59.39c-3.58-.67-9.4,8.96,0,5.77,3.59-1.22,3.58-5.11,0-5.77Z"/><path class="uuid-5e339db0-87c2-4373-b6e0-1fa509920079" d="M91.05,73.59c-.46-.54-4.99-5.32-23.55-5.65-10.08-.18-13.72-3.94-17.93-8.31-1.41-1.46-2.87-2.97-4.63-4.42-6.23-5.11-14.01-.83-17.24,2.15-.55.51-.59,1.36-.08,1.91.51.55,1.36.59,1.92.08.14-.13,1.71-1.53,3.93-2.6,2.74-1.32,6.47-2.15,9.76.56,1.64,1.35,3.05,2.8,4.4,4.21.09.09.17.18.26.27,1.05,1.08,2.09,2.15,3.22,3.14,3.56,3.13,8.02,5.58,16.35,5.72.12,0,.23,0,.35,0,14.72.31,19.8,3.56,20.91,4.45h0c.17.14.25.22.26.22.27.32.65.48,1.04.48.31,0,.62-.1.87-.32.03-.02.05-.05.07-.07.5-.49.56-1.29.1-1.84Z"/></g></svg>