<?xml version="1.0" encoding="UTF-8"?><svg xmlns="http://www.w3.org/2000/svg" viewBox="0 0 131.03 135.62"><defs><style>.uuid-41bb84f6-bfaa-4eae-a6dd-d0cde122ab80{fill:none;}.uuid-41bb84f6-bfaa-4eae-a6dd-d0cde122ab80,.uuid-316ec1fe-7d02-4870-8fa9-8cfae7acbc21,.uuid-656798f9-13ea-4772-96d5-4961e928747e,.uuid-2857cd39-65b2-44b7-98dd-dc9d68fb9358,.uuid-48655c0b-d328-4d65-87ba-882d4a92fd6d,.uuid-3243a23d-5b19-4737-b471-bc9f9c70f60a,.uuid-26230bc9-9675-43cb-8462-c7bf9263a82a,.uuid-ff3a840a-3ad5-4aed-8864-ec580e326d28,.uuid-abca1902-659a-45ee-ac4c-692c682f97df{stroke-width:0px;}.uuid-847c742f-7bb3-4215-9e63-812231dc491b{isolation:isolate;}.uuid-316ec1fe-7d02-4870-8fa9-8cfae7acbc21{mix-blend-mode:overlay;opacity:.15;}.uuid-656798f9-13ea-4772-96d5-4961e928747e{fill:#2b0020;}.uuid-2857cd39-65b2-44b7-98dd-dc9d68fb9358{fill:#a33418;}.uuid-48655c0b-d328-4d65-87ba-882d4a92fd6d{fill:#e39635;}.uuid-3243a23d-5b19-4737-b471-bc9f9c70f60a{fill:#aa4529;}.uuid-26230bc9-9675-43cb-8462-c7bf9263a82a{fill:#8f2a18;}.uuid-ff3a840a-3ad5-4aed-8864-ec580e326d28{fill:#fff;}.uuid-abca1902-659a-45ee-ac4c-692c682f97df{fill:#edb348;}</style></defs><g class="uuid-847c742f-7bb3-4215-9e63-812231dc491b"><g id="uuid-d0fd0092-0c45-459b-8237-64db1624ae36"><g id="uuid-09fa49cd-5125-4845-b4fd-6361d9752109"><circle class="uuid-656798f9-13ea-4772-96d5-4961e928747e" cx="58.69" cy="82.48" r="53.15" transform="translate(-34.27 122.55) rotate(-77.89)"/><path class="uuid-41bb84f6-bfaa-4eae-a6dd-d0cde122ab80" d="M68.25,31.37c.13.08.27.16.4.24-.03-.1-.06-.2-.09-.31-.1.02-.21.05-.31.07Z"/><path class="uuid-41bb84f6-bfaa-4eae-a6dd-d0cde122ab80" d="M62.89,26.6s1.85-.42,3.92-.44c-.2-.54-.4-1.09-.61-1.64-1.45,1.13-3.31,2.08-3.31,2.08Z"/><path class="uuid-26230bc9-9675-43cb-8462-c7bf9263a82a" d="M77.4,41.42c.35.61.7,1.21,1.03,1.82,1.64.55,2.63,1.63,2.68,1.69.48.54.43,1.36-.1,1.84-.18.16-.39.26-.61.3.22.44.44.88.65,1.31,2.24,1.12,4.81,1.86,7.7,1.86,6.2.01,3.51-5.33-1.85-9.42-4.33-.3-7.33,0-9.5.59Z"/><path class="uuid-abca1902-659a-45ee-ac4c-692c682f97df" d="M66.89,21.25c1.85.75.8,2.11-.69,3.27.21.55.41,1.1.61,1.64,2.18-.01,4.59.43,5.3,2.3.55,1.43-1.21,2.3-3.55,2.84.03.1.06.21.09.31,3.74,2.29,6.51,5.97,8.75,9.81,2.17-.59,5.17-.88,9.5-.59.04,0,.07,0,.11,0,14.16,1,16.38.4,18.34-13.36,3.59-25.12-7.38-29.11-11.16-24.32-3.79,4.78,3.39,21.93,0,23.09-3.39,1.16-4.39-6.95-5.58-15.92-1.2-8.97-9.17-13.25-11.56-8.07-2.39,5.18,5.58,23.22,4.39,25.81s-6.18,4.59-6.98-5.78-8.37-18.74-11.56-15.35c-1.94,2.06-.11,8.12,2.06,14.16.74-.1,1.4-.07,1.95.14Z"/><path class="uuid-3243a23d-5b19-4737-b471-bc9f9c70f60a" d="M34.91,43.55c-4.43.69-12.7,2.98-16.54,10.52-3.97,7.79,9.52,4.64,16.13-2.28.68-2.39,1.45-4.6,2.32-6.62-.61-.43-1.18-1.02-1.91-1.62Z"/><path class="uuid-3243a23d-5b19-4737-b471-bc9f9c70f60a" d="M127.12,62.51c.25.31.48.63.7.96-.22-.33-.45-.65-.7-.96Z"/><path class="uuid-3243a23d-5b19-4737-b471-bc9f9c70f60a" d="M109.66,103.16c-.16,0-.31,0-.48,0,.16,0,.32,0,.48,0Z"/><path class="uuid-3243a23d-5b19-4737-b471-bc9f9c70f60a" d="M126.17,61.43c.28.29.55.59.8.91-.26-.31-.52-.62-.8-.91Z"/><path class="uuid-3243a23d-5b19-4737-b471-bc9f9c70f60a" d="M125.21,60.52c.3.26.59.54.87.82-.28-.28-.57-.56-.87-.82Z"/><path class="uuid-3243a23d-5b19-4737-b471-bc9f9c70f60a" d="M111.33,103.08c-.21.02-.44.04-.67.05.23-.01.45-.03.67-.05Z"/><path class="uuid-3243a23d-5b19-4737-b471-bc9f9c70f60a" d="M112.77,54.93c.51.11,1.01.23,1.5.36-.5-.13-1-.25-1.5-.36Z"/><path class="uuid-3243a23d-5b19-4737-b471-bc9f9c70f60a" d="M110.43,103.14c-.16,0-.32.01-.49.02.17,0,.33-.01.49-.02Z"/><path class="uuid-3243a23d-5b19-4737-b471-bc9f9c70f60a" d="M127.92,63.65c.22.35.43.71.62,1.08-.19-.37-.4-.73-.62-1.08Z"/><path class="uuid-3243a23d-5b19-4737-b471-bc9f9c70f60a" d="M118.92,56.8c.43.17.85.35,1.26.54-.41-.19-.83-.37-1.26-.54Z"/><path class="uuid-3243a23d-5b19-4737-b471-bc9f9c70f60a" d="M120.35,57.42c.42.2.83.4,1.23.62-.4-.22-.81-.42-1.23-.62Z"/><path class="uuid-3243a23d-5b19-4737-b471-bc9f9c70f60a" d="M115.95,55.76c.96.29,1.9.62,2.8.98-.9-.36-1.84-.69-2.8-.98Z"/><path class="uuid-3243a23d-5b19-4737-b471-bc9f9c70f60a" d="M122.9,58.81c.36.23.71.46,1.05.71-.34-.24-.69-.48-1.05-.71Z"/><path class="uuid-3243a23d-5b19-4737-b471-bc9f9c70f60a" d="M121.6,58.05c.4.21.78.44,1.15.67-.37-.23-.76-.46-1.15-.67Z"/><path class="uuid-3243a23d-5b19-4737-b471-bc9f9c70f60a" d="M124.13,59.65c.34.25.66.51.97.77-.31-.27-.64-.52-.97-.77Z"/><path class="uuid-3243a23d-5b19-4737-b471-bc9f9c70f60a" d="M87.59,69.16c3.54-9.14,11.42-13.45,20.33-15.09.54.07,1.08.15,1.61.24-12.2-1.97-25.33-.28-25.33-.28-1.02-1.42-2.03-3.41-3.14-5.64-.21-.43-.43-.87-.65-1.31-.44.09-.91-.04-1.23-.4-.03-.03-1.09-1.14-2.63-1.14-1.12,0-2.06.42-2.89,1.3-.26.27-.6.41-.95.41-.32,0-.64-.12-.9-.36-.52-.5-.55-1.32-.05-1.84,1.31-1.38,2.96-2.11,4.78-2.11.7,0,1.33.12,1.88.31-.33-.61-.67-1.22-1.03-1.82-2.24-3.83-5.01-7.51-8.75-9.81-.13-.08-.27-.16-.4-.24-3.6.76-8.34.78-8.34.78h-12.2c-1.49.81-2.85,1.8-4.09,2.94,2.58.14,5.32.47,6.52,3.14,2.76,6.12-3.17,10.56-12.33,7.45-.36-.12-.67-.3-.98-.52-.87,2.03-1.64,4.23-2.32,6.62-.32,1.13-.63,2.3-.91,3.51-3.83,16.3-19.88,23.2-27.9,23.5-.08,1.22-.14,2.44-.14,3.68,0,13.92,5.36,26.59,14.12,36.07.05-5.02,6.89-14.42,13.57-21.28,0,0,0,0,.01-.01.31-.32.62-.63.93-.94,0,0,.01-.01.02-.02.61-.61,1.22-1.19,1.82-1.75.02-.01.03-.03.05-.04.29-.27.58-.53.87-.79.02-.02.04-.03.06-.05.57-.51,1.13-.98,1.67-1.42.03-.02.06-.05.09-.07.26-.21.51-.41.77-.6.03-.02.06-.05.1-.07.5-.38.99-.73,1.45-1.03.04-.02.07-.05.11-.07.22-.14.43-.27.64-.4.04-.02.07-.04.11-.06.42-.24.82-.45,1.19-.6.03-.01.07-.03.1-.04.17-.07.34-.13.5-.18.03,0,.06-.02.09-.03.16-.05.32-.08.47-.1,6.26-.87,11.74,1.83,11.74,1.83,0,0,23.3,7.48,40.64,10.8-.39-.08-.79-.15-1.19-.23-9.14-6.55-12.34-21.1-7.89-32.22ZM52.94,47.03c-.52-.49-.55-1.32-.05-1.84,1.4-1.47,3.16-2.25,5.1-2.25,2.93,0,4.79,2.05,4.87,2.13.48.54.43,1.36-.1,1.84-.53.48-1.35.43-1.84-.1-.04-.04-1.21-1.27-2.93-1.27-1.24,0-2.29.47-3.21,1.44-.26.27-.6.41-.95.41-.32,0-.64-.12-.9-.36ZM58.2,62.5c-2.34,0-4.24-1.36-4.24-5.87,0-.29,0-.58.02-.86.01-.26.03-.51.06-.76.01-.11.03-.22.04-.34.02-.14.03-.28.06-.42.02-.12.04-.23.06-.35.02-.13.05-.26.07-.38.02-.11.05-.23.08-.34.03-.12.06-.24.09-.36.03-.11.06-.21.1-.32.03-.11.07-.23.11-.34.03-.1.07-.2.11-.3.04-.11.08-.21.12-.32.04-.1.08-.19.12-.28.05-.1.09-.2.14-.3.04-.09.09-.17.13-.25.05-.09.1-.18.15-.27.05-.08.09-.15.14-.23.06-.08.11-.17.17-.24.05-.07.1-.14.15-.2.06-.08.12-.15.18-.22.05-.06.1-.12.16-.17.07-.07.13-.13.2-.19.05-.05.11-.1.16-.14.07-.06.14-.1.22-.15.05-.04.11-.08.16-.11.08-.05.16-.08.24-.12.05-.02.1-.05.16-.07.09-.03.18-.06.27-.08.05-.01.09-.03.14-.04.14-.03.28-.04.42-.04.13,0,.27.01.4.04.05,0,.1.02.14.04.08.02.16.04.24.07.06.02.12.05.18.07.06.03.12.06.18.09.07.04.14.08.2.12.04.03.09.06.13.09.4.29.77.69,1.11,1.18h0c1,1.5,1.65,3.83,1.65,6.47,0,4.51-1.9,5.87-4.24,5.87ZM77.17,61.08c-2.16,0-3.91-1.25-3.91-5.42,0-.27,0-.54.02-.8.01-.24.03-.47.06-.7.01-.1.03-.2.04-.31.02-.13.03-.27.05-.39.02-.11.04-.21.06-.32.02-.12.04-.24.07-.35.02-.11.05-.21.07-.31.03-.11.05-.22.08-.33.03-.1.06-.2.09-.3.03-.11.06-.21.1-.31.03-.09.07-.19.1-.28.04-.1.07-.2.11-.29.04-.09.07-.17.11-.26.04-.09.08-.18.13-.27.04-.08.08-.16.12-.23.05-.09.09-.17.14-.25.04-.07.09-.14.13-.21.05-.08.1-.15.16-.23.05-.06.09-.13.14-.18.06-.07.11-.13.17-.2.05-.05.1-.11.15-.16.06-.06.12-.12.18-.17.05-.04.1-.09.15-.13.06-.05.13-.1.2-.14.05-.03.1-.07.15-.1.07-.04.14-.07.22-.11.05-.02.1-.05.15-.07.08-.03.17-.05.25-.07.04-.01.08-.03.13-.03.13-.02.26-.04.39-.04s.25.01.37.04c.04,0,.09.02.13.03.07.02.15.04.22.06.06.02.11.04.16.07.06.03.11.05.17.08.06.03.13.07.19.11.04.03.08.05.12.08.37.27.71.63,1.02,1.09,0,0,0,0,0,0h0c.93,1.38,1.53,3.54,1.53,5.97,0,4.16-1.75,5.42-3.91,5.42Z"/><path class="uuid-3243a23d-5b19-4737-b471-bc9f9c70f60a" d="M97.85,101.83c-.38-.07-.77-.14-1.15-.22.39.07.77.15,1.15.22Z"/><path class="uuid-3243a23d-5b19-4737-b471-bc9f9c70f60a" d="M107.2,103.09c-.19-.01-.38-.03-.57-.04.19.01.38.03.57.04Z"/><path class="uuid-3243a23d-5b19-4737-b471-bc9f9c70f60a" d="M106.32,103.03c-.21-.02-.42-.04-.64-.06.22.02.43.04.64.06Z"/><path class="uuid-3243a23d-5b19-4737-b471-bc9f9c70f60a" d="M105.4,102.94c-.25-.02-.49-.05-.75-.08.25.03.5.05.75.08Z"/><path class="uuid-3243a23d-5b19-4737-b471-bc9f9c70f60a" d="M108.06,103.13c-.17,0-.35-.02-.53-.03.18,0,.35.02.53.03Z"/><path class="uuid-3243a23d-5b19-4737-b471-bc9f9c70f60a" d="M108.88,103.16c-.16,0-.33,0-.49-.01.17,0,.33,0,.49.01Z"/><path class="uuid-3243a23d-5b19-4737-b471-bc9f9c70f60a" d="M114.41,55.33c.49.13.97.26,1.45.41-.48-.14-.96-.28-1.45-.41Z"/><path class="uuid-3243a23d-5b19-4737-b471-bc9f9c70f60a" d="M109.57,54.32c1.07.17,2.14.38,3.19.61-1.05-.23-2.12-.44-3.19-.61Z"/><path class="uuid-3243a23d-5b19-4737-b471-bc9f9c70f60a" d="M45.32,126.38c-3.13-.52-1.57-9.91-1.57-9.91,0,0-1.74,9.91-5.92,8.97-3.5-.79-1.14-6.42-.28-8.24-1.05,2.08-4.89,9.18-7.72,8.13-3.3-1.22,1.57-8.17,1.57-8.17,0,0-3.91,5.09-7.52,5.48,6.4,5.55,14.13,9.59,22.66,11.59.03-.04.06-.07.09-.1,2.24-2.81,3.98-5.89,5.35-9.09-1.75-1.84-1.96-7.18-1.96-7.18,0,0-1.57,9.04-4.7,8.52Z"/><path class="uuid-3243a23d-5b19-4737-b471-bc9f9c70f60a" d="M103.46,102.72c-1.4-.18-2.88-.41-4.42-.67,1.54.27,3.02.5,4.42.67Z"/><path class="uuid-3243a23d-5b19-4737-b471-bc9f9c70f60a" d="M99.04,102.05c-.38-.07-.77-.13-1.15-.21.39.07.77.14,1.15.21Z"/><path class="uuid-3243a23d-5b19-4737-b471-bc9f9c70f60a" d="M104.44,102.84c-.32-.04-.64-.08-.97-.12.33.04.65.08.97.12Z"/><path class="uuid-48655c0b-d328-4d65-87ba-882d4a92fd6d" d="M110.43,103.14c.08,0,.15,0,.23-.01.23-.01.45-.03.67-.05,13.04-1.3,25.05-22.96,17.22-38.35-.19-.37-.4-.73-.62-1.08-.04-.06-.07-.12-.11-.17-.22-.33-.45-.65-.7-.96-.05-.06-.1-.12-.14-.18-.26-.31-.52-.62-.8-.91-.03-.03-.06-.06-.09-.08-.28-.28-.57-.56-.87-.82-.04-.03-.07-.07-.11-.1-.31-.27-.64-.52-.97-.77-.06-.05-.12-.09-.18-.13-.34-.24-.69-.48-1.05-.71-.05-.03-.1-.06-.15-.09-.37-.23-.76-.46-1.15-.67,0,0-.01,0-.02,0-.4-.22-.81-.42-1.23-.62-.06-.03-.11-.05-.17-.08-.41-.19-.83-.37-1.26-.54-.06-.02-.11-.04-.17-.07-.9-.36-1.84-.69-2.8-.98-.03,0-.05-.02-.08-.03-.48-.14-.96-.28-1.45-.41-.04-.01-.09-.02-.13-.03-.5-.13-1-.25-1.5-.36,0,0,0,0,0,0-1.05-.23-2.12-.44-3.19-.61-.02,0-.03,0-.05,0-.54-.09-1.07-.17-1.61-.24-8.91,1.64-16.79,5.95-20.33,15.09-4.45,11.12-1.26,25.66,7.89,32.22.4.08.8.16,1.19.23.01,0,.03,0,.04,0,.39.07.77.15,1.15.22.01,0,.02,0,.03,0,.39.07.77.14,1.15.21,0,0,0,0,0,0,1.54.27,3.02.5,4.42.67,0,0,.01,0,.02,0,.33.04.65.08.97.12.07,0,.14.02.21.02.25.03.5.05.75.08.09,0,.19.02.28.03.22.02.43.04.64.06.11,0,.21.02.31.02.19.01.38.03.57.04.11,0,.22.01.33.02.18,0,.35.02.53.03.11,0,.22,0,.32.01.17,0,.33,0,.49.01.1,0,.21,0,.31,0,.16,0,.32,0,.48,0,.09,0,.19,0,.28,0,.17,0,.33-.01.49-.02ZM120.57,68.73c4.51.41,1.57,16.19-.85,17.43-7.14,3.64-3.65-17.84.85-17.43ZM106.42,86.05c-4.77,6.43-11.21-14.35-6.99-15.99,4.22-1.64,8.61,13.8,6.99,15.99Z"/><path class="uuid-48655c0b-d328-4d65-87ba-882d4a92fd6d" d="M57.55,96.01c.05.34.1.7.14,1.06-.04-.36-.09-.71-.14-1.06Z"/><path class="uuid-48655c0b-d328-4d65-87ba-882d4a92fd6d" d="M57.7,97.12c.04.37.09.76.12,1.15-.04-.39-.08-.77-.12-1.15Z"/><path class="uuid-48655c0b-d328-4d65-87ba-882d4a92fd6d" d="M56.93,93.04c.08.26.15.53.21.82-.07-.28-.14-.56-.21-.82Z"/><path class="uuid-48655c0b-d328-4d65-87ba-882d4a92fd6d" d="M56.02,90.81c.11.19.22.39.32.6-.1-.22-.21-.42-.32-.6Z"/><path class="uuid-48655c0b-d328-4d65-87ba-882d4a92fd6d" d="M56.36,91.46c.1.21.19.44.28.67-.09-.24-.18-.46-.28-.67Z"/><path class="uuid-48655c0b-d328-4d65-87ba-882d4a92fd6d" d="M56.66,92.21c.09.24.17.49.24.75-.08-.26-.16-.51-.24-.75Z"/><path class="uuid-48655c0b-d328-4d65-87ba-882d4a92fd6d" d="M57.17,93.96c.07.29.13.59.19.89-.06-.31-.12-.61-.19-.89Z"/><path class="uuid-48655c0b-d328-4d65-87ba-882d4a92fd6d" d="M57.38,94.95c.06.31.11.64.17.97-.05-.33-.11-.66-.17-.97Z"/><path class="uuid-48655c0b-d328-4d65-87ba-882d4a92fd6d" d="M36.07,94.5c.29-.27.58-.53.87-.79-.29.25-.58.52-.87.79Z"/><path class="uuid-48655c0b-d328-4d65-87ba-882d4a92fd6d" d="M38.75,92.17c.26-.21.51-.41.77-.6-.25.19-.51.39-.77.6Z"/><path class="uuid-48655c0b-d328-4d65-87ba-882d4a92fd6d" d="M36.99,93.66c.57-.51,1.13-.98,1.67-1.42-.54.44-1.1.91-1.67,1.42Z"/><path class="uuid-48655c0b-d328-4d65-87ba-882d4a92fd6d" d="M33.25,97.25c.31-.32.62-.63.93-.94-.31.31-.62.62-.93.94Z"/><path class="uuid-48655c0b-d328-4d65-87ba-882d4a92fd6d" d="M34.2,96.29c.61-.61,1.22-1.19,1.82-1.75-.6.55-1.21,1.14-1.82,1.75Z"/><path class="uuid-48655c0b-d328-4d65-87ba-882d4a92fd6d" d="M39.61,91.5c.5-.38.99-.73,1.45-1.03-.46.3-.95.65-1.45,1.03Z"/><path class="uuid-48655c0b-d328-4d65-87ba-882d4a92fd6d" d="M43.22,89.3c.17-.07.34-.13.5-.18-.16.05-.33.11-.5.18Z"/><path class="uuid-48655c0b-d328-4d65-87ba-882d4a92fd6d" d="M43.81,89.09c.16-.05.32-.08.47-.1-.15.02-.31.06-.47.1Z"/><path class="uuid-48655c0b-d328-4d65-87ba-882d4a92fd6d" d="M41.93,89.94c.42-.24.82-.45,1.19-.6-.37.16-.77.36-1.19.6Z"/><path class="uuid-48655c0b-d328-4d65-87ba-882d4a92fd6d" d="M41.18,90.4c.22-.14.43-.27.64-.4-.21.12-.42.25-.64.4Z"/><path class="uuid-48655c0b-d328-4d65-87ba-882d4a92fd6d" d="M57.82,98.26c-.04-.39-.08-.77-.12-1.15,0-.02,0-.04,0-.05-.04-.36-.09-.71-.14-1.06,0-.03,0-.05-.01-.08-.05-.33-.11-.66-.17-.97,0-.03-.01-.06-.02-.1-.06-.31-.12-.61-.19-.89,0-.03-.02-.07-.02-.1-.07-.28-.14-.56-.21-.82,0-.03-.02-.06-.03-.09-.08-.26-.16-.51-.24-.75,0-.02-.02-.05-.03-.07-.09-.24-.18-.46-.28-.67,0-.01-.01-.03-.02-.04-.1-.22-.21-.42-.32-.6,0,0-5.48-2.7-11.74-1.83-.15.02-.31.06-.47.1-.03,0-.06.02-.09.03-.16.05-.33.11-.5.18-.03.01-.07.03-.1.04-.37.16-.77.36-1.19.6-.04.02-.07.04-.11.06-.21.12-.42.25-.64.4-.04.02-.07.05-.11.07-.46.3-.95.65-1.45,1.03-.03.02-.06.05-.1.07-.25.19-.51.39-.77.6-.03.02-.06.05-.09.07-.54.44-1.1.91-1.67,1.42-.02.02-.04.03-.06.05-.29.25-.58.52-.87.79-.02.01-.03.03-.05.04-.6.55-1.21,1.14-1.82,1.75,0,0-.01.01-.02.02-.31.31-.62.62-.93.94,0,0,0,0-.01.01-.28.29-.56.58-.83.87-.07.08-.14.15-.21.23-.28.29-.55.59-.82.89,0,0,0,0,0,0h0c-6.03,6.6-11.64,14.74-11.69,19.29,1.33,1.44,2.74,2.81,4.23,4.1,3.61-.39,7.52-5.48,7.52-5.48,0,0-4.87,6.96-1.57,8.17,2.83,1.04,6.67-6.06,7.72-8.13-.86,1.81-3.22,7.45.28,8.24,4.18.94,5.92-8.97,5.92-8.97,0,0-1.57,9.39,1.57,9.91s4.7-8.52,4.7-8.52c0,0,.21,5.33,1.96,7.18.53.56,1.2.8,2.04.48,2.79-1.06,4.76-16.9,3.81-27.25Z"/><path class="uuid-316ec1fe-7d02-4870-8fa9-8cfae7acbc21" d="M44.28,88.99c-.15.02-.31.06-.47.1-.03,0-.06.02-.09.03-.16.05-.33.11-.5.18-.03.01-.07.03-.1.04-.37.16-.77.36-1.19.6-.04.02-.07.04-.11.06-.21.12-.42.25-.64.4-.04.02-.07.05-.11.07-.46.3-.95.65-1.45,1.03-.03.02-.06.05-.1.07-.25.19-.51.39-.77.6-.03.02-.06.05-.09.07-.54.44-1.1.91-1.67,1.42-.02.02-.04.03-.06.05-.29.25-.58.52-.87.79-.02.01-.03.03-.05.04-.6.55-1.21,1.14-1.82,1.75,0,0-.01.01-.02.02-.31.31-.62.62-.93.94,0,0,0,0-.01.01-.63.64-1.26,1.31-1.88,1.99,8.49-3.13,17.76-3.42,26.47-.99h0c-.04-.39-.08-.77-.12-1.15,0-.02,0-.04,0-.05-.04-.36-.09-.71-.14-1.06,0-.03,0-.05-.01-.08-.05-.33-.11-.66-.17-.97,0-.03-.01-.06-.02-.1-.06-.31-.12-.61-.19-.89,0-.03-.02-.07-.02-.1-.07-.28-.14-.56-.21-.82,0-.03-.02-.06-.03-.09-.08-.26-.16-.51-.24-.75,0-.02-.02-.05-.03-.07-.09-.24-.18-.46-.28-.67,0-.01-.01-.03-.02-.04-.1-.22-.21-.42-.32-.6,0,0-5.48-2.7-11.74-1.83Z"/><path class="uuid-656798f9-13ea-4772-96d5-4961e928747e" d="M99.43,70.07c-4.22,1.64,2.22,22.42,6.99,15.99,1.62-2.19-2.77-17.63-6.99-15.99Z"/><path class="uuid-656798f9-13ea-4772-96d5-4961e928747e" d="M119.72,86.16c2.43-1.24,5.36-17.02.85-17.43s-7.99,21.06-.85,17.43Z"/><path class="uuid-abca1902-659a-45ee-ac4c-692c682f97df" d="M37.8,45.69c9.16,3.1,15.09-1.33,12.33-7.45-1.2-2.67-3.95-3.01-6.52-3.14-3.33-.18-6.38-.01-5.48-4.12,1.6-7.27,7.81-21.78,4.44-25s-10.48,5.56-10.72,15.95c-.24,10.4-5.32,8.67-6.66,6.15-1.33-2.52,5.66-20.97,2.99-26.01-2.67-5.05-10.4-.34-11.11,8.68-.71,9.02-1.27,17.17-4.72,16.19s2.8-18.49-1.24-23.06c-4.04-4.57-14.77,0-9.84,24.89,2.7,13.64,4.95,14.11,19.03,12.35,9.19-1.15,12.54.71,14.6,2.43.73.61,1.3,1.19,1.91,1.62.31.22.63.4.98.52Z"/><path class="uuid-3243a23d-5b19-4737-b471-bc9f9c70f60a" d="M59.9,32.15s4.75-.01,8.34-.78c.11-.02.21-.05.31-.07,2.34-.54,4.09-1.41,3.55-2.84-.71-1.88-3.12-2.32-5.3-2.3-2.06.01-3.92.44-3.92.44,0,0,1.86-.94,3.31-2.08,1.49-1.16,2.54-2.53.69-3.27-.54-.22-1.21-.25-1.95-.14-4.2.59-10.75,5.64-10.75,5.64,0,0,5.04-6.28,1.39-5.41-3.65.87-7.88,10.82-7.88,10.82h0s12.2,0,12.2,0Z"/><path class="uuid-656798f9-13ea-4772-96d5-4961e928747e" d="M55.14,50.97c.04-.09.09-.17.13-.25-.04.08-.09.17-.13.25Z"/><path class="uuid-656798f9-13ea-4772-96d5-4961e928747e" d="M54.88,51.54c.04-.1.08-.19.12-.28-.04.09-.08.18-.12.28Z"/><path class="uuid-656798f9-13ea-4772-96d5-4961e928747e" d="M55.43,50.44c.05-.08.09-.15.14-.23-.05.07-.1.15-.14.23Z"/><path class="uuid-656798f9-13ea-4772-96d5-4961e928747e" d="M54.28,53.51c.02-.11.05-.23.08-.34-.03.11-.06.22-.08.34Z"/><path class="uuid-656798f9-13ea-4772-96d5-4961e928747e" d="M54.65,52.16c.03-.1.07-.2.11-.3-.04.1-.07.2-.11.3Z"/><path class="uuid-656798f9-13ea-4772-96d5-4961e928747e" d="M59.34,48.76c.07.04.14.07.2.12-.07-.04-.13-.08-.2-.12Z"/><path class="uuid-656798f9-13ea-4772-96d5-4961e928747e" d="M54.45,52.82c.03-.11.06-.21.1-.32-.03.11-.07.21-.1.32Z"/><path class="uuid-656798f9-13ea-4772-96d5-4961e928747e" d="M58.6,48.49s.1.02.14.04c-.05-.01-.09-.03-.14-.04Z"/><path class="uuid-656798f9-13ea-4772-96d5-4961e928747e" d="M57.21,48.68c.05-.02.1-.05.16-.07-.05.02-.11.05-.16.07Z"/><path class="uuid-656798f9-13ea-4772-96d5-4961e928747e" d="M56.81,48.91c.05-.04.11-.08.16-.11-.06.03-.11.07-.16.11Z"/><path class="uuid-656798f9-13ea-4772-96d5-4961e928747e" d="M56.44,49.2c.05-.05.11-.1.16-.14-.05.04-.11.09-.16.14Z"/><path class="uuid-656798f9-13ea-4772-96d5-4961e928747e" d="M57.64,48.53s.09-.03.14-.04c-.05,0-.09.03-.14.04Z"/><path class="uuid-656798f9-13ea-4772-96d5-4961e928747e" d="M55.74,49.97c.05-.07.1-.14.15-.2-.05.06-.1.13-.15.2Z"/><path class="uuid-656798f9-13ea-4772-96d5-4961e928747e" d="M56.08,49.55c.05-.06.1-.12.16-.17-.05.05-.11.11-.16.17Z"/><path class="uuid-656798f9-13ea-4772-96d5-4961e928747e" d="M58.98,48.59c.06.02.12.05.18.07-.06-.03-.12-.05-.18-.07Z"/><path class="uuid-656798f9-13ea-4772-96d5-4961e928747e" d="M54.04,55c.01-.11.03-.22.04-.34-.01.11-.03.22-.04.34Z"/><path class="uuid-656798f9-13ea-4772-96d5-4961e928747e" d="M60.78,50.15c-.33-.5-.71-.9-1.11-1.18.4.29.77.69,1.11,1.18Z"/><path class="uuid-656798f9-13ea-4772-96d5-4961e928747e" d="M57.96,54.69c-1.17.7-2.57,1.06-3.97,1.09,0,0,0,0,0-.01-.02.28-.02.57-.02.86,0,4.51,1.9,5.87,4.24,5.87s4.24-1.36,4.24-5.87c0-2.64-.65-4.98-1.65-6.47-.35,1.88-1.59,3.6-2.83,4.53Z"/><path class="uuid-656798f9-13ea-4772-96d5-4961e928747e" d="M54.14,54.24c.02-.12.04-.23.06-.35-.02.12-.04.23-.06.35Z"/><path class="uuid-ff3a840a-3ad5-4aed-8864-ec580e326d28" d="M57.96,54.69c1.24-.93,2.47-2.65,2.83-4.53h0c-.33-.5-.71-.9-1.11-1.19-.04-.03-.08-.06-.13-.09-.07-.04-.13-.08-.2-.12-.06-.03-.12-.06-.18-.09-.06-.03-.12-.05-.18-.07-.08-.03-.16-.05-.24-.07-.05-.01-.09-.03-.14-.04-.13-.02-.26-.04-.4-.04-.14,0-.28.01-.42.04-.05,0-.09.03-.14.04-.09.02-.18.05-.27.08-.05.02-.11.05-.16.07-.08.04-.16.07-.24.12-.06.03-.11.07-.16.11-.07.05-.15.1-.22.15-.05.04-.11.09-.16.14-.07.06-.13.12-.2.19-.05.05-.11.11-.16.17-.06.07-.12.14-.18.22-.05.06-.1.13-.15.2-.06.08-.11.16-.17.24-.05.07-.1.15-.14.23-.05.09-.1.18-.15.27-.04.08-.09.17-.13.25-.05.1-.09.19-.14.3-.04.09-.08.18-.12.28-.04.1-.08.21-.12.32-.04.1-.07.2-.11.3-.04.11-.07.22-.11.34-.03.11-.07.21-.1.32-.03.12-.06.24-.09.36-.03.11-.06.22-.08.34-.03.12-.05.25-.07.38-.02.12-.04.23-.06.35-.02.14-.04.28-.06.42-.01.11-.03.22-.04.34-.03.25-.05.5-.06.76,0,0,0,0,0,.01,1.4-.02,2.8-.38,3.97-1.09Z"/><path class="uuid-656798f9-13ea-4772-96d5-4961e928747e" d="M76.94,53.87c-1.08.65-2.37.98-3.66,1,0,0,0,0,0-.01-.01.26-.02.53-.02.8,0,4.16,1.75,5.42,3.91,5.42s3.91-1.25,3.91-5.42c0-2.43-.6-4.59-1.53-5.97-.32,1.73-1.46,3.32-2.61,4.18Z"/><path class="uuid-656798f9-13ea-4772-96d5-4961e928747e" d="M74.61,49.96c.04-.07.09-.14.13-.21-.04.07-.09.14-.13.21Z"/><path class="uuid-656798f9-13ea-4772-96d5-4961e928747e" d="M74.9,49.52c.05-.06.09-.13.14-.18-.05.06-.09.12-.14.18Z"/><path class="uuid-656798f9-13ea-4772-96d5-4961e928747e" d="M74.35,50.44c.04-.08.08-.16.12-.23-.04.08-.08.15-.12.23Z"/><path class="uuid-656798f9-13ea-4772-96d5-4961e928747e" d="M75.21,49.14c.05-.05.1-.11.15-.16-.05.05-.1.1-.15.16Z"/><path class="uuid-656798f9-13ea-4772-96d5-4961e928747e" d="M73.89,51.54c.03-.09.07-.19.1-.28-.03.09-.07.18-.1.28Z"/><path class="uuid-656798f9-13ea-4772-96d5-4961e928747e" d="M74.11,50.97c.04-.09.07-.17.11-.26-.04.08-.08.17-.11.26Z"/><path class="uuid-656798f9-13ea-4772-96d5-4961e928747e" d="M75.54,48.81s.1-.09.15-.13c-.05.04-.1.09-.15.13Z"/><path class="uuid-656798f9-13ea-4772-96d5-4961e928747e" d="M76.65,48.19s.08-.03.13-.03c-.04,0-.08.02-.13.03Z"/><path class="uuid-656798f9-13ea-4772-96d5-4961e928747e" d="M76.25,48.34s.1-.05.15-.07c-.05.02-.1.05-.15.07Z"/><path class="uuid-656798f9-13ea-4772-96d5-4961e928747e" d="M75.89,48.54c.05-.03.1-.07.15-.1-.05.03-.1.07-.15.1Z"/><path class="uuid-656798f9-13ea-4772-96d5-4961e928747e" d="M77.53,48.16s.09.02.13.03c-.04-.01-.09-.02-.13-.03Z"/><path class="uuid-656798f9-13ea-4772-96d5-4961e928747e" d="M73.71,52.15c.03-.1.06-.2.09-.3-.03.1-.06.2-.09.3Z"/><path class="uuid-656798f9-13ea-4772-96d5-4961e928747e" d="M78.22,48.41c.06.03.13.07.19.11-.06-.04-.12-.08-.19-.11Z"/><path class="uuid-656798f9-13ea-4772-96d5-4961e928747e" d="M77.89,48.25c.06.02.11.04.16.07-.05-.02-.11-.05-.16-.07Z"/><path class="uuid-656798f9-13ea-4772-96d5-4961e928747e" d="M79.55,49.69c-.31-.46-.65-.83-1.02-1.09.37.27.71.64,1.02,1.09Z"/><path class="uuid-656798f9-13ea-4772-96d5-4961e928747e" d="M73.43,53.46c.02-.11.04-.21.06-.32-.02.11-.04.21-.06.32Z"/><path class="uuid-656798f9-13ea-4772-96d5-4961e928747e" d="M73.55,52.79c.02-.11.05-.21.07-.31-.02.1-.05.21-.07.31Z"/><path class="uuid-656798f9-13ea-4772-96d5-4961e928747e" d="M73.33,54.16c.01-.1.03-.2.04-.31-.01.1-.03.2-.04.31Z"/><path class="uuid-ff3a840a-3ad5-4aed-8864-ec580e326d28" d="M76.94,53.87c1.14-.86,2.28-2.45,2.61-4.18h0s0,0,0,0c-.31-.46-.65-.83-1.02-1.09-.04-.03-.08-.06-.12-.08-.06-.04-.12-.08-.19-.11-.06-.03-.11-.06-.17-.08-.05-.02-.11-.05-.16-.07-.07-.03-.15-.05-.22-.06-.04-.01-.09-.02-.13-.03-.12-.02-.24-.04-.37-.04-.13,0-.26.01-.39.04-.04,0-.08.02-.13.03-.08.02-.17.04-.25.07-.05.02-.1.05-.15.07-.07.03-.15.07-.22.11-.05.03-.1.07-.15.1-.07.04-.13.09-.2.14-.05.04-.1.09-.15.13-.06.05-.12.11-.18.17-.05.05-.1.1-.15.16-.06.06-.11.13-.17.2-.05.06-.09.12-.14.18-.05.07-.11.15-.16.23-.04.07-.09.14-.13.21-.05.08-.1.16-.14.25-.04.08-.08.15-.12.23-.04.09-.09.18-.13.27-.04.08-.08.17-.11.26-.04.1-.08.19-.11.29-.03.09-.07.18-.1.28-.03.1-.07.21-.1.31-.03.1-.06.2-.09.3-.03.11-.06.22-.08.33-.02.1-.05.21-.07.31-.02.12-.05.24-.07.35-.02.11-.04.21-.06.32-.02.13-.04.26-.05.39-.01.1-.03.2-.04.31-.02.23-.04.46-.06.7,0,0,0,0,0,.01,1.3-.02,2.58-.35,3.66-1Z"/><path class="uuid-2857cd39-65b2-44b7-98dd-dc9d68fb9358" d="M57.99,45.54c1.72,0,2.9,1.23,2.93,1.27.48.53,1.3.57,1.84.1.54-.48.58-1.31.1-1.84-.08-.09-1.94-2.13-4.87-2.13-1.94,0-3.71.78-5.1,2.25-.5.52-.47,1.35.05,1.84.25.24.57.36.9.36.35,0,.69-.14.95-.41.92-.97,1.97-1.44,3.21-1.44Z"/><path class="uuid-2857cd39-65b2-44b7-98dd-dc9d68fb9358" d="M81.11,44.93c-.05-.06-1.04-1.15-2.68-1.69-.56-.19-1.19-.31-1.88-.31-1.82,0-3.47.73-4.78,2.11-.5.52-.47,1.35.05,1.84.25.24.57.36.9.36.35,0,.69-.14.95-.41.82-.87,1.77-1.3,2.89-1.3,1.54,0,2.6,1.11,2.63,1.14.32.35.79.48,1.23.4.22-.04.43-.14.61-.3.54-.48.58-1.3.1-1.84Z"/></g></g></g></svg>