<?xml version="1.0" encoding="UTF-8"?><svg xmlns="http://www.w3.org/2000/svg" viewBox="0 0 137.32 116.84"><defs><style>.uuid-bc50dba7-b8e0-43d7-84f6-eed58179ac13{isolation:isolate;}.uuid-a3ed0d9f-2a54-4866-bf1f-9b97a22c043a{mix-blend-mode:overlay;opacity:.15;}.uuid-a3ed0d9f-2a54-4866-bf1f-9b97a22c043a,.uuid-9da1aab4-88e3-4679-b266-047306c32ac4,.uuid-10b43243-10f2-45f2-b347-0a774f4a9671,.uuid-a004c9fe-996c-4c89-94c6-22045a675605,.uuid-09af4d54-ed4e-4b47-8026-6253a24b5bfa,.uuid-65a05932-029f-4e02-9874-003775861ef0,.uuid-cc8d957a-d5b4-4d27-905f-a6ec5c79cf37,.uuid-eab27ace-d96a-454b-b735-a3e960b56cd0,.uuid-0271139f-efcf-47e3-945a-a7901dd71558{stroke-width:0px;}.uuid-9da1aab4-88e3-4679-b266-047306c32ac4{fill:#f87671;}.uuid-10b43243-10f2-45f2-b347-0a774f4a9671{fill:#f98c87;}.uuid-a004c9fe-996c-4c89-94c6-22045a675605{fill:#2b0020;}.uuid-09af4d54-ed4e-4b47-8026-6253a24b5bfa{fill:#360e2b;}.uuid-65a05932-029f-4e02-9874-003775861ef0{fill:#666f65;}.uuid-cc8d957a-d5b4-4d27-905f-a6ec5c79cf37{fill:#7f867e;}.uuid-eab27ace-d96a-454b-b735-a3e960b56cd0{fill:#fff;}.uuid-0271139f-efcf-47e3-945a-a7901dd71558{fill:#edb348;}</style></defs><g class="uuid-bc50dba7-b8e0-43d7-84f6-eed58179ac13"><g id="uuid-730d99f3-5c96-4e7f-a81e-47823e0dbc4d"><g id="uuid-d4ba5739-d4cc-4a37-8ed1-f2636e34d506"><circle class="uuid-0271139f-efcf-47e3-945a-a7901dd71558" cx="68.66" cy="63.7" r="53.15"/><path class="uuid-cc8d957a-d5b4-4d27-905f-a6ec5c79cf37" d="M88.24,86.75c-5.97-5.43-31.61-7.01-36.5-1.58-5.67,6.21-9.42,12.71-8.89,24.99,7.64,4.26,16.44,6.68,25.81,6.68,11,0,21.21-3.34,29.69-9.06-1.65-8.46-3.69-15.28-10.12-21.04Z"/><path class="uuid-65a05932-029f-4e02-9874-003775861ef0" d="M81.32,99.32c-5.97-4.34-15.92-3.8-21.35,0-4.08,2.72-5.87,10.55-8.24,14.76,5.32,1.79,11.01,2.76,16.92,2.76,7.28,0,14.22-1.47,20.53-4.12-2.31-3.05-4.48-11.14-7.87-13.4Z"/><path class="uuid-a3ed0d9f-2a54-4866-bf1f-9b97a22c043a" d="M95.71,97.79c-1.55-4.1-3.79-7.75-7.47-11.04-5.97-5.43-31.61-7.01-36.5-1.58-3.88,4.25-6.86,8.63-8.18,14.9,17.39,4.53,36.08,5.87,52.15-2.28Z"/><path class="uuid-65a05932-029f-4e02-9874-003775861ef0" d="M37.75,32.44s-2.58-10.14-11.58-13.34c-9-3.21-19.69,3.64-23.04,20.27-3.34,16.62-4.94,30.93,0,34.07,4.94,3.14,9.56-4.61,9.56-4.61,0,0-2.47,7.25,3.14,9.64,5.61,2.39,6.7-5.5,6.7-5.5,0,0-.08,6.47,6.13,7.33,6.17.85,10.65-8.31,10.65-8.31l-1.56-39.54Z"/><path class="uuid-9da1aab4-88e3-4679-b266-047306c32ac4" d="M20.87,42.39c4.16.55,8.31,2.88,11.06,6.23v-9.05s.66-9.87-6.76-12.21c-7.13-2.24-13.57,5.37-15.1,15.52,3.53-.86,7.28-.97,10.8-.5Z"/><path class="uuid-10b43243-10f2-45f2-b347-0a774f4a9671" d="M20.87,42.39c-3.52-.47-7.27-.36-10.8.5-.06.41-.12.82-.16,1.24-1.17,10.76,2.84,19.77,9.17,21.77,6.34,2,12.86-3.5,12.86-3.5v-13.77c-2.76-3.35-6.92-5.68-11.07-6.23Z"/><path class="uuid-65a05932-029f-4e02-9874-003775861ef0" d="M99.57,32.44s2.58-10.14,11.58-13.34c9-3.21,19.69,3.64,23.04,20.27,3.34,16.62,4.94,30.93,0,34.07-4.94,3.14-9.56-4.61-9.56-4.61,0,0,2.47,7.25-3.14,9.64-5.61,2.39-6.7-5.5-6.7-5.5,0,0,.08,6.47-6.13,7.33-6.17.85-10.65-8.31-10.65-8.31l1.56-39.54Z"/><path class="uuid-9da1aab4-88e3-4679-b266-047306c32ac4" d="M116.46,42.39c-4.16.55-8.31,2.88-11.06,6.23v-9.05s-.66-9.87,6.76-12.21c7.13-2.24,13.57,5.37,15.1,15.52-3.53-.86-7.28-.97-10.8-.5Z"/><path class="uuid-10b43243-10f2-45f2-b347-0a774f4a9671" d="M116.46,42.39c3.52-.47,7.27-.36,10.8.5.06.41.12.82.16,1.24,1.17,10.76-2.84,19.77-9.17,21.77-6.34,2-12.86-3.5-12.86-3.5v-13.77c2.76-3.35,6.92-5.68,11.07-6.23Z"/><path class="uuid-cc8d957a-d5b4-4d27-905f-a6ec5c79cf37" d="M118.86,58.66c0,27.05-23.83,35.14-51.56,35.14s-48.84-8.09-48.84-35.14S40.94,9.68,68.66,9.68s50.2,21.93,50.2,48.98Z"/><path class="uuid-a004c9fe-996c-4c89-94c6-22045a675605" d="M76.32,85.92c-2.63,0-5.21-1.08-7.69-3.22-1.57,1.26-4.82,3.4-8.39,3.03-2.64-.27-4.91-1.81-6.73-4.58-.41-.63-.24-1.47.39-1.88.62-.41,1.47-.24,1.88.39,1.35,2.06,2.95,3.19,4.74,3.37,3.6.37,7.15-3.08,7.18-3.12.53-.53,1.38-.53,1.91,0,2.36,2.33,4.76,3.43,7.14,3.29,3.65-.22,6.18-3.36,6.2-3.39.47-.59,1.32-.69,1.9-.22.59.46.69,1.31.23,1.9-.13.17-3.27,4.1-8.14,4.42-.21.01-.42.02-.62.02Z"/><path class="uuid-a004c9fe-996c-4c89-94c6-22045a675605" d="M49.29,60.04c0,7.43-3.12,9.66-6.97,9.66s-6.97-2.24-6.97-9.66,3.12-13.45,6.97-13.45,6.97,6.02,6.97,13.45Z"/><path class="uuid-eab27ace-d96a-454b-b735-a3e960b56cd0" d="M46.57,49.4c-1.18-1.75-2.65-2.8-4.25-2.8-3.61,0-6.57,5.28-6.94,12.05,2.31-.04,4.61-.63,6.54-1.79,2.04-1.53,4.07-4.36,4.65-7.46Z"/><path class="uuid-a004c9fe-996c-4c89-94c6-22045a675605" d="M102.18,60.04c0,7.43-3.12,9.66-6.97,9.66s-6.97-2.24-6.97-9.66,3.12-13.45,6.97-13.45,6.97,6.02,6.97,13.45Z"/><path class="uuid-eab27ace-d96a-454b-b735-a3e960b56cd0" d="M99.46,49.4c-1.18-1.75-2.65-2.8-4.25-2.8-3.61,0-6.57,5.28-6.94,12.05,2.31-.04,4.61-.63,6.54-1.79,2.04-1.53,4.07-4.36,4.65-7.46Z"/><path class="uuid-65a05932-029f-4e02-9874-003775861ef0" d="M35.14,44.05c-.33,0-.67-.12-.93-.37-.54-.52-.57-1.37-.05-1.92,2.17-2.3,4.81-3.46,7.82-3.46,4.47,0,7.31,3.11,7.42,3.25.5.56.45,1.42-.11,1.92-.56.5-1.41.45-1.91-.1-.02-.03-2.18-2.35-5.41-2.35-2.24,0-4.21.88-5.85,2.61-.27.28-.63.42-.99.42Z"/><path class="uuid-65a05932-029f-4e02-9874-003775861ef0" d="M87.26,44.05c-.33,0-.67-.12-.93-.37-.54-.51-.57-1.37-.05-1.92,2.17-2.3,4.81-3.46,7.82-3.46,4.47,0,7.31,3.11,7.42,3.25.5.56.45,1.42-.11,1.92-.56.5-1.41.45-1.91-.1-.02-.03-2.18-2.35-5.41-2.35-2.24,0-4.21.88-5.85,2.61-.27.28-.63.42-.99.42Z"/><path class="uuid-09af4d54-ed4e-4b47-8026-6253a24b5bfa" d="M62.69,50.3c6.29,3.97,12.16,1.08,16.29-3.99-2.35-5.11-5.87-8.62-10.32-9.21-4.28-.57-7.65,3.87-9.82,9.52.99,1.53,2.17,2.85,3.85,3.69Z"/><path class="uuid-a004c9fe-996c-4c89-94c6-22045a675605" d="M78.98,46.3c-4.13,5.07-10.01,7.96-16.29,3.99-1.68-.84-2.86-2.16-3.85-3.69-1.95,5.1-2.92,11.19-2.66,15.47.26,4.31,1.45,15.54,12.48,14.63,13.53-1.11,13.76-8.56,13.57-15.12-.16-5.7-1.3-11.04-3.25-15.28Z"/><path class="uuid-cc8d957a-d5b4-4d27-905f-a6ec5c79cf37" d="M57.26,11.94s-.54-8.5,3.08-9.59c3.62-1.09,1.63,5.97,1.63,5.97C61.97,8.32,68.66-.18,74.45,0c5.79.18-2.95,7.6-2.95,7.6,0,0,10.14-4.16,12.51-.18,2.38,3.98-12.64,4.52-12.64,4.52h-14.11Z"/></g></g></g></svg>