<?xml version="1.0" encoding="UTF-8"?><svg xmlns="http://www.w3.org/2000/svg" viewBox="0 0 165.71 120.61"><defs><style>.uuid-a5c48c87-cc04-4997-a4b6-f25a1d02fc23{mix-blend-mode:overlay;opacity:.2;}.uuid-a5c48c87-cc04-4997-a4b6-f25a1d02fc23,.uuid-b4dfcbd2-5296-4828-a233-d644c3b583f1,.uuid-d8994728-b577-47f4-aad6-7d61c8cd5cdb,.uuid-9329fd84-6431-4676-a817-06e5c7b2c469,.uuid-404ab43d-5fb5-4d86-b416-48363de2e56a,.uuid-04175f6a-6553-48df-be9f-32bf4940b9a2{stroke-width:0px;}.uuid-da86e168-fec7-4725-8bb4-8ec26c3d1257{isolation:isolate;}.uuid-b4dfcbd2-5296-4828-a233-d644c3b583f1{fill:#f98c87;}.uuid-d8994728-b577-47f4-aad6-7d61c8cd5cdb{fill:#2b0020;}.uuid-9329fd84-6431-4676-a817-06e5c7b2c469{fill:#8ebb6a;}.uuid-404ab43d-5fb5-4d86-b416-48363de2e56a{fill:#fff;}.uuid-04175f6a-6553-48df-be9f-32bf4940b9a2{fill:#f6caa6;}</style></defs><g class="uuid-da86e168-fec7-4725-8bb4-8ec26c3d1257"><g id="uuid-bfbc4d37-0d52-4cc3-a569-6c8a9fcb2a5d"><g id="uuid-100a4f37-6705-466f-94a9-a056647b053c"><circle class="uuid-9329fd84-6431-4676-a817-06e5c7b2c469" cx="82.86" cy="67.46" r="53.15" transform="translate(-23.43 78.35) rotate(-45)"/><path class="uuid-b4dfcbd2-5296-4828-a233-d644c3b583f1" d="M95.18,93.13c-5.97-5.43-19-5.43-23.88,0-5.67,6.21-10.4,13.23-14.26,20.79,7.64,4.26,16.44,6.68,25.81,6.68,11,0,21.21-3.34,29.69-9.06-4.93-6.7-10.93-12.66-17.36-18.42Z"/><path class="uuid-04175f6a-6553-48df-be9f-32bf4940b9a2" d="M92.92,104.83c-5.97-4.34-10.81-3.8-16.24,0-4.08,2.72-8.37,8.8-10.75,13.02,5.32,1.79,11.01,2.76,16.92,2.76,7.28,0,14.22-1.47,20.53-4.12-2.31-3.05-7.08-9.39-10.47-11.65Z"/><path class="uuid-a5c48c87-cc04-4997-a4b6-f25a1d02fc23" d="M103.39,100.93c-2.62-2.67-5.37-5.25-8.21-7.79-5.97-5.43-19-5.43-23.88,0-3.57,3.91-6.76,8.14-9.6,12.62,23.09,9.45,42.95-3.55,41.69-4.83Z"/><path class="uuid-b4dfcbd2-5296-4828-a233-d644c3b583f1" d="M76.68,30.77S70.98,2.74,46.61.18C22.25-2.39-10.69,23.38,3.37,41.02c13.27,16.66,41.85-24.23,41.85-24.23,0,0,13.88.75,23.67,16.57l7.78-2.59Z"/><path class="uuid-04175f6a-6553-48df-be9f-32bf4940b9a2" d="M49.62,13.17c-1.69.84-3.19,2.06-4.31,3.63,1.09.09,14.21,1.41,23.59,16.56l3.89-1.82c-1.99-7.65-4.88-14.51-11.43-18.02-3.65-1.95-8.04-2.19-11.74-.34Z"/><path class="uuid-b4dfcbd2-5296-4828-a233-d644c3b583f1" d="M89.03,30.77S94.73,2.74,119.1.18c24.36-2.57,57.3,23.2,43.24,40.84-13.27,16.66-41.85-24.23-41.85-24.23,0,0-13.88.75-23.67,16.57l-7.78-2.59Z"/><path class="uuid-04175f6a-6553-48df-be9f-32bf4940b9a2" d="M116.09,13.17c1.69.84,3.19,2.06,4.31,3.63-1.09.09-14.21,1.41-23.59,16.56l-3.89-1.82c1.99-7.65,4.88-14.51,11.43-18.02,3.65-1.95,8.04-2.19,11.74-.34Z"/><path class="uuid-04175f6a-6553-48df-be9f-32bf4940b9a2" d="M83.79,77.94c-11.94-7.6-27.68-11.4-40.7-6.51-1.17.43-2.24.98-3.25,1.63.21,18.83,16.72,29.25,50.94,24.47,14.41-2.01,33.29-5.92,35.1-24.35.11-1.13.11-2.29.02-3.48-14.54-3.63-29.68-.19-42.1,8.25Z"/><path class="uuid-b4dfcbd2-5296-4828-a233-d644c3b583f1" d="M85.7,26.3c-14.94-1.81-43.1,20.48-45.63,42.17-.18,1.58-.26,3.1-.24,4.58,1.01-.65,2.08-1.2,3.25-1.63,13.03-4.88,28.76-1.09,40.7,6.51,12.41-8.44,27.55-11.88,42.1-8.25-1.48-18.13-26.16-41.69-40.18-43.38Z"/><path class="uuid-d8994728-b577-47f4-aad6-7d61c8cd5cdb" d="M84.24,78.39c2.04-.5,3.69-3.02,3.69-3.02,0,0,6.41.57,4.63-3.49-1.9-4.34-18.68-2.04-18.04,1.4.63,3.44,4.54,2.01,4.54,2.01,0,0,2.89,3.65,5.18,3.1Z"/><path class="uuid-b4dfcbd2-5296-4828-a233-d644c3b583f1" d="M84.74,27.05s3.66-.81,3.12-2.71c-.54-1.9-2.81-1.94-4.17,0,0,0,2.88-3.39,0-4.21-2.88-.81-2.61,4.48-2.61,4.48,0,0-.54-2.32-1.9-2.11-1.36.21-1.76,4.14,0,5.37,1.76,1.22,5.56-.81,5.56-.81Z"/><path class="uuid-d8994728-b577-47f4-aad6-7d61c8cd5cdb" d="M75.87,86.52c-.07,0-.15,0-.22,0-2.66-.07-5.03-1.44-7.05-4.07-.46-.59-.34-1.45.25-1.9.59-.46,1.45-.34,1.9.25,1.5,1.95,3.17,2.96,4.97,3.01,3.61.13,6.9-3.6,6.93-3.64.49-.57,1.34-.63,1.91-.15,2.53,2.15,5,3.08,7.36,2.75,3.62-.49,5.91-3.8,5.94-3.84.42-.62,1.26-.78,1.88-.36.62.42.79,1.26.37,1.88-.12.18-2.96,4.33-7.79,5.01-2.83.39-5.69-.48-8.52-2.58-1.44,1.34-4.42,3.65-7.92,3.65Z"/><path class="uuid-d8994728-b577-47f4-aad6-7d61c8cd5cdb" d="M74.91,61.15c0,5.81-2.44,7.55-5.45,7.55s-5.45-1.75-5.45-7.55,2.44-10.51,5.45-10.51,5.45,4.71,5.45,10.51Z"/><path class="uuid-404ab43d-5fb5-4d86-b416-48363de2e56a" d="M72.78,52.83c-.92-1.37-2.07-2.19-3.32-2.19-2.82,0-5.14,4.13-5.42,9.42,1.81-.03,3.6-.49,5.11-1.4,1.59-1.2,3.18-3.41,3.63-5.83Z"/><path class="uuid-d8994728-b577-47f4-aad6-7d61c8cd5cdb" d="M103.52,61.15c0,5.81-2.44,7.55-5.45,7.55s-5.45-1.75-5.45-7.55,2.44-10.51,5.45-10.51,5.45,4.71,5.45,10.51Z"/><path class="uuid-404ab43d-5fb5-4d86-b416-48363de2e56a" d="M101.4,52.83c-.92-1.37-2.07-2.19-3.32-2.19-2.82,0-5.14,4.13-5.42,9.42,1.81-.03,3.6-.49,5.11-1.4,1.59-1.2,3.18-3.41,3.63-5.83Z"/><path class="uuid-d8994728-b577-47f4-aad6-7d61c8cd5cdb" d="M63.84,48.95c-.33,0-.67-.12-.93-.37-.54-.51-.57-1.37-.05-1.92,1.76-1.86,3.89-2.8,6.33-2.8,3.62,0,5.93,2.53,6.02,2.64.5.56.45,1.42-.11,1.92-.56.5-1.41.45-1.91-.1-.04-.04-1.64-1.74-4.01-1.74-1.69,0-3.12.64-4.36,1.95-.27.28-.63.42-.99.42Z"/><path class="uuid-d8994728-b577-47f4-aad6-7d61c8cd5cdb" d="M91.86,48.95c-.33,0-.67-.12-.93-.37-.54-.51-.57-1.37-.05-1.92,1.76-1.86,3.89-2.8,6.33-2.8,3.62,0,5.93,2.53,6.02,2.64.5.56.45,1.42-.11,1.92-.56.5-1.41.45-1.91-.1-.04-.04-1.64-1.74-4.01-1.74-1.69,0-3.12.64-4.36,1.95-.27.28-.63.42-.99.42Z"/></g></g></g></svg>