<?xml version="1.0" encoding="UTF-8"?><svg xmlns="http://www.w3.org/2000/svg" viewBox="0 0 106.29 120.65"><defs><style>.uuid-6496f148-3da2-40d1-abba-1028030e66e9{isolation:isolate;}.uuid-c52daeaf-6b85-464e-ac94-734eee84800d{mix-blend-mode:overlay;opacity:.15;}.uuid-c52daeaf-6b85-464e-ac94-734eee84800d,.uuid-fe554735-9ad4-4a4b-8f5b-09baa747e84c,.uuid-33f4af74-a6af-4da1-9169-3967679b57e7,.uuid-60dc16cf-bca6-4ef9-9580-35a20ce152dc,.uuid-3e4ae127-ce96-41a3-a0f3-1c13a2227f61,.uuid-d87570e2-eef3-4d66-abe2-eda935525c59,.uuid-831e81ff-eb95-436c-82d7-1129b15fd3aa,.uuid-567d0e80-7f1a-494d-a9c2-8123ed963cf0,.uuid-88fd4f55-9909-4240-8358-26d412d84d0c{stroke-width:0px;}.uuid-fe554735-9ad4-4a4b-8f5b-09baa747e84c{fill:#2b0020;}.uuid-33f4af74-a6af-4da1-9169-3967679b57e7{fill:#de8316;}.uuid-60dc16cf-bca6-4ef9-9580-35a20ce152dc{fill:#e39635;}.uuid-3e4ae127-ce96-41a3-a0f3-1c13a2227f61{fill:#df3140;}.uuid-d87570e2-eef3-4d66-abe2-eda935525c59{fill:#fff;}.uuid-831e81ff-eb95-436c-82d7-1129b15fd3aa{fill:#edb348;}.uuid-567d0e80-7f1a-494d-a9c2-8123ed963cf0{fill:#f3c07b;}.uuid-88fd4f55-9909-4240-8358-26d412d84d0c{fill:#f6db99;}</style></defs><g class="uuid-6496f148-3da2-40d1-abba-1028030e66e9"><g id="uuid-263bfc5e-7166-4f0b-91d7-39e0e98d9d45"><g id="uuid-1ec41dbd-9f3e-4734-addd-0b79c6ab4c4f"><circle class="uuid-fe554735-9ad4-4a4b-8f5b-09baa747e84c" cx="53.15" cy="67.5" r="53.15" transform="translate(-22.11 108.94) rotate(-80.63)"/><path class="uuid-60dc16cf-bca6-4ef9-9580-35a20ce152dc" d="M53.15,120.65c15.34,0,29.16-6.5,38.86-16.89-8.15-18.65-25.39-32.01-38.86-32.49-11.49-.41-31.98,12.35-38.86,32.49,9.7,10.39,23.52,16.89,38.86,16.89Z"/><path class="uuid-c52daeaf-6b85-464e-ac94-734eee84800d" d="M86.31,93.52c-9.02-13.13-22.31-21.88-33.16-22.26-9.76-.35-26.02,8.82-34.91,23.94,20.63,13.22,46.74,9.84,68.07-1.68Z"/><path class="uuid-831e81ff-eb95-436c-82d7-1129b15fd3aa" d="M98.65,26.42c-6.67-15.4-25.8-20.19-37.75-21.46C63.57,3.19,63.91.04,61.07,0c-3.54-.05-6.12,4.45-6.12,4.45-1.51-2.9-6.61-3.69-7.33-1.85-.33.86.69,1.52,1.88,1.99-10.7.4-35.02,4.04-42.73,21.83-8.8,20.31-4.74,49.11-1.69,51.89,1.89,1.72,2.47-.57,2.65-2.57,0,3.25.34,8.85,2.6,9.92,1.71.81,2.61-1.25,3.07-3.36-.13,2.47.14,5.37,2,6.04,3.39,1.22,4.06-6.06,4.06-6.06,0,0,0,8.97,3.39,9.82,3.39.85,4.44-7.82,4.44-7.82,0,0,.47,7.43,2.84,7.88,2.37.45,3.6-5.46,3.6-5.46,0,0,1.17,6.59,8.94,6.93,3.7.16,5.17-1.59,5.71-3.48.22,1.89.88,3.65,2.57,3.49.82-.08,1.38-4.91,1.76-12.29.37,7.37.93,12.2,1.76,12.29,1.69.17,2.35-1.6,2.57-3.49.53,1.88,2.01,3.64,5.71,3.48,7.77-.34,8.94-6.93,8.94-6.93,0,0,1.23,5.91,3.6,5.46,2.37-.45,2.84-7.88,2.84-7.88,0,0,1.06,8.66,4.44,7.82,3.39-.85,3.39-9.82,3.39-9.82,0,0,.68,7.28,4.06,6.06,1.87-.67,2.14-3.57,2-6.04.46,2.11,1.36,4.17,3.07,3.36,2.26-1.07,2.6-6.67,2.6-9.92.17,2,.76,4.29,2.65,2.57,3.05-2.78,7.11-31.58-1.69-51.89Z"/><path class="uuid-c52daeaf-6b85-464e-ac94-734eee84800d" d="M17.35,28.66c3.6-3.2,1.8-9.31-.72-14.19-4.16,3.01-7.67,6.91-9.85,11.95-.51,1.18-.98,2.38-1.4,3.61,4.31.52,10.45-.49,11.97-1.37Z"/><path class="uuid-c52daeaf-6b85-464e-ac94-734eee84800d" d="M88.07,28.66c-3.6-3.2-1.8-9.31.72-14.19,4.16,3.01,7.67,6.91,9.85,11.95.51,1.18.98,2.38,1.4,3.61-4.31.52-10.45-.49-11.97-1.37Z"/><path class="uuid-c52daeaf-6b85-464e-ac94-734eee84800d" d="M90.78,59.01c0,23.2-37.31,34.63-37.31,34.63,0,0-37.31-11.43-37.31-34.63S32.86,17,53.46,17s37.31,18.81,37.31,42.01Z"/><path class="uuid-60dc16cf-bca6-4ef9-9580-35a20ce152dc" d="M90.78,49.69c0,20.31-16.71,25.38-37.31,25.38s-37.31-5.07-37.31-25.38S32.86,12.92,53.46,12.92s37.31,16.46,37.31,36.77Z"/><path class="uuid-567d0e80-7f1a-494d-a9c2-8123ed963cf0" d="M66.54,99.32h-26.79c-2.23,0-4.18-1.68-4.42-3.83l-2.87-26.16c-.31-2.83,1.65-5.22,4.34-5.22h32.67c2.69,0,4.65,2.39,4.34,5.22l-2.87,26.16c-.24,2.15-2.19,3.83-4.42,3.83Z"/><path class="uuid-fe554735-9ad4-4a4b-8f5b-09baa747e84c" d="M40.04,90.7l-2.22-20.25c-.15-1.4.94-2.61,2.34-2.61h25.97c1.4,0,2.5,1.22,2.34,2.61l-2.22,20.25c-.13,1.2-1.14,2.1-2.34,2.1h-21.53c-1.2,0-2.21-.91-2.34-2.1Z"/><path class="uuid-3e4ae127-ce96-41a3-a0f3-1c13a2227f61" d="M42.38,92.8h21.53c1.2,0,2.21-.91,2.34-2.1l.57-5.18c-3.48-3.04-8.32-4.93-13.68-4.93s-10.2,1.89-13.68,4.93l.57,5.18c.13,1.2,1.14,2.1,2.34,2.1Z"/><path class="uuid-d87570e2-eef3-4d66-abe2-eda935525c59" d="M64.02,92.8s-.58-2.87-2.22-3.47c-1.64-.59-3.16,3.47-3.16,3.47h5.38Z"/><path class="uuid-d87570e2-eef3-4d66-abe2-eda935525c59" d="M42.27,92.8s.58-2.87,2.22-3.47c1.64-.59,3.16,3.47,3.16,3.47h-5.38Z"/><path class="uuid-d87570e2-eef3-4d66-abe2-eda935525c59" d="M39.47,76.17s.73,4.83,2.79,5.83c2.06,1,3.97-5.83,3.97-5.83h-6.76Z"/><path class="uuid-d87570e2-eef3-4d66-abe2-eda935525c59" d="M66.82,76.17s-.73,4.83-2.79,5.83-3.97-5.83-3.97-5.83h6.76Z"/><path class="uuid-88fd4f55-9909-4240-8358-26d412d84d0c" d="M53.46,55.87c-11.07,0-27.54.19-25.14,16.39,1.47,9.95,19.73,8.08,24.17.91.45-.73,1.49-.73,1.94,0,4.44,7.17,22.69,9.04,24.17-.91,2.4-16.2-14.06-16.39-25.14-16.39Z"/><path class="uuid-fe554735-9ad4-4a4b-8f5b-09baa747e84c" d="M64.64,60c0,3.22-5.01,3.66-11.18,3.66s-11.18-.44-11.18-3.66,5.01-5.83,11.18-5.83,11.18,2.61,11.18,5.83Z"/><path class="uuid-fe554735-9ad4-4a4b-8f5b-09baa747e84c" d="M42.27,48.47c0,5.06-2.13,6.58-4.75,6.58s-4.75-1.52-4.75-6.58,2.13-9.16,4.75-9.16,4.75,4.1,4.75,9.16Z"/><path class="uuid-d87570e2-eef3-4d66-abe2-eda935525c59" d="M40.42,41.22c-.8-1.19-1.8-1.91-2.89-1.91-2.46,0-4.48,3.59-4.72,8.2,1.57-.03,3.14-.43,4.45-1.22,1.39-1.04,2.77-2.97,3.17-5.08Z"/><path class="uuid-fe554735-9ad4-4a4b-8f5b-09baa747e84c" d="M74.14,48.47c0,5.06-2.13,6.58-4.75,6.58s-4.75-1.52-4.75-6.58,2.13-9.16,4.75-9.16,4.75,4.1,4.75,9.16Z"/><path class="uuid-d87570e2-eef3-4d66-abe2-eda935525c59" d="M72.29,41.22c-.8-1.19-1.8-1.91-2.89-1.91-2.46,0-4.47,3.59-4.72,8.2,1.57-.03,3.14-.43,4.45-1.22,1.39-1.04,2.77-2.97,3.17-5.08Z"/><path class="uuid-33f4af74-a6af-4da1-9169-3967679b57e7" d="M32.64,38.02c-.33,0-.67-.12-.93-.37-.54-.51-.57-1.37-.05-1.92,1.57-1.65,3.46-2.49,5.64-2.49,3.23,0,5.29,2.26,5.38,2.36.5.56.45,1.42-.11,1.92-.56.5-1.41.45-1.91-.1-.04-.04-1.38-1.46-3.36-1.46-1.42,0-2.62.54-3.67,1.64-.27.28-.63.42-.99.42Z"/><path class="uuid-33f4af74-a6af-4da1-9169-3967679b57e7" d="M63.98,38.02c-.33,0-.67-.12-.93-.37-.54-.51-.57-1.37-.05-1.92,1.57-1.65,3.46-2.49,5.64-2.49,3.23,0,5.29,2.26,5.38,2.36.5.56.45,1.42-.11,1.92-.56.5-1.41.45-1.91-.1-.04-.04-1.38-1.46-3.36-1.46-1.42,0-2.62.54-3.67,1.64-.27.28-.63.42-.99.42Z"/><path class="uuid-60dc16cf-bca6-4ef9-9580-35a20ce152dc" d="M77.65,18.54c-.88-.5-1.31-1.51-.77-2.37,2.21-3.46,7.7-10.64,14.26-8.64,8.12,2.46,8.13,16.19-1.77,21.14-.86.43-1.71-.08-2.23-.88-2.01-3.08-4.97-6.71-9.49-9.25Z"/><path class="uuid-88fd4f55-9909-4240-8358-26d412d84d0c" d="M91.2,15.09c-1.09-2.71-4.88-3.8-8.14-2.17-2.19,1.57-3.66,3.68-4.72,6.02,3.53,2.15,6.05,4.94,7.9,7.53,3.89-2.38,6.96-6.88,4.96-11.38Z"/><path class="uuid-60dc16cf-bca6-4ef9-9580-35a20ce152dc" d="M27.78,18.54c.88-.5,1.31-1.51.77-2.37-2.21-3.46-7.7-10.64-14.26-8.64-8.12,2.46-8.13,16.19,1.77,21.14.86.43,1.71-.08,2.23-.88,2.01-3.08,4.97-6.71,9.49-9.25Z"/><path class="uuid-88fd4f55-9909-4240-8358-26d412d84d0c" d="M14.23,15.09c1.09-2.71,4.88-3.8,8.14-2.17,2.19,1.57,3.66,3.68,4.72,6.02-3.53,2.15-6.05,4.94-7.9,7.53-3.89-2.38-6.96-6.88-4.96-11.38Z"/></g></g></g></svg>