<?xml version="1.0" encoding="UTF-8"?><svg xmlns="http://www.w3.org/2000/svg" viewBox="0 0 125.82 126.28"><defs><style>.uuid-52052211-c26a-4ee6-bab6-3a1a7ed7cd6b{opacity:.25;}.uuid-52052211-c26a-4ee6-bab6-3a1a7ed7cd6b,.uuid-23b56982-958c-49c4-9324-614e452fb6a0{mix-blend-mode:overlay;}.uuid-52052211-c26a-4ee6-bab6-3a1a7ed7cd6b,.uuid-23b56982-958c-49c4-9324-614e452fb6a0,.uuid-243a2009-de38-47c0-a03b-da78ac52e553,.uuid-44cce2c6-4765-4d92-aeb7-034254b5e9f6,.uuid-132bad25-e225-407f-86bf-1ad75025a15e,.uuid-c56597d6-6c59-4b38-be9d-d3c88012c454,.uuid-655f66b1-e303-45ee-912d-b2f658eaf42d,.uuid-53513bc7-02e0-42c1-b299-b4a32273aed7,.uuid-f945ee63-58f2-4b10-ac8e-c0abeb9bb142{stroke-width:0px;}.uuid-23b56982-958c-49c4-9324-614e452fb6a0{opacity:.45;}.uuid-4e041c89-f0d1-4a46-a30d-ba7bf62111cd{isolation:isolate;}.uuid-243a2009-de38-47c0-a03b-da78ac52e553{fill:#4b2640;}.uuid-44cce2c6-4765-4d92-aeb7-034254b5e9f6{fill:#2b0020;}.uuid-132bad25-e225-407f-86bf-1ad75025a15e{fill:#dd800b;}.uuid-c56597d6-6c59-4b38-be9d-d3c88012c454{fill:#e39635;}.uuid-655f66b1-e303-45ee-912d-b2f658eaf42d{fill:#8ebb6a;}.uuid-53513bc7-02e0-42c1-b299-b4a32273aed7{fill:#fff;}.uuid-f945ee63-58f2-4b10-ac8e-c0abeb9bb142{fill:#f6db99;}</style></defs><g class="uuid-4e041c89-f0d1-4a46-a30d-ba7bf62111cd"><g id="uuid-a4db8cbc-03b6-42f2-a0e7-c54b34d73b95"><g id="uuid-4613601d-849c-4110-a236-5a8ea377a80d"><circle class="uuid-655f66b1-e303-45ee-912d-b2f658eaf42d" cx="63.66" cy="73.14" r="53.15"/><path class="uuid-44cce2c6-4765-4d92-aeb7-034254b5e9f6" d="M125.7,72.45c-1.39-3.76-14.99-11.29-24.2-16.03-4.22-2.17-7.22-6.17-8.09-10.83-3.3-17.6-8.42-36.95-24.23-43.31C46.93-6.68,25.77,11.69,27.39,42.12c.14,2.57.18,5.21.15,7.91-.05,4.11-1.75,8.02-4.69,10.88C14.5,69.01.26,83.51,0,88.44c-.24,4.55,11.96,3.72,23.8-2.7-1.21,6.92-2.52,13.14-3.63,17.97,9.62,13.66,25.51,22.58,43.48,22.58,19.73,0,36.95-10.75,46.11-26.71-2.72-5.82-7.48-11.55-9.85-24.56,13.4,4.35,27.37,1.73,25.78-2.57Z"/><path class="uuid-243a2009-de38-47c0-a03b-da78ac52e553" d="M39.88,27.24c14.11,4.34,28.22-.54,40.16-7.06,2.62-1.38,3.7-2.93,3.78-4.58-3.5-5.94-8.17-10.72-14.64-13.33-15.77-6.35-30.99,1.04-37.94,16.71,1.55,3.87,4.38,6.98,8.64,8.26Z"/><path class="uuid-f945ee63-58f2-4b10-ac8e-c0abeb9bb142" d="M56.7,44.61c-23.45,17.37-26.05,46.55-21.15,73.64,8.15,5.09,17.78,8.04,28.11,8.04,16.51,0,31.26-7.53,41-19.34-12.09-15.23-9.73-37-18.11-54.74-5.43-11.4-20.08-15.2-29.85-7.6Z"/><path class="uuid-23b56982-958c-49c4-9324-614e452fb6a0" d="M76.19,49.23c1.26-1.26,1.79-3.43,2.33-5.77-5.94-3.49-13.47-3.86-19.63-.32,6.03,3.86,12.4,10.1,17.31,6.09Z"/><path class="uuid-132bad25-e225-407f-86bf-1ad75025a15e" d="M51.27,30.13s17.01,17.91,22.25,16.65c5.25-1.27,3.26-19.36,2.17-20.62-1.09-1.27-24.42,3.98-24.42,3.98Z"/><path class="uuid-52052211-c26a-4ee6-bab6-3a1a7ed7cd6b" d="M73.89,26.51s1.09,15.02-.9,15.74-15.02-10.31-15.02-10.31c0,0,11.51-4.16,15.92-5.43Z"/><path class="uuid-c56597d6-6c59-4b38-be9d-d3c88012c454" d="M55.62,24.22s1.09-5.29,6.78-6.43c5.7-1.14,5.23,3.3,9.8,2.89,7.48-.69,13.01-9.49,18.42-7.94,3.89,1.11-3.35,12.33-17.5,17.39-13.67,4.89-19.95,3.16-21.84,0s4.34-5.91,4.34-5.91Z"/><path class="uuid-23b56982-958c-49c4-9324-614e452fb6a0" d="M65.56,109.88c-2.63,0-5.42-.29-8.34-1-.73-.18-1.18-.91-1-1.64.18-.73.91-1.18,1.64-1,16,3.87,28.27-5.88,28.39-5.98.58-.47,1.44-.38,1.91.2.47.58.38,1.44-.2,1.91-.45.36-9.44,7.51-22.39,7.51Z"/><path class="uuid-23b56982-958c-49c4-9324-614e452fb6a0" d="M69.13,115.29c-1.65,0-3.45-.2-5.36-.72-.72-.2-1.15-.94-.95-1.67.2-.72.94-1.15,1.67-.95,7.31,1.99,12.87-1.43,12.93-1.47.63-.4,1.47-.21,1.87.43.4.63.21,1.47-.43,1.87-.21.13-4.07,2.51-9.73,2.51Z"/><path class="uuid-44cce2c6-4765-4d92-aeb7-034254b5e9f6" d="M54.63,17.86c-.5-2.47-1.56-4.53-2.78-5.74.03,1.83-.8,3.68-1.78,4.78-.96.88-2.2,1.48-3.51,1.77,0,0,0,0,0,0,.04.27.09.54.14.81.86,4.23,2.9,5.14,5.09,4.69,2.19-.45,3.71-2.08,2.85-6.31Z"/><path class="uuid-53513bc7-02e0-42c1-b299-b4a32273aed7" d="M50.07,16.89c.98-1.11,1.81-2.95,1.78-4.78h0c-.41-.4-.83-.7-1.26-.9-.05-.02-.09-.04-.14-.06-.07-.03-.14-.05-.21-.07-.06-.02-.13-.04-.19-.05-.06-.01-.12-.03-.18-.04-.08-.01-.16-.02-.24-.02-.05,0-.09,0-.14,0-.13,0-.25.01-.38.04-.13.03-.26.07-.39.12-.04.02-.08.04-.12.06-.08.04-.16.08-.24.13-.05.03-.09.07-.13.1-.07.05-.13.1-.2.15-.05.04-.09.09-.13.13-.06.06-.12.12-.17.18-.04.05-.08.11-.13.16-.05.07-.1.14-.15.21-.04.06-.08.13-.11.19-.05.08-.09.16-.13.24-.04.07-.07.14-.1.22-.04.09-.08.17-.11.26-.03.08-.06.16-.09.24-.03.09-.06.19-.09.28-.03.09-.05.17-.08.26-.03.1-.05.2-.07.3-.02.09-.04.19-.06.28-.02.1-.04.21-.05.32-.02.1-.03.2-.04.3-.01.11-.02.22-.04.34,0,.11-.02.21-.03.32,0,.12-.01.24-.02.36,0,.11,0,.22-.01.33,0,.12,0,.25,0,.37,0,.11,0,.22,0,.34,0,.13.02.27.03.4,0,.11.01.22.02.33.02.24.05.48.09.72,0,0,0,0,0,0,1.31-.29,2.55-.89,3.51-1.77Z"/><path class="uuid-44cce2c6-4765-4d92-aeb7-034254b5e9f6" d="M44.14,8.19c-.32.51-.16,1.17.35,1.49.24.15.53.19.79.14.28-.06.54-.22.7-.49.7-1.12,1.63-1.79,2.84-2.03,1.69-.34,3.09.64,3.12.66.48.35,1.15.25,1.51-.22.36-.48.26-1.16-.22-1.51-.09-.07-2.16-1.58-4.83-1.04-1.8.37-3.23,1.38-4.24,3.01Z"/><path class="uuid-44cce2c6-4765-4d92-aeb7-034254b5e9f6" d="M70.66,11.05c-.96.88-2.2,1.48-3.51,1.77,0,0,0,0,0,0,.04.27.09.54.14.81.86,4.23,2.9,5.14,5.09,4.69,2.19-.45,3.71-2.08,2.85-6.31-.5-2.47-1.56-4.53-2.78-5.74.03,1.83-.8,3.68-1.78,4.78Z"/><path class="uuid-53513bc7-02e0-42c1-b299-b4a32273aed7" d="M70.66,11.05c.98-1.11,1.81-2.95,1.78-4.78h0s0,0,0,0c-.41-.4-.83-.7-1.26-.9-.05-.02-.09-.04-.14-.06-.07-.03-.14-.05-.21-.07-.06-.02-.13-.04-.19-.05-.06-.01-.12-.03-.18-.04-.08-.01-.16-.02-.24-.02-.05,0-.09,0-.14,0-.13,0-.25.01-.38.04-.13.03-.26.07-.39.12-.04.02-.08.04-.12.06-.08.04-.16.08-.24.13-.05.03-.09.07-.13.1-.07.05-.14.1-.2.16-.05.04-.09.09-.13.13-.06.06-.12.12-.17.18-.04.05-.08.11-.12.16-.05.07-.1.14-.15.21-.04.06-.08.13-.11.19-.05.08-.09.16-.13.24-.04.07-.07.14-.1.22-.04.09-.08.17-.11.26-.03.08-.06.16-.09.24-.03.09-.06.19-.09.28-.03.09-.05.17-.08.26-.03.1-.05.2-.07.3-.02.09-.04.19-.06.28-.02.11-.04.21-.05.32-.02.1-.03.2-.04.3-.01.11-.02.23-.04.34,0,.1-.02.21-.03.32,0,.12-.01.24-.02.36,0,.11,0,.22-.01.33,0,.12,0,.25,0,.37,0,.11,0,.22,0,.34,0,.13.02.27.03.4,0,.11.01.22.02.33.02.24.05.48.09.72,0,0,0,0,0,0,1.31-.29,2.55-.89,3.51-1.77Z"/><path class="uuid-44cce2c6-4765-4d92-aeb7-034254b5e9f6" d="M63.1,3.43c-.32.51-.16,1.17.35,1.49.24.15.52.19.79.14.28-.06.54-.22.7-.49.7-1.12,1.63-1.79,2.84-2.03,1.69-.34,3.08.63,3.12.66.25.19.56.24.85.19.25-.05.49-.19.65-.41.36-.48.26-1.15-.22-1.51-.04-.03-.57-.42-1.41-.73-.87-.33-2.07-.58-3.42-.31-1.8.37-3.23,1.38-4.24,3.01Z"/><path class="uuid-132bad25-e225-407f-86bf-1ad75025a15e" d="M64.09,22.68s-3.29-1.91-3.44-.65c-.15,1.26,2.77,3.04,3.44.65Z"/></g></g></g></svg>