<?xml version="1.0" encoding="UTF-8"?><svg xmlns="http://www.w3.org/2000/svg" viewBox="0 0 106.3 121.19"><defs><style>.uuid-e4d3e84c-31bd-43f9-a7df-2bf53c4336c0{opacity:.2;}.uuid-e4d3e84c-31bd-43f9-a7df-2bf53c4336c0,.uuid-fc67abe2-c16a-4d78-8598-701eef39ef33{mix-blend-mode:overlay;}.uuid-e4d3e84c-31bd-43f9-a7df-2bf53c4336c0,.uuid-fc67abe2-c16a-4d78-8598-701eef39ef33,.uuid-122e09b7-d409-4b9e-9b76-094b464ba9a4,.uuid-58780af0-ef74-480a-b112-862bcbfb921c,.uuid-df6070e2-bb75-4beb-8924-2a91cc3b26d2,.uuid-1de76011-cd78-4854-b9c9-78190c285e1c,.uuid-51073ff4-6bb8-4e90-8ecc-8cf8e1cd3429,.uuid-6484b8b4-b781-4ea8-88f0-f166ea893079{stroke-width:0px;}.uuid-fc67abe2-c16a-4d78-8598-701eef39ef33{opacity:.32;}.uuid-9b704718-307c-4a56-b135-fe52b35ddd80{isolation:isolate;}.uuid-122e09b7-d409-4b9e-9b76-094b464ba9a4{fill:#f4c0ff;}.uuid-58780af0-ef74-480a-b112-862bcbfb921c{fill:#2b0020;}.uuid-df6070e2-bb75-4beb-8924-2a91cc3b26d2{fill:#e38027;}.uuid-1de76011-cd78-4854-b9c9-78190c285e1c{fill:#e36127;}.uuid-51073ff4-6bb8-4e90-8ecc-8cf8e1cd3429{fill:#fff;}.uuid-6484b8b4-b781-4ea8-88f0-f166ea893079{fill:#f6caa6;}</style></defs><g class="uuid-9b704718-307c-4a56-b135-fe52b35ddd80"><g id="uuid-25c47430-c6e8-480c-806b-cd3e750f1bd1"><g id="uuid-d0e61662-3a7b-42da-a1ec-3561beed7d2b"><circle class="uuid-122e09b7-d409-4b9e-9b76-094b464ba9a4" cx="53.15" cy="68.05" r="53.15"/><path class="uuid-df6070e2-bb75-4beb-8924-2a91cc3b26d2" d="M63.94,94.4c-5.64-5.77-18.64-6.54-23.84-1.41-6.03,5.87-11.16,12.6-15.46,19.92,7.38,4.7,16.02,7.64,25.37,8.19,10.98.65,21.37-2.09,30.17-7.3-4.52-6.98-10.17-13.29-16.25-19.41Z"/><path class="uuid-6484b8b4-b781-4ea8-88f0-f166ea893079" d="M61,105.95c-5.7-4.69-10.57-4.43-16.21-.96-4.23,2.47-8.88,8.29-11.5,12.36,5.2,2.1,10.83,3.4,16.73,3.75,7.27.43,14.28-.63,20.74-2.91-2.13-3.18-6.52-9.79-9.76-12.25Z"/><path class="uuid-e4d3e84c-31bd-43f9-a7df-2bf53c4336c0" d="M71.68,102.66c-2.45-2.82-5.05-5.56-7.74-8.26-5.64-5.77-18.64-6.54-23.84-1.41-3.79,3.69-7.23,7.73-10.33,12.03,22.5,10.79,43.08-1.01,41.9-2.36Z"/><path class="uuid-58780af0-ef74-480a-b112-862bcbfb921c" d="M77.99,23.05s18.19-6.19,16.35-13.1c-1.85-6.92-14.26-12.33-18.97-8.87-4.71,3.46-3.8,17.67-3.8,17.67l6.42,4.3Z"/><path class="uuid-6484b8b4-b781-4ea8-88f0-f166ea893079" d="M77.96,20.44s9.63-5.07,9.78-8.23-4.52-6.92-7.07-6.92-6.17,11.95-6.17,11.95l3.46,3.2Z"/><path class="uuid-58780af0-ef74-480a-b112-862bcbfb921c" d="M29.5,23.05s-18.19-6.19-16.35-13.1C15,3.03,27.41-2.39,32.12,1.07c4.71,3.46,3.8,17.67,3.8,17.67l-6.42,4.3Z"/><path class="uuid-6484b8b4-b781-4ea8-88f0-f166ea893079" d="M29.52,20.44s-9.63-5.07-9.78-8.23,4.52-6.92,7.07-6.92,6.17,11.95,6.17,11.95l-3.46,3.2Z"/><path class="uuid-df6070e2-bb75-4beb-8924-2a91cc3b26d2" d="M103.41,59.69c0,28.4-22.5,33.04-50.25,33.04S2.91,88.1,2.91,59.69,33.47,8.27,53.16,8.27s50.25,23.03,50.25,51.43Z"/><path class="uuid-6484b8b4-b781-4ea8-88f0-f166ea893079" d="M97.53,64.69c0,26.02-19.87,30.27-44.37,30.27s-44.37-4.25-44.37-30.27S35.77,17.57,53.16,17.57s44.37,21.09,44.37,47.12Z"/><path class="uuid-fc67abe2-c16a-4d78-8598-701eef39ef33" d="M20.24,57.34c-6.06,1.93-11.86,5.66-16.61,10.53,4.06,21.14,24.69,24.86,49.52,24.86s45.39-3.7,49.5-24.75c-21.66-18.35-56.01-18.66-82.42-10.64Z"/><path class="uuid-6484b8b4-b781-4ea8-88f0-f166ea893079" d="M94.59,85.08c0,13.15-18.55,15.36-41.44,15.36s-41.44-2.21-41.44-15.36,18.55-23.82,41.44-23.82,41.44,10.66,41.44,23.82Z"/><path class="uuid-1de76011-cd78-4854-b9c9-78190c285e1c" d="M70.78,63.52s-5.87-53.39-11.94-55.25c-6.07-1.86-10.58-1.09-13.91,1.66-3.33,2.75-9.01,51.83-8.42,54.67.59,2.84,29.56,6.47,34.27-1.07Z"/><path class="uuid-58780af0-ef74-480a-b112-862bcbfb921c" d="M70.78,69.1c2.07-2.34,3.73-6.07-4.1-7.84-7.84-1.76-26.9-.68-30.2,2.01s-.24,7.53,1.99,7.59c5.44.15,6.27-3.13,8.82,0,2.55,3.13,4.41,5.34,7.35,4.95,2.94-.39,5.19-5.93,7.93-6.12,2.74-.2,6.8,1.01,8.22-.59Z"/><path class="uuid-58780af0-ef74-480a-b112-862bcbfb921c" d="M101.43,72.54l-10.84-11.5c-.52-.55-.06-1.44.69-1.34l12.11,1.57s-.32,7.57-1.96,11.28Z"/><path class="uuid-58780af0-ef74-480a-b112-862bcbfb921c" d="M100.78,45.38h-8.78c-.63,0-1.01-.68-.68-1.22l4.9-8.02s3.4,5.63,4.56,9.24Z"/><path class="uuid-58780af0-ef74-480a-b112-862bcbfb921c" d="M89.05,26.89l-7.58,4.72c-.61.38-1.37-.17-1.2-.87l2.42-9.79s3.53,2.72,6.35,5.94Z"/><path class="uuid-58780af0-ef74-480a-b112-862bcbfb921c" d="M4.86,72.54l10.84-11.5c.52-.55.06-1.44-.69-1.34l-12.11,1.57s.32,7.57,1.96,11.28Z"/><path class="uuid-58780af0-ef74-480a-b112-862bcbfb921c" d="M5.51,45.38h8.78c.63,0,1.01-.68.68-1.22l-4.9-8.02s-3.4,5.63-4.56,9.24Z"/><path class="uuid-58780af0-ef74-480a-b112-862bcbfb921c" d="M17.24,26.89l7.58,4.72c.61.38,1.37-.17,1.2-.87l-2.42-9.79s-3.53,2.72-6.35,5.94Z"/><path class="uuid-58780af0-ef74-480a-b112-862bcbfb921c" d="M33.85,52.77c0-3.43-.84-6.47-2.15-8.41-.46,2.44-2.06,4.68-3.67,5.89-1.52.91-3.34,1.38-5.16,1.41,0,0,0,0,0-.01-.02.37-.03.74-.03,1.12,0,5.87,2.47,7.63,5.51,7.63s5.51-1.77,5.51-7.63Z"/><path class="uuid-51073ff4-6bb8-4e90-8ecc-8cf8e1cd3429" d="M28.03,50.25c1.61-1.21,3.21-3.45,3.67-5.89h0c-.43-.65-.92-1.16-1.44-1.54-.06-.04-.11-.08-.17-.12-.09-.06-.17-.11-.26-.15-.08-.04-.16-.08-.24-.12-.08-.03-.15-.07-.23-.1-.1-.04-.21-.07-.31-.09-.06-.02-.12-.03-.19-.05-.17-.03-.34-.05-.52-.05-.18,0-.37.02-.55.05-.06.01-.12.03-.18.05-.12.03-.24.06-.35.1-.07.03-.14.06-.21.1-.1.05-.21.09-.31.15-.07.04-.14.09-.21.14-.09.06-.19.13-.28.2-.07.06-.14.12-.21.18-.09.08-.17.15-.26.24-.07.07-.14.15-.2.22-.08.09-.16.18-.24.28-.07.08-.13.17-.2.26-.07.1-.15.21-.22.32-.06.1-.12.19-.18.3-.07.11-.14.23-.2.35-.06.11-.12.22-.17.33-.06.12-.12.25-.18.38-.05.12-.11.24-.16.36-.06.13-.11.27-.16.41-.05.13-.1.26-.14.39-.05.14-.09.29-.14.44-.04.14-.08.27-.12.41-.04.15-.08.31-.12.47-.03.14-.07.29-.1.43-.03.16-.06.33-.09.5-.03.15-.06.3-.08.45-.03.18-.05.36-.07.55-.02.15-.04.29-.06.44-.03.32-.06.65-.08.99,0,0,0,0,0,.01,1.83-.03,3.64-.5,5.16-1.41Z"/><path class="uuid-1de76011-cd78-4854-b9c9-78190c285e1c" d="M22.04,39.21c-.56.59-.53,1.52.06,2.08.28.27.65.4,1.01.4.39,0,.78-.15,1.07-.46,1.24-1.31,2.65-1.94,4.33-1.94,2.35,0,3.94,1.69,3.98,1.73.54.6,1.47.65,2.07.11.6-.54.66-1.47.11-2.07-.1-.11-2.46-2.7-6.16-2.7-2.5,0-4.67.96-6.47,2.86Z"/><path class="uuid-58780af0-ef74-480a-b112-862bcbfb921c" d="M77.17,49.85c-1.52.91-3.34,1.38-5.16,1.41,0,0,0,0,0-.01-.02.37-.03.74-.03,1.12,0,5.87,2.47,7.63,5.51,7.63s5.51-1.77,5.51-7.63c0-3.43-.84-6.47-2.15-8.41-.46,2.44-2.06,4.68-3.67,5.89Z"/><path class="uuid-51073ff4-6bb8-4e90-8ecc-8cf8e1cd3429" d="M77.17,49.85c1.61-1.21,3.21-3.45,3.67-5.89h0s0,0,0,0c-.43-.65-.92-1.16-1.44-1.54-.06-.04-.11-.08-.17-.12-.09-.06-.17-.11-.26-.15-.08-.04-.16-.08-.24-.12-.08-.03-.15-.07-.23-.1-.1-.04-.21-.07-.31-.09-.06-.02-.12-.03-.19-.05-.17-.03-.34-.05-.52-.05-.18,0-.37.02-.55.05-.06.01-.12.03-.18.05-.12.03-.24.06-.35.1-.07.03-.14.06-.21.1-.1.05-.21.09-.31.15-.07.04-.14.09-.21.14-.09.06-.19.13-.28.2-.07.06-.14.12-.21.18-.09.08-.17.16-.26.24-.07.07-.14.15-.2.22-.08.09-.16.18-.24.28-.07.08-.13.17-.2.26-.07.1-.15.21-.22.32-.06.1-.12.19-.18.3-.07.11-.14.23-.2.35-.06.11-.12.22-.17.33-.06.13-.12.25-.18.38-.05.12-.11.24-.16.36-.06.13-.11.27-.16.41-.05.13-.1.26-.14.39-.05.14-.09.29-.14.44-.04.14-.08.27-.12.41-.04.15-.08.31-.12.47-.04.14-.07.29-.1.44-.03.16-.06.33-.09.5-.03.15-.06.3-.08.45-.03.18-.05.36-.07.55-.02.15-.04.29-.06.44-.03.32-.06.65-.08.99,0,0,0,0,0,.01,1.83-.03,3.64-.5,5.16-1.41Z"/><path class="uuid-1de76011-cd78-4854-b9c9-78190c285e1c" d="M71.18,38.81c-.56.59-.53,1.52.06,2.08.28.27.65.4,1.01.4.39,0,.78-.15,1.07-.46,1.24-1.31,2.65-1.94,4.33-1.94,2.34,0,3.93,1.68,3.98,1.72.29.32.69.48,1.09.48.35,0,.7-.12.98-.37.6-.54.66-1.47.12-2.07-.05-.05-.65-.71-1.68-1.36-1.07-.67-2.6-1.34-4.48-1.34-2.5,0-4.67.96-6.47,2.86Z"/><path class="uuid-58780af0-ef74-480a-b112-862bcbfb921c" d="M61.52,89.17c-2.63,0-5.21-1.08-7.68-3.22-1.57,1.26-4.81,3.4-8.39,3.03-2.64-.27-4.91-1.81-6.73-4.58-.41-.63-.24-1.47.39-1.88.62-.41,1.47-.24,1.88.39,1.35,2.06,2.95,3.19,4.74,3.37,3.59.37,7.15-3.08,7.18-3.12.53-.53,1.38-.53,1.91,0,2.36,2.33,4.76,3.43,7.14,3.29,3.65-.22,6.18-3.36,6.2-3.39.47-.59,1.32-.69,1.9-.22.59.46.69,1.31.23,1.9-.13.17-3.27,4.1-8.14,4.42-.21.01-.42.02-.62.02Z"/><path class="uuid-58780af0-ef74-480a-b112-862bcbfb921c" d="M53.86,85.48c-.75,0-1.36-.61-1.36-1.36v-12.35c0-.75.61-1.36,1.36-1.36s1.36.61,1.36,1.36v12.35c0,.75-.61,1.36-1.36,1.36Z"/></g></g></g></svg>